<?xml version="1.0" encoding="utf-8"?>
<!-- Generator: Adobe Illustrator 24.1.3, SVG Export Plug-In . SVG Version: 6.00 Build 0)  -->
<svg version="1.1" id="Layer_1" xmlns="http://www.w3.org/2000/svg" xmlns:xlink="http://www.w3.org/1999/xlink" x="0px" y="0px"
	 viewBox="0 0 1000 1000" style="enable-background:new 0 0 1000 1000;" xml:space="preserve">
<style type="text/css">
	.st0{fill:#90E7CC;}
	.st1{fill:#61ACDB;}
	.st2{fill:#94EDD2;}
	.st3{fill:#6BBDF1;}
	.st4{fill:#86D5BD;}
	.st5{fill:#92E9CE;}
	.st6{fill:#9DFADE;}
	.st7{fill:#15221E;}
	.st8{fill:#9BF8DB;}
	.st9{fill:#70B29D;}
	.st10{fill:#98F3D6;}
	.st11{fill:#9CF9DC;}
	.st12{fill:#95EFD3;}
	.st13{fill:#80CDB5;}
	.st14{fill:#85D4BC;}
	.st15{fill:#96F1D5;}
	.st16{fill:#96F0D4;}
	.st17{fill:#98F4D7;}
	.st18{fill:#7EC9B2;}
	.st19{fill:#9CF9DD;}
	.st20{fill:#7CC6B0;}
	.st21{fill:#9BF9DC;}
	.st22{fill:#9CFADC;}
	.st23{fill:#66B5E7;}
	.st24{fill:#66B6E8;}
	.st25{fill:#6ABCEF;}
	.st26{fill:#67B8EA;}
	.st27{fill:#6BBEF2;}
	.st28{fill:#FEFEFE;}
</style>
<path d="M497.7,69.1c24.6,0,48.9,2.6,73.2,6.5c63.1,10.2,119.8,35.1,170.6,73.7c43.9,33.3,81.3,72.6,110,119.8
	c20.3,32.9,35.4,68.7,44.9,106.1c5.7,22.9,9.2,46.2,12,69.5c0.3,2.6,0.8,3.2,3.4,3.3c37.2,2,69.7,30.5,77,67.6
	c8.7,44-16.2,82.6-54.2,97.4c-13.7,5.3-27.8,5.7-42.1,3.9c-3.2-0.4-4.1,0.4-5.2,3.2c-13.6,38.3-33,74.4-57.6,106.8
	c-20.5,26.9-44.2,51-69.8,73.1c-24,20.7-50.5,38.3-78.8,52.4c-25.4,12.7-52.1,22.6-79.6,29.4c-31.4,7.9-63.5,11.9-95.9,12.1
	c-20,0.1-40,0-59.8-2.5c-35.3-4.5-69.7-12.7-102.9-26c-38.8-15.6-73.8-37.3-105.8-64c-22.6-18.8-43.4-39.8-62.1-62.6
	c-28.4-34.9-50.9-73.2-66-115.7c-1.5-4.2-3-5.9-7.9-5.5c-20.7,1.7-39.8-3-56.6-15.7c-26.2-19.9-37.7-46.1-34.8-79s29.1-65.3,66-73.5
	c0.2-0.1,0.3-0.1,0.5-0.2c3.6-0.2,8.2,0.2,10.2-2.4c1.8-2.3,1.1-6.7,1.4-10.1c6-66.9,28-128.1,66-183.6
	c21.1-30.9,46.2-58.3,74.1-83.3c35.5-31.8,76.4-57,120.8-74.2c21.5-8.3,43.8-14.6,66.5-18.8c16.6-3.1,33.4-4.8,50.2-6.4
	C476.2,69.6,486.9,69.2,497.7,69.1z"/>
<path class="st0" d="M890,564.1c-1.8,13.6-5.5,26.7-9.6,39.7c-13.6,43.5-34.8,83-62.4,119.1c-31.3,40.9-69.2,74.6-112.3,102.4
	c-23.4,15.1-49.3,25.1-75.2,34.9c-12.9,4.9-25.7,9.8-39.5,11.8c-0.6-0.2,0.2-0.1-0.3-0.3c-0.8-0.3-1.5-0.1-2.3-0.3
	c0.6,0.3,1.5-0.1,1.9,0.7c-1.6,0.8-3.4,1.1-5.1,1c-0.6-0.6-1.5-0.7-2.3-0.5c0.8-0.2,1.7,0,2.3,0.5c-8.9,2.3-17.9,4-27,5
	c-1.6-1.3-3.5-0.2-4.2-0.4c0.7,0.1,2.5-0.7,4.2,0.4c-11.9,2.1-24,3.3-36.2,3.7c-15-0.7-30-0.7-44.9,0c-30-1.1-59.5-5-88.3-13.8
	c1.1-1.1,2.4-0.7,3.6-0.4c-2.7-0.7-5.6-0.9-8.4-0.6c-15.7-4.4-30.5-11.3-45.7-17.1c-44.2-17-81.4-44.8-115.7-76.9
	c-28.9-26.9-53.8-58-73.8-92c-25.4-43.4-41.7-91.4-48-141.2c-6.7-50.4-4.7-101.7,6.2-151.4c9.6-43.5,27.1-84.9,51.8-121.9
	c1.7-2.6,2.5-2.7,4.5-0.4c19.7,21,52.2,23.4,74.7,5.3c8.8-6.9,16.7-14.9,23.5-23.8c11.6,25.4,29.1,42.1,58,42.2
	c29.4,0.1,45-18.7,57.2-43.8c9,30.9,26.5,51.5,59,53.1c31,1.5,50-16.3,61.8-44.8c13,31,34.3,48.8,67.9,44.2
	c29.1-3.9,44.9-23.9,52.8-52.1c2.9,5,5.2,9.1,7.6,13.2c9,15.4,21.7,26.5,39.6,29.2c22.6,3.5,42.1-3.3,56.6-21.9
	c4.5-5.8,8-12.1,11.9-19c5.2,6.6,10.3,12.7,16.3,17.9c12.4,10.8,26,18.2,43.2,17.5c14.3-0.4,27.9-6.3,37.8-16.6
	c1.6-1.6,2.7-3.1,4.7,0c27,40.8,44.6,85.3,54,133.2c1.1,6,1.6,12.2,3.1,18.2c2.4,11.7,3.2,23.7,4,35.6c2,29.4,1,58.9-3,88.1
	C893,549.2,892.1,556.8,890,564.1c-0.8-0.9-0.4-2.1-0.5-3.5C889.4,562,889.2,563.2,890,564.1z"/>
<path class="st1" d="M518,82.1c16.7,0.1,33.2,2.2,49.6,4.9c53.8,8.8,103.6,27.8,148.7,58.5c41.4,28.1,77.8,63,107.6,103.2
	c2.8,3.8,2.4,5.9-0.8,9.1c-15.5,15.7-38.4,18.1-56.9,5.2c-11.4-7.9-20.8-18.4-27.4-30.6c-1.5-2.8-3.3-4.4-6.6-4.3s-4.5,2.3-5.4,4.9
	c-4.3,11.9-10.2,22.8-19.1,31.9c-15.8,16-50.7,19.5-68.6-7c-6.1-9.3-11.6-19.1-16.4-29.1c-1.7-3.5-3.8-5.8-8-5.2s-4.4,4.1-5,7.1
	c-1.7,8.5-4.2,16.8-7.5,24.8c-8,19.3-22.5,30.1-43,31.5c-20.7,1.4-35.7-8.8-45.4-26.7c-4.9-9.1-9.2-18.4-9.8-29
	c-0.2-3.5-2.6-5-6.2-5.1c-3.8,0-6.2,1.7-6.6,5.4c-1.4,13.9-7.4,25.8-15.3,36.9c-12.1,16.8-32.1,22.3-51.9,16.3
	c-20.9-6.4-29.4-22.5-35.4-41.1c-1.4-4.4-2-9.1-3-13.6c-0.6-2.8-1.4-5.7-4.9-6.2s-6.1,1.2-7.7,4.2c-4.6,8.5-9.2,17-14,25.4
	c-17.3,30.8-52.7,28.6-70.1,13c-10-9-15.8-20.9-20.3-33.4c-1.3-3.6-3.4-5-7-4.8c-2.9,0.1-3.9,2.1-5.1,4.1
	c-8.2,14.5-18.9,26.6-33.8,34.4c-17.5,9.2-39.8,4.2-52.5-11c-2.2-2.7-0.9-4.1,0.5-6c10.7-14.7,22.3-28.6,34.8-41.8
	c33.6-35.4,71.3-65.5,115.3-87.1c30.1-14.7,61.9-25.3,94.8-31.7c18.2-3.6,36.5-5.5,54.9-7c2.2-0.1,4.3-0.1,6.5,0.1
	c12,1.1,24.1,0.2,36.1,0.4C514.8,82.6,516.4,83,518,82.1z"/>
<path class="st0" d="M904.5,606.2c-12.2,0-12,0-8.6-12.5c11-40.1,15.2-81,14.1-122.5c0-1.7-0.1-3.3-0.1-5c-0.1-6.9,0-7,6.7-5.9
	c28.9,4.8,48.7,21.6,58.1,48.7c9.3,26.8,4.2,52.1-15.3,73.4C945.1,598.1,927.3,606.8,904.5,606.2z"/>
<path class="st0" d="M85.5,485.2c-0.2,39.7,4.5,78.7,16.2,116.7c0.8,2.7,1.1,4.1-2.7,4.3c-40.1,2.9-69.8-26.8-76.5-57
	c-9-41,17.3-81.3,58.5-88.8c3.7-0.7,4.6,0.1,4.5,3.8C85.3,471.2,85.5,478.2,85.5,485.2z"/>
<path class="st2" d="M477,881.8c0.6-0.3,1.2-0.8,1.7-0.8c13.8,0,27.6,0,41.5,0c0.6,0,1.2,0.5,1.7,0.8C507,882.5,492,882.6,477,881.8
	z"/>
<path class="st3" d="M518,82.1c-0.4,0.3-0.8,0.8-1.2,0.8c-12.8,0-25.7,0-38.6,0c-0.4,0-0.8-0.5-1.2-0.8
	C490.7,81.6,504.3,81.6,518,82.1z"/>
<path class="st4" d="M893.1,418c-2.6-5.8-2.9-12-3.1-18.2C891.7,405.8,892.8,411.8,893.1,418z"/>
<path class="st5" d="M384,867c3.2-2.7,6.1-0.1,9.1,0.7l-4.3,0.3C387.1,867.9,385.4,868,384,867z"/>
<path class="st6" d="M590.3,872.1l-4-0.5c2.1-0.8,3.5-1.1,4.7,0.4l-0.3,0.2L590.3,872.1z"/>
<path d="M591.2,692c-9.7,31.2-29.2,54-59.8,65.2c-37,13.7-71.3,7.3-101-19.7c-17.6-16-27.8-35.8-30.8-59.3c-0.5-3.5-1.4-7.7,4.2-8.3
	c2.3-1,4.8-1.5,7.3-1.3h172.7c2.5,0,5-0.1,7.2,1.4c4,1.9,2.8,5.6,2.9,8.8C593.1,683.2,593.2,687.8,591.2,692z"/>
<path d="M718.7,387.1c6.2,1,12.6,1.5,18.6,3.3c47.9,14.1,78.2,44.9,89,94.2c0.1,0.5,0.3,0.9,0.5,1.4c1.5,2.2-0.2,4.9,1,7.2
	c1.3,16.9,0.4,33.6-4.5,49.9c-14.4,47.8-62.2,85.2-115.5,85.3c-56.5,0-103.8-41.8-116.2-87.8c-0.9-3.2-1.6-6.4-2.4-9.6
	c-1.7-2.2,0.1-4.9-1.1-7.1c-1.8-18-1-35.9,4.7-53.2c11.1-34,33.9-57.6,65.6-73.3c12.3-6.1,25.5-8.1,38.8-10.1
	C704.3,386.2,711.6,386.2,718.7,387.1z"/>
<path d="M258,625c-15.7-4.7-30.5-11.2-43.6-21.3c-47.8-37-62.4-102.2-33-154.3c19.8-35.1,50-56.7,90.9-61.5c1.3-0.1,2.6-0.5,3.9-0.7
	c7.1-1,14.3-1,21.5,0c9.3,1.5,18.9,2.3,27.8,5.7c45.9,17.8,74.8,50.2,81.2,99.6c6.9,53.2-21.2,102.2-69.6,124.9
	c-19.9,9.4-41,11.8-62.8,10.4C268.8,627.5,263.4,626.6,258,625z"/>
<path d="M497.6,626.8c-32-0.3-49.1-22.1-51.2-51.9c-0.2-3.2,1.3-5.5,4.7-5.9c3.9-0.5,6.5,1,7.3,4.9s1.2,8.3,2.2,12.3
	c5.8,21.6,21.4,30.7,42.4,28.1c19.2-2.4,29-12.9,33-34.4c0.4-2,0.6-4,0.9-5.9c0.7-4.1,3.2-5.6,7.1-5c3.7,0.5,5.2,3.1,4.9,6.4
	C546.3,604.8,529.7,626.4,497.6,626.8z"/>
<path class="st7" d="M591,670l-187.2-0.1l1.2-1c1.8-1.3,3.8-0.9,5.8-0.9c57.8,0,115.6,0,173.4,0c2,0,4-0.5,5.7,1.1L591,670z"/>
<path class="st8" d="M405,668c0.4-2.1,2.1-1,3-1c59.1-0.1,118.2-0.1,177.3,0c1.6,0,3.4-0.6,4.6,1.1c-1.4,0.7-2.9,0.4-4.4,0.4
	c-58.7,0-117.4,0-176.1,0C408,668.4,406.4,668.8,405,668z"/>
<path class="st9" d="M405,668l184.9,0.1v1L413.5,669c-2.8,0-5.7,0-8.5-0.1C405,668.6,405,668.3,405,668z"/>
<path class="st10" d="M297.8,387.1h-21.5l-5.3-0.4v-0.5h32.3C301.4,387.5,299.5,386.6,297.8,387.1z"/>
<path class="st11" d="M718.7,387.1h-21.5c-1.3-0.6-3,0.4-4.4-1h30.3C721.7,387.5,720.1,386.6,718.7,387.1z"/>
<ellipse class="st12" cx="707.9" cy="629.5" rx="16.7" ry="0.3"/>
<path class="st13" d="M258,625l16.3,2.8C268.8,628.5,263.1,627.6,258,625z"/>
<path class="st14" d="M591.2,692c0.9-4.4,1.8-8.8,2.7-13.2C594.1,683.4,594.3,688,591.2,692z"/>
<path class="st15" d="M314.1,291.3h12.7v0.5h-12.7V291.3z"/>
<path class="st16" d="M668,291.3h12.7v0.4H668V291.3z"/>
<path class="st17" d="M502.7,628.7h-10.6v-0.5h10.8L502.7,628.7z"/>
<path class="st18" d="M588.1,523.8c1,2.3,1,4.7,1.1,7.1C586.9,528.8,588.2,526.2,588.1,523.8z"/>
<path class="st19" d="M558.1,878l-5.9-0.3C554.2,877.1,556.3,876.1,558.1,878L558.1,878z"/>
<path class="st20" d="M827.8,493.2c-0.8-2.3-1.1-4.7-1-7.2C828.9,488.1,827.8,490.8,827.8,493.2z"/>
<path class="st21" d="M445.5,582.2c-0.7-1.4-0.8-3-0.1-4.4C446.1,579.2,446.2,580.8,445.5,582.2z"/>
<path class="st6" d="M166.6,522.8c0.6,1.4,0.6,3-0.1,4.4C165.8,525.8,165.9,524.2,166.6,522.8z"/>
<path class="st22" d="M890,564.1c-1.4-1.2-1.4-2.6-0.4-4.6C889.8,561.3,889.9,562.7,890,564.1L890,564.1z"/>
<path class="st11" d="M585.1,873.1l-4.6-0.4C582.5,871.6,583.9,871.6,585.1,873.1z"/>
<path class="st23" d="M797.5,269.8h-12.3v-0.5h12.8L797.5,269.8z"/>
<path class="st24" d="M198.1,269.3h11.7v0.4h-11.7V269.3z"/>
<path class="st25" d="M381.9,222.8h-4.7v-0.4h4.6L381.9,222.8z"/>
<path class="st26" d="M444,87c-3,0-4.5,0.5-6.2-0.4C439.8,85.9,442.1,86,444,87z"/>
<path class="st27" d="M618.2,222.6c-1.4,0.6-3,0.6-4.4-0.1C615.2,221.8,616.8,221.9,618.2,222.6z"/>
<path class="st28" d="M464.5,681c7.7,0,15.3,0,22.9,0c2.2,0,3.4,0.1,2.8,2.9c-2.4,12.8-15.2,23.9-27.7,23.2
	c-11.2-0.6-17.2-8.5-21.8-17.4c-4.3-8.5-4.1-8.7,5.3-8.7L464.5,681z"/>
<path class="st28" d="M531.3,681c7.5,0,15,0.1,22.5,0c2.9-0.1,3.2,0.7,2.4,3.4c-2,6.9-6,13.1-11.4,17.8c-8.2,7.1-19.7,6.8-28.8-0.5
	c-2.5-2-4.6-4.3-6.3-7c-2.5-3.9-6.2-8.6-4.4-12.6c1.3-3,7.2-0.8,11.1-1C521.3,680.8,526.3,681,531.3,681z"/>
<path class="st28" d="M708.7,399.4c60.6,0,107.3,47.5,107.7,108.9c0.3,60.4-52.5,110.8-113.7,108c-51.8-2.3-104.7-48.3-103.4-111.5
	C600.3,450,647.1,397.4,708.7,399.4z"/>
<path class="st28" d="M286.5,399.4c61.5-2.1,110.1,51.2,109.5,109.3c-0.6,59.1-52.5,110.3-113.8,107.6
	C231,614,177.3,569.5,178.7,504.6C179.9,448.6,226.8,398.2,286.5,399.4z"/>
<path d="M715.2,564.6c-29.5,2.2-58.1-26.2-58-59c0.1-28.4,26.4-58,57.9-57.5c32.7,0.5,58.7,25.8,58.8,58.4
	C774,538.9,747.2,566,715.2,564.6z"/>
<path d="M280.1,564.6c-32.2,1.4-59-25.8-58.9-58.5c0.1-30,25.3-57.8,58.8-58c31.1-0.2,57.8,28.8,58,58.5
	C338.3,537.5,309.5,567,280.1,564.6z"/>
</svg>
