<?xml version="1.0" encoding="utf-8"?>
<!-- Generator: Adobe Illustrator 24.1.3, SVG Export Plug-In . SVG Version: 6.00 Build 0)  -->
<svg version="1.1" id="Layer_1" xmlns="http://www.w3.org/2000/svg" xmlns:xlink="http://www.w3.org/1999/xlink" x="0px" y="0px"
	 viewBox="0 0 1754.1 368.8" style="enable-background:new 0 0 1754.1 368.8;" xml:space="preserve">
<style type="text/css">
	.st0{fill:#FCFCFC;}
	.st1{fill:#FEFEFE;}
	.st2{fill:#010101;}
	.st3{fill:#020202;}
</style>
<path d="M1417.6,162.7c-0.9-1.6-0.2-3.4-0.5-5.1c-1.3-16.7-3.9-33.1-10.5-48.6c-12.3-29.1-33.9-46.9-65.8-48.1
	c-34.2-1.3-68.5-0.3-102.8-0.3c-1.6,0-3.4-0.4-3.7,2c-0.1,72-0.1,144-0.1,215.9c0,0.7,0.1,1.3,0.2,2c1.7,1.6,3.8,1,5.7,1h98.3
	c6.2-0.1,12.4-1.1,18.4-2.8c26.8-7.3,42.3-26.1,51.8-51c5.3-13.9,7.1-28.5,8.5-43.2c0.3-1.8-0.4-3.5,0.5-5.1V162.7z M1338.6,203.5
	c-2.7,10.2-7,19.7-16.2,25.9c-0.7,0.5-1.4,0.9-2.1,1.2c-9.5,5.1-10.8,4.4-10.8-6.1V171c0-19.5,0.1-39-0.1-58.5
	c0-3.5,0.7-4.6,4.3-4.2c9.3,1,15.6,6.2,19.7,14.1c5,9.4,7.1,19.6,7.9,30.1C1342.8,169.6,1343.1,186.8,1338.6,203.5z"/>
<path d="M960.8,200.8c-1.8-14-7.1-25.9-17.1-35.7c-5-4.9-11.6-7.4-18-10.2c2.4-2.8,5.1-4.8,7-7.6c5.7-8.1,7.5-17.4,8.4-26.9
	c0.2-3.3,0.1-6.6,0-9.9c-0.9-2.7-0.8-5.5-1.3-8.2c-3.9-24.5-22.9-42.1-49.7-41.9c-21.7,0.1-43.3,0-65,0c-31.3,0.1-62.6,0.1-93.9,0
	c-3.5,0-5.3,0.8-6.8,4.6c-7.1,18.5-14.8,36.8-22.2,55.3c-0.7-0.5-1.3-1.2-1.5-2.1c-7.2-18-14.5-36-21.7-54c-1-2.6-2.2-3.8-5.3-3.8
	c-19.8,0.2-39.6,0.2-59.5,0c-4,0-4.4,2.1-3.2,4.4c1.7,3.2,2.8,6.6,4.3,9.8c5.9,12.7,11.5,25.4,17.3,38.3s11.4,25.8,17,38.8
	c5.1,11.8,10.2,23.5,15.3,35.3c0.9,3.3,0.4,6.6,0.3,9.9c0.2,27.8-0.2,55.6,0.2,83.4c1.5,1.5,3.4,1,5.2,1c21.3,0,42.6-0.2,64,0.1
	c5,0.1,6-1.7,6-6.3c-0.2-27.6,0-55.3-0.2-82.9c0-4.1,0.9-8.2,2.6-11.9c11.3-26,22.4-52.1,33.7-78.1c2.7-6.2,5.6-12.4,8.4-18.6
	l0.7,0.3v5.5c0.1,61.9,0.1,123.9-0.1,185.9c0,4.7,1.1,6.3,6.1,6.3c37.3-0.2,74.6-0.1,111.9-0.1c3.3,0.1,6.7,0,10-0.4
	c22.5-3.4,35.7-17.4,42.9-37.9C961.3,229.6,962.8,215,960.8,200.8z M856.7,136.4V98.7c10.2,2.5,16.4,12.1,14.9,22.6
	c-1.1,7.6-3.5,14.4-11.6,17.5C856.9,140,856.6,139,856.7,136.4L856.7,136.4z M875.5,231.7c-3.5,5.6-8.8,8.1-15.6,7.9
	c-2.6-0.1-3.3-0.8-3.3-3.4c0.2-8.5,0.1-17,0.1-25.4s0.1-16.6-0.1-24.9c-0.1-2.8,0.6-3.6,3.5-3.6c8,0.1,14.1,3.6,17.2,10.6
	C883.2,206,883.4,219.2,875.5,231.7L875.5,231.7z"/>
<path d="M621,276.3c-10.9-22.5-21.7-45-32.8-67.5c-1.3-2.7-1-3.6,1.4-5.1c10.3-6.4,18.5-15.7,23.6-26.8c10-22.3,10.3-45.6,3.1-68.4
	c-10-31.4-32-47.5-61.1-47.7c-101.4-0.6-203-0.2-304.4-0.3c-3,0-4.3,0.9-4.8,3.8c-5,26.5-10.1,53-15.4,79.5
	c-0.9,4.2-0.9,8.8-3.5,13.6c-6.2-31.4-12.4-61.9-18.2-92.4c-0.7-3.7-2-4.5-5.4-4.5c-28.5,0.1-57,0.1-85.5,0.1
	c-38.8-0.1-77.6-0.1-116.5,0c-1.9,0-4.5-1.2-5.2,2c-0.1,72,0,143.9-0.1,215.9c0,0.7,0.1,1.3,0.2,2c1.2,1.2,2.7,1,4.2,1
	c46.2,0,92.3,0,138.4,0.1c3.5,0,4.7-1.1,4.6-4.6c-0.2-9.7-0.1-19.3-0.1-29c0-7.3,0-7.3-7.1-7.3c-20.3,0-40.7-0.1-61,0.1
	c-3.2,0-4.1-0.8-4.1-4.1c0.2-13.7,0.2-27.3,0-41c-0.1-3.7,1.1-4.3,4.5-4.2c12.7,0.2,25.3,0,38,0.1c3.5,0,4.7-1.1,4.7-4.6
	c-0.1-10.7-0.1-21.3,0-32c0-3.5-1.2-4.5-4.7-4.5c-12.5,0.2-25-0.1-37.5,0.2c-3.8,0.1-5.1-0.7-5-4.8c0.3-13.2,0.3-26.3,0-39.5
	c-0.1-4.3,1.1-5.1,5.2-5.1c21.8,0.1,43.6,0,65.5-0.3c2.1,0,1.6,0.9,1.8,1.8c0.8,3.8,1.6,7.7,2.4,11.6c6.1,30.4,12.3,60.7,18.5,91.1
	c4.9,24,10,48,14.8,72c0.7,3.5,2.1,4.2,5.3,4.2c28.4-0.1,56.7-0.1,85,0c3.6,0,5.1-1.4,5.7-4.5l4.2-20.7c4.6-22.1,9.1-44.3,13.6-66.4
	c4.5-21.9,8.8-43.9,13.5-65.8c1.3-6.1,1.9-12.4,4.9-18.2v170.8c0,3.3,0.1,4.9,4.3,4.9c69.8-0.1,139.6-0.1,209.5,0
	c4.3,0,5.4-1.4,5.3-5.5c-0.2-10.4-0.1-20.8-0.1-32.3c5.7,12.3,10.9,23.4,16,34.6c0.7,2.1,2.7,3.4,4.9,3.1
	c22.2-0.1,44.3-0.1,66.5-0.1C622.9,281.5,623.2,280.9,621,276.3z M451.1,240.7c-20-0.3-40-0.2-60,0c-3.3,0-4.6-0.5-4.5-4.2
	c0.2-13.7,0.2-27.3,0-41c0-3.1,0.6-4.2,4-4.2c12.7,0.2,25.3,0,38,0.2c3.9,0.1,5.2-1.2,5.2-5.1c-0.2-10.3-0.2-20.7,0-31
	c0.1-4.1-1.4-5.1-5.2-5c-12.5,0.2-25,0-37.5,0.1c-3.3,0-4.5-0.5-4.5-4.2c0.2-13.8,0.2-27.6,0-41.5c0-2.7,0.6-3.7,3.5-3.6
	c20.7,0.1,41.3,0.2,62,0c3.4,0,3.6,1.3,3.6,4.1v65.9c0,21.5-0.1,43,0.1,64.5C455.8,239.4,455.3,240.8,451.1,240.7L451.1,240.7z
	 M547.9,137.5c-0.3,12.5-1.2,22.8-7.8,31.6l-0.9,1.2c-2.2,2.2-4.7,5.5-7.5,4.8c-2.1-0.5-0.8-4.7-0.8-7.2c-0.1-20.1-0.1-40.3,0-60.4
	c0-1.3-0.7-2.9,0.5-3.7c1.5-1,2.7,0.5,3.9,1.3c7.6,5,9.8,13,11.5,21.1C547.6,130.5,548.2,135,547.9,137.5L547.9,137.5z"/>
<path d="M1670.7,200.2c-1.4-6.3-7.5-11.1-14.9-12.7c-16.3-3.7-33.2-5.3-49.1-10.9c-20.4-7.1-29.9-21.3-30.1-42.4
	c-0.1-7.5,0.4-15-0.1-22.5c-1.2-20,9-33.1,25.3-42.6c11.7-6.8,24.5-9.6,38-10.7c11.1-0.8,22.2-1,33.3-0.5c15.3,0.4,30.3,2.8,44,10.7
	c14.2,8.1,23.8,19.3,25.8,36.1c0.1,7.9,0.1,15.9,0,23.9c-1.1,1.8-2.8,1.9-4.8,1.9c-21.6,0-43.3-0.1-64.9,0c-3.7,0-5.1-1-4.8-4.8
	c0.3-4.5,0.2-9,0.1-13.5c-0.1-5.6-4-11.9-7.1-11.6c-2.7,0.2-5.9,6.5-5.9,11.7v17c-0.2,3.7,1.7,7.1,4.8,9c8.2,5.2,17.6,6.5,26.8,8.3
	c12,2.2,24,4.6,35.2,9.8c15.7,7.1,24.7,19.1,26.4,36.3c0.2,12,0.1,23.9,0,35.9c-1,10.3-3.7,20-10.2,28.4
	c-9.5,12.1-22.2,19.3-36.6,23.6c-18.7,5.6-38.1,4.6-57.2,3.8c-16.9-0.7-33-7.2-45.5-18.5c-9.9-8.8-15.7-20.4-17.8-33.6
	c-1.7-10.7-0.6-21.5-0.8-32.2c-0.1-2.8,1-4.3,4.4-4.3c22.2,0.1,44.3,0.1,66.4,0c4,0,5.1,1.5,5,5.4c-0.2,8.7-0.1,17.3-0.1,26
	c0.1,4.7,1.8,9.2,5,12.6c1.4,1.7,2.3,1.5,3.9,0c3.4-3.2,5.4-6.9,5.2-11.7C1671.3,218.8,1671.4,209.5,1670.7,200.2z"/>
<path d="M1094.1,47.6c17.6-0.7,35,0.7,51.7,7c20.1,7.5,38.1,20,52.1,36.3c11.5,13.3,20.4,27.8,25.2,44.7
	c11.5,40.5,6.2,78.6-19.1,112.7c-20.6,27.8-48.3,45.3-82.8,49.7c-24.7,3.1-49.7,3.3-74-4.7c-28.7-9.5-50.5-27.8-67.2-52.5
	c-10-14.9-16.2-31.9-18.2-49.7c-2.5-21.1-1.4-41.8,6.2-61.8c8.1-21.3,21.4-38.9,38.9-53.5c10.4-8.6,21.9-15.5,34.3-20.7
	c8.2-3.5,17.2-5.4,26.1-6.5C1076.2,47.6,1085.2,47.2,1094.1,47.6z"/>
<path d="M1497.1,120.9c7.6-18.9,15.1-37.3,22.4-55.7c1.4-3.6,3.5-4.8,7.4-4.7c18.8,0.2,37.6,0.1,56.5,0.1c5.7,0,6.4,0.8,4.2,5.8
	c-9.8,22.8-19.7,45.5-29.5,68.3c-7.3,16.9-14.5,33.8-21.8,50.7c-0.7,1.7-0.5,3.2-0.5,4.9c0,28.5-0.1,57,0.1,85.4
	c0,4.6-1.3,6-5.9,5.9c-21.7-0.2-43.3-0.2-65,0c-3.6,0-4.3-1-4.3-4.4c0.2-25.1,0-50.3,0.1-75.5c0-8.2-0.2-16.2-4.1-23.9
	c-6.6-13.2-12.4-26.8-18.4-40.3s-11.8-27.1-17.7-40.6c-4.5-10.1-9-20.2-13.7-30.2c-2.4-5.3-2-6.2,3.7-6.2c18.8,0,37.7,0.2,56.5-0.1
	c4.2-0.1,6.1,1.5,7.5,5.1c7,17.8,14.1,35.5,21.1,53.2C1496.1,119.4,1496.6,120.2,1497.1,120.9z"/>
<path class="st0" d="M-3.6,62.6v214.9c0,1,0.1,2,0.2,3c-1.3-1.6-0.7-3.5-0.7-5.3V68C-4.2,66.2-4.7,64.3-3.6,62.6z"/>
<path class="st0" d="M1234.2,62.6v214.9c0,1,0.1,2,0.2,3c-1.3-1.6-0.7-3.5-0.7-5.3V68C1233.7,66.2,1233.2,64.3,1234.2,62.6z"/>
<path class="st0" d="M503.2,368h190.9c-1.5,1-3.2,0.6-4.9,0.6H508.1C506.4,368.6,504.7,369,503.2,368z"/>
<path class="st1" d="M664.8,187.2c0.1,1.8,0.4,3.6,0.4,5.4c0.1,29.3,0.2,58.6,0.2,87.9c-0.9-1-0.7-2.2-0.7-3.3
	C664.8,247.1,664.9,217.1,664.8,187.2z"/>
<path class="st1" d="M501.2,295.9c1,12.4,0.2,24.8,0.4,37.2c0.2,11.1,0.1,22.2,0.1,33.3c-0.3-1.1-0.5-2.2-0.5-3.4
	C501.1,340.8,501.1,318.4,501.2,295.9z"/>
<path class="st0" d="M721.2,368h67.9C766.4,369,743.8,369,721.2,368z"/>
<path class="st0" d="M1559.1,368h67.9C1604.3,369,1581.7,369,1559.1,368z"/>
<path class="st0" d="M1466.1,367.9l65.9,0.1c-0.8,0.3-1.6,0.5-2.4,0.6h-61.2C1467.6,368.5,1466.8,368.2,1466.1,367.9z"/>
<path class="st0" d="M382.2,367.9h64.9c-1,0.6-2.2,0.9-3.3,0.7h-58.2C384.4,368.6,383.2,368.7,382.2,367.9z"/>
<path class="st0" d="M695.5,366.5c0-16.8,0-33.5,0.1-50.3c0-1.5,0.2-2.9,0.3-4.4h0.5c0.2,0.3,0.4,0.5,0.5,0.8
	c-1.2,1.7-0.7,3.5-0.7,5.3v43.2C696.1,362.9,696.6,364.8,695.5,366.5z"/>
<path class="st0" d="M1533.5,366.5c0-16.8,0-33.5,0.1-50.3c0-1.5,0.2-2.9,0.3-4.4h0.4c0.2,0.3,0.4,0.5,0.5,0.8
	c-1.2,1.7-0.7,3.5-0.7,5.3v43.2C1534,362.9,1534.5,364.8,1533.5,366.5z"/>
<path class="st1" d="M895.7,326.2l-51.9-0.1c4.7-1.3,9.5-0.5,14.3-0.5c10.9-0.1,21.8-0.1,32.8,0C892.5,325.5,894.2,325,895.7,326.2z
	"/>
<path class="st0" d="M1749,228.5v-35.9C1750.1,204.5,1750.1,216.5,1749,228.5z"/>
<path class="st1" d="M1060,320.7c-1.1-9-0.1-18-0.5-27C1060.8,302.6,1059.8,311.7,1060,320.7z"/>
<path class="st0" d="M1670.7,200.2c0.7,9.2,0.7,18.3,0,27.5V200.2z"/>
<path class="st0" d="M1743,128.5v-23.9C1744,112.5,1744,120.5,1743,128.5z"/>
<path class="st0" d="M941.1,120.5v-9.9C942.1,113.8,942.1,117.2,941.1,120.5z"/>
<path class="st0" d="M1417.6,162.6c-1-1.6-0.2-3.4-0.5-5.1C1418.1,159.2,1417.5,161,1417.6,162.6z"/>
<path class="st0" d="M1417.1,184.5l0.5-5.1C1417.5,181,1418.1,182.8,1417.1,184.5z"/>
<path class="st1" d="M157.8,65.4c14.7,0,28.8,0.1,43-0.1c2.5,0,3.5,0.9,4,3.2c8,41.2,16,82.4,24.1,123.7c1.3,6.6,2.6,13.3,4,19.9
	c0.4,1.8,0.5,4,2.8,4.1s2.7-2.1,3-3.8c6-31.2,12.1-62.3,18.1-93.5c3.3-17,6.7-34,9.9-51.1c0.4-2.3,1.7-2.5,3.5-2.5h41
	c2.3,0,2.7,0.5,2.2,2.9c-6.2,29.4-12.3,58.8-18.3,88.2L274.7,256c-1.2,5.8-2.7,11.6-3.6,17.5c-0.4,2.7-1.5,3-3.8,3
	c-21-0.1-42-0.2-63,0.1c-3.3,0-3.9-1.4-4.4-3.9c-4.7-23.1-9.4-46.3-14.2-69.4c-6.5-32.2-13.1-64.4-19.5-96.7
	C163.5,93,160.7,79.5,157.8,65.4z"/>
<path class="st1" d="M332.7,171c0-33.5,0.1-67-0.1-100.5c0-3.9,0.6-5.3,5-5.2c37.2,0.2,74.3,0.2,111.5,0c3.5,0,5,0.5,4.8,4.5
	c-0.4,7.6-0.3,15.3,0,23c0.1,3.1-0.7,3.9-3.8,3.9c-20.7-0.1-41.3,0-62-0.2c-4.7,0-6.5,1.1-6.4,6.1c0.3,16,0.2,32,0,48
	c0,3.8,1.2,4.9,4.9,4.9c12.5-0.2,25,0.1,37.5-0.2c4.1-0.1,4.9,1.2,4.8,5c-0.3,7.3-0.3,14.7,0,22c0.1,3.4-0.7,4.5-4.3,4.4
	c-12.3-0.2-24.7,0-37-0.2c-4.2-0.1-6,1.2-5.9,5.7c0.2,16.2,0.2,32.3,0,48.5c-0.1,4.2,1.4,5,5.2,4.9c20.8-0.2,41.7,0,62.5-0.2
	c3.9,0,4.7,1.1,4.5,4.7c-0.3,7.5-0.3,15,0,22.5c0.1,3.4-1,4-4.2,4c-37.7-0.1-75.3-0.1-113,0c-3.4,0-4-1-4-4.2
	C332.8,238.6,332.7,204.8,332.7,171z"/>
<path class="st1" d="M17.6,170.5c0-33.5,0.1-67-0.1-100.4c0-4.1,1.2-4.8,5-4.8c37.1,0.1,74.3,0.1,111.4,0c3.7,0,5.2,0.6,5,4.8
	c-0.4,7.5-0.3,15,0,22.5c0.1,3.3-0.8,4.1-4.1,4.1c-20.6-0.1-41.3,0.1-62-0.2c-4.9-0.1-6.2,1.5-6.1,6.2c0.3,15.8,0.3,31.6,0,47.5
	c-0.1,4.3,1.4,5.4,5.4,5.3c12.5-0.2,25,0,37.5-0.1c3,0,4.4,0.4,4.3,3.9c-0.3,7.8-0.2,15.7,0,23.5c0.1,3-0.6,3.9-3.8,3.9
	c-12.5-0.2-25,0.1-37.5-0.2c-4.7-0.1-6,1.5-5.9,6.1c0.3,16,0.3,32,0,48c-0.1,4.3,1.3,5.2,5.3,5.1c20.8-0.2,41.7,0,62.5-0.2
	c3.4,0,4.5,0.7,4.4,4.3c-0.3,7.8-0.2,15.7,0,23.5c0.1,2.6-0.6,3.4-3.3,3.3c-38.1-0.1-76.3-0.1-114.4,0c-3.6,0-3.5-1.5-3.5-4.1
	C17.7,238.5,17.7,204.5,17.6,170.5z"/>
<path class="st1" d="M787.7,65.4c-6.9,16-13.7,31.7-20.5,47.4c-10.1,23.3-20.2,46.7-30.3,70c-0.9,2.1-1.3,4.4-1.2,6.7
	c0.1,27.5,0,55,0.1,82.5c0,3.6-0.6,4.8-4.5,4.7c-13.5-0.3-27-0.2-40.5,0c-3.5,0.1-4.3-0.9-4.3-4.4c0.2-26.8,0-53.6,0.1-80.5
	c0-3.6-0.8-7.2-2.3-10.5c-16.5-37.2-33-74.5-49.5-111.8c-0.5-1.1-1.6-2.2-0.8-4.1c12.6,0,25.4,0.1,38.2-0.1c2.7,0,2.8,1.9,3.4,3.4
	c9.4,23.2,18.8,46.5,28.2,69.7c1.2,2.9,2.4,5.8,3.5,8.7c0.6,1.4,0.9,2.9,2.9,2.9s2.3-1.5,2.9-2.9c5.5-13.7,11-27.5,16.5-41.2
	c4.9-12.2,9.8-24.4,14.5-36.7c1.1-2.8,2.5-4.1,5.7-4C762.3,65.5,774.8,65.4,787.7,65.4z"/>
<path class="st1" d="M1626.8,200.5h2.5l21.9,0.3c1,7.2,0.2,14.5,0.5,21.8c0,3.3,0.3,6.6,0.9,9.9c2.6,10.6,9.7,16.2,20.8,16
	c9-0.2,16.6-7,18.2-16.6c1.8-10.7,1.1-21.6,0.6-32.4c-0.3-8.1-8.5-14.6-19.1-17c-14.2-3.2-28.6-5-42.7-8.9
	c-4.4-1.2-8.7-2.9-12.8-4.9c-11.3-5.6-17.4-14.7-19.1-27.2c-1.6-12-1.3-24-0.6-35.9c1-17.7,12.5-28.3,27.6-35
	c17.2-7.6,35.4-9.1,54-7.6c11.3,0.9,22.3,3,32.5,8.2c17.2,8.7,27.4,21.8,26.2,42.2c-0.7,12.1-0.1,12.1-12.2,12.1
	c-11,0-22-0.1-33,0.1c-2.9,0-3.7-0.8-3.5-3.6c0.2-3.6,0.1-7.3,0.1-11c-0.2-10-7.9-17.1-18.6-17.3c-11.9-0.2-19.7,6.1-20.1,16.6
	c-0.3,7-0.2,14,0,21s6.6,12.6,15.6,15.3c14.3,4.3,29.2,5.6,43.4,10c8.4,2.6,16.5,5.9,23,12.2s10.6,13.7,10.9,22.6
	c0.4,12.1,0.7,24.3,0.3,36.5c-0.7,19-10.8,32.2-27.1,41.1c-17.6,9.6-36.7,11.8-56.4,10c-13-1-25.4-5.5-36-13
	c-14.5-10.2-21.8-24.5-22.4-42.1c-0.2-6.7,0.1-13.3-0.1-20c-0.1-3,1.1-3.5,3.7-3.5C1612.8,200.6,1619.8,200.5,1626.8,200.5z"/>
<path class="st1" d="M1031,103.8c3.8,7.4,9.3,11.5,17.4,11.7s13.5-4.4,17.2-11.6c5.8,12.4,13.2,16.3,24.6,13.7
	c4.9-1.1,8-4.3,10.4-8.5c0.9-1.5,1.6-3.4,3.7-0.6c10.6,14.6,25.5,13.5,34.2-2.3c0.3-0.6,0.6-1.1,1.1-2c2.4,2.4,3.4,5.5,5.8,7.4
	c7.7,6.3,19,5.1,25.3-2.6l0.9-1.2c2.4-3.5,3.6-3.6,6.6-0.5c7.8,7.9,15.6,8.5,24.8,2.2c2.2-1.5,2.6-0.1,3.5,1.3
	c14.1,23.3,19.3,48.6,16.4,75.6c-4.3,39.2-24,68.8-56.6,90.1c-15,9.8-31.7,15.2-49.6,17.1c-33.7,3.6-64-4.6-90.2-26.3
	c-25-20.8-40.8-46.9-44.1-79.9c-2.7-26.8,1.3-52.1,15.6-75.4c1.8-3,2.8-3.8,6-1.2c5.9,4.6,14,3.8,20.6-1.3
	C1026.9,107.7,1029,105.8,1031,103.8z"/>
<path class="st1" d="M1100,52.5c42.5-0.5,74,16.4,98.8,47c3.6,4.4,1.9,8.2-4,9.1c-6.2,0.9-10.9-1.5-14.7-6.3
	c-6.1-7.7-6.1-7.6-11.1,0.9c-5.8,10-17.6,10.1-23.5,0.2c-1.4-2.4-2.8-4.9-4.2-7.3c-0.7-1.1-1.6-2.3-3.2-1.9c-1.1,0.4-1.9,1.4-2,2.6
	c-0.5,2.7-1.3,5.4-2.4,8c-2.5,5.4-6.3,8.6-12.5,8.8c-6.5,0.1-10.6-3.2-13.2-8.6c-1-2.3-1.8-4.6-2.5-7c-0.4-1.4-0.9-2.4-2.6-2.4
	s-2.2,1.1-2.6,2.4c-0.9,2.7-1.9,5.3-3.1,7.8c-2.8,5.2-7,8.3-13.2,7.8s-10.2-3.5-12.4-9.1c-0.9-2.3-1.4-4.8-2.1-7.1
	c-0.4-1.3-0.7-2.7-2.2-3c-1.8-0.3-2.6,1-3.4,2.4c-1.2,2.4-2.4,4.7-3.8,7c-6.1,9.8-18.6,9.3-24.1-0.9c-4.3-8-4.1-7.9-9.9-1.2
	c-7,8.1-13.7,9.3-20.4,4.6c-1.9-1.3-2.3-2.7-0.6-4.8c17.4-22,38.8-38.4,66.4-45.4C1081.6,53.3,1092,51.8,1100,52.5z"/>
<path class="st1" d="M1429,65.4h38.6c2.5,0,2.4,2,2.9,3.3c9.5,23.4,18.9,46.8,28.3,70.2c1.1,2.8,2.3,5.5,3.4,8.2
	c0.6,1.3,0.8,2.9,2.8,3s2.4-1.4,3-2.8c8.5-21.1,17-42.2,25.6-63.3c2.5-6.1,3.4-14.3,8-17.6c4.2-3,12.2-0.9,18.5-0.9h22.6
	c-3.3,7.8-6.5,15.2-9.7,22.6c-13.8,32-27.6,64-41.3,95.9c-0.8,2-1.1,4.2-1,6.3c0,27.3-0.1,54.6,0.1,82c0,3.4-0.7,4.5-4.3,4.4
	c-13.5-0.2-27-0.2-40.5,0c-3.4,0-4.4-0.7-4.4-4.3c0.2-27.3,0.1-54.6,0.1-82c0-2.8-0.6-5.6-1.8-8.1c-16.9-37.9-33.7-75.8-50.4-113.6
	C1429,67.7,1428.2,66.9,1429,65.4z"/>
<path class="st1" d="M583,209c-1.9-3.8-1.7-6,2.2-8.3c10.5-6.1,18.7-14.6,23.5-25.8c11.3-26.6,10.3-53.2-3.1-78.6
	c-10-19-26.7-29.7-48.1-30.5c-25.8-1-51.6-0.3-77.5-0.4c-2.6,0-3.3,0.7-3.3,3.3c0.1,68.1,0.1,136.2,0,204.4c0,2.9,0.9,3.5,3.7,3.5
	c13.7-0.1,27.3-0.2,41,0c3.9,0.1,4.5-1.1,4.5-4.7c-0.2-18-0.1-36-0.1-54c0-2-0.5-4.1,1.9-5.2c4.4-2,10.9,0.4,13,5
	c8.4,18.3,16.7,36.7,25.1,55c0.9,1.9,1.2,3.9,4.3,3.9c15.1-0.2,30.2-0.1,45.9-0.1c-0.7-1.5-1.2-2.5-1.7-3.4
	C603.8,251.7,593.5,230.3,583,209z M561.9,169.8c-4.9,7.8-11.7,11.7-21.1,11.6c-14.8-0.2-14.8-0.1-14.8-14.9V113
	c0-15.5,0-15.5,15.8-15.5c2.1-0.1,4.3,0.1,6.4,0.5c8.6,2.4,13.6,8.5,16.7,16.5c3,7.7,4.4,15.9,3.9,24.1
	C569,150,567.7,160.5,561.9,169.8L561.9,169.8z"/>
<path class="st1" d="M955.4,197.4c-4.4-21.7-17.7-38.1-41.5-38.9c-1.5-0.1-3.2,0-3.3-2.1c-0.1-1.8,1.2-2.7,2.8-2.8
	c11.6-1,17-8.9,20-18.7c3.6-11.8,3.8-24.4,0.6-36.3c-5.4-20.5-21.1-32.8-42.2-33c-26.6-0.2-53.3-0.1-79.9-0.3
	c-4-0.1-4.9,1.1-4.9,4.9c0.2,33.5,0.1,66.9,0.1,100.4c0,33.8,0.1,67.6-0.2,101.4c0,3.8,1,4.6,4.7,4.6c30.9-0.2,61.9-0.3,92.9,0
	c21.9,0.2,36.3-10.2,45.1-29.5C956.9,231.6,959,214.1,955.4,197.4z M851.6,139.3c0.3-6.6,0.1-13.3,0.1-19.9V98
	c0-2.5,0.8-4.4,3.5-4.4c6.5,0,13-0.4,19.4,0.4c8.2,1.1,13.5,6.2,16.2,14.1c3.1,9.1,2.7,17.9-2.2,26.2c-4,6.6-9.8,10.5-18,10.2
	c-4.7-0.2-9.3-0.2-14,0C852.5,144.8,851.4,143.2,851.6,139.3z M899.7,227.3c-4.4,11.7-12,17.2-24.5,17.2c-6.3,0-12.7-0.2-19,0.1
	c-3.5,0.1-4.7-1.1-4.6-4.6c0.2-9.7,0.1-19.3,0.1-29c0-9.3,0.2-18.6-0.1-28c-0.1-4,1.1-5.8,5.4-5.6c5.8,0.4,11.7,0.4,17.5,0
	c15.1-1.1,23.7,8.8,26.8,21.5C903.7,208.3,903.2,218.2,899.7,227.3z"/>
<path class="st2" d="M1038.8,218.4c-20.4,0-37-16.5-37.1-36.9V181c0-20.9,16.3-37,37.3-36.9c20.4-0.1,37,16.2,37.1,36.6c0,0,0,0,0,0
	v0.1c0.2,20.6-16.4,37.4-37,37.6c0,0,0,0,0,0L1038.8,218.4z"/>
<path class="st2" d="M1129.7,181c-1.5-16.3,13.8-37.2,37.1-37.2c22.6,0,38.1,21.4,37.2,38.4c-1.1,20-17.4,35.8-37.5,36.2
	C1147.6,218.8,1128.3,201.5,1129.7,181z"/>
<path class="st3" d="M1107,190.7c4,0.1,10.3,3,13.8,10.1c2.6,5.2,1.6,10.3-2.1,14.8c-5.7,6.8-17.8,8.9-25.6,4.5
	c-7.3-4.2-10.5-10.2-8.9-16.6C1086.2,195.7,1093.8,190.6,1107,190.7z"/>
<path class="st3" d="M1104,250.5c-13.7,0.3-24.5-3.9-33.7-12.3c-1.6-1.4-2.9-3.2-3.7-5.2c-0.6-1.4-1.7-2.6,0.2-3.8s3.1-0.2,4.1,1.4
	c4.4,6.9,10.8,10.7,18.4,13.1c14.5,4.6,37.8,1.4,46.3-13.4c0.8-1.4,2-2.3,3.7-1.3c2.1,1.2,1.3,2.5,0.3,4.1
	c-5.5,9.4-14.7,13.4-24.6,16.2C1111.5,250.4,1107.8,250.8,1104,250.5z"/>
<path class="st1" d="M1412,157.5c-1.3-20.2-5-39.7-15.3-57.4c-13.1-22.7-33-34.2-59-34.5c-25.8-0.3-51.6-0.1-77.4-0.3
	c-3.9,0-4.9,1-4.9,4.9c0.2,33.5,0.1,67,0.1,100.4c0,33.8,0.1,67.6-0.1,101.4c0,3.8,0.9,4.6,4.6,4.6c26.8-0.2,53.6-0.1,80.4-0.1
	c1.2,0.1,2.3,0,3.5-0.1c29.1-3.8,48.1-20.4,58.7-47.1C1411.8,206.2,1413.6,182,1412,157.5z M1363,182.7c-0.5,10-1.9,19.8-5.5,29.1
	c-4.9,12.7-12.5,23.5-26.8,26.1c-7.7,1.4-15.9,0.6-23.9,0.5c-3.3,0-2.1-2.8-2.1-4.5c-0.1-21,0-41.9,0-62.9c0-20.6,0.2-41.3-0.1-61.9
	c-0.1-5.1,1.8-6.3,6.3-6.1c7.9,0.3,15.9-0.4,23.8,1.3c9.5,2,15.9,8.1,19.8,16.6C1363.7,140.5,1364.1,161.5,1363,182.7z"/>
<path class="st1" d="M1039.1,149c18.1-1,32.5,15.9,32.1,32c-0.4,18.4-14.5,32.3-33.1,32.5c-14.4,0.1-32.1-13.1-31.6-33.4
	C1006.9,166,1019.1,148,1039.1,149z"/>
<path class="st1" d="M1134.5,180.8c-0.8-15.3,12.9-31.9,32.1-32s32.3,17.7,32.4,32.1c0.2,18.6-17.4,33.1-32.5,32.8
	C1148.5,213.2,1134.5,199.3,1134.5,180.8z"/>
<path class="st1" d="M1103,217.5c-3.9,0.1-7.6-1.3-10.5-3.8c-5.5-4.3-4.5-12.3,1.8-16.2c4.9-3,13.3-2.7,18,0.6
	c6.6,4.7,6.6,11.5,0.1,16.3C1109.7,216.4,1106.4,217.5,1103,217.5z"/>
<path d="M1054.7,181c0,9.9-8.1,18.5-17.7,18.2c-11.4-0.4-18.5-7.8-18.7-18.4s7.9-18.3,18.5-18.2
	C1047.1,162.8,1054.7,170.5,1054.7,181z"/>
<path d="M1168.8,162.6c10.1-0.1,18.4,7.8,18.7,17.9c0.1,9.9-8.6,18.8-18.4,18.8s-18.4-8.6-18.4-18.8
	C1150.6,170.9,1159,162.7,1168.8,162.6z"/>
</svg>
