<svg id="Layer_1" data-name="Layer 1" xmlns="http://www.w3.org/2000/svg" viewBox="0 0 1920 1080"><defs><style>.cls-1{fill:#fefefe;}.cls-2{fill:gray;}.cls-3{fill:#404040;}.cls-4{fill:#7f7f7f;}.cls-5{fill:#3f3f3f;}.cls-6{fill:#414141;}.cls-7{fill:#3e3e3e;}.cls-8{fill:#424242;}.cls-9{fill:#444;}.cls-10{fill:#818181;}.cls-11{fill:#7b7b7b;}.cls-12{fill:#797979;}.cls-13{fill:#868686;}.cls-14{fill:#7a7a7a;}.cls-15{fill:#7c7c7c;}.cls-16{fill:#010101;}.cls-17{fill:#020202;}.cls-18{fill:#7e7e7e;}.cls-19{fill:#464646;}.cls-20{fill:#3a3a3a;}</style></defs><path d="M-276.91,923.91q0-537.66-.09-1075.32c0-3.75.84-4.59,4.59-4.59q955.41.15,1910.82,0c3.74,0,4.59.84,4.59,4.59q-.15,535.41,0,1070.82c0,3.74-.84,4.59-4.59,4.59Q680.75,923.85-276.91,923.91Z" transform="translate(277 156)"/><path class="cls-1" d="M833.81,195.93c10.69,16.09,22.05,16.23,35.62,1,3.07,8,8.4,13.45,17.22,14.06s15-3.94,19.31-12.41c4.41,8,10.27,12.81,19.19,12.47,9.23-.35,13.86-6.64,17.79-14.2,2.47,2.15,3.35,5.29,5.77,7.21,8.53,6.75,20.51,5,26.84-4.41,1.93-2.86,2.74-3,5.21-.58,9.18,9,16.57,9.47,27.55,1.93a109.39,109.39,0,0,1,17.51,46.54c4.27,31.78-1.78,61.45-20.62,87.73-21,29.31-49.34,46.85-85.57,50.9-29.6,3.31-57-2.9-81.4-20-28.32-19.84-47-46.48-51.94-81.2-4-28.44-.36-55.8,15.32-80.72,1.56-2.49,2.21-3.7,5.28-1.26,6.89,5.49,15.54,4.2,23.32-2.83A47.49,47.49,0,0,0,833.81,195.93Z" transform="translate(277 156)"/><path class="cls-1" d="M1058.8,263.16c0-33.47.06-67-.08-100.42,0-3.73.68-5,4.77-5,25.81.26,51.63,0,77.44.33,26,.36,45.9,11.84,59,34.48,10.28,17.73,14,37.2,15.32,57.38,1.57,24.57-.16,48.7-9.33,71.8-10.6,26.7-29.49,43.36-58.61,47.15a31.19,31.19,0,0,1-4,.09c-26.49,0-53-.09-79.45.1-4,0-5.26-.68-5.23-5C1058.89,330.45,1058.8,296.81,1058.8,263.16Z" transform="translate(277 156)"/><path class="cls-1" d="M610.51,263.35c0-33.63.07-67.27-.09-100.91,0-3.72.86-4.69,4.63-4.66,26.81.23,53.62.12,80.43.28,20.66.13,36.52,12.56,41.82,32.77,3.39,13,3.33,26-1.27,38.65-3.21,8.85-8.56,15.66-18.92,16.57-1.61.15-3,.81-3.07,2.64-.12,2.09,1.39,2.3,3,2.34,24.57.63,37.7,18.4,41.74,39.15a83,83,0,0,1-4.74,47.44c-7.42,18.45-23.11,32-45.82,31.53-31-.59-62-.22-92.92-.06-3.83,0-4.93-.85-4.91-4.82C610.59,330.63,610.51,297,610.51,263.35Z" transform="translate(277 156)"/><path class="cls-1" d="M418.6,369c-15.11,0-30.25-.09-45.37.08-3.09,0-3.4-2.09-4.24-3.94q-12.64-27.74-25.26-55.49c-1.87-4.09-8.77-6.41-12.87-4.41-2.32,1.14-1.82,3.32-1.82,5.27,0,18-.13,36,.09,54,.05,3.73-.85,4.68-4.6,4.61-13.49-.25-27-.21-40.49,0-3.27.05-4.08-.83-4.08-4.09q.15-101.46,0-202.93c0-3.61,1.06-4.29,4.44-4.26,25.15.2,50.34-.52,75.46.44s42.78,14.36,52.34,37.27c9.83,23.58,10.28,47.72,0,71.48-4.9,11.29-13.17,19.92-23.69,26.18-4,2.35-4,4.62-2.15,8.35,10.53,21.31,20.87,42.71,31.25,64.1C418.06,366.61,419,367.5,418.6,369Z" transform="translate(277 156)"/><path class="cls-1" d="M272.73,559.53c-10.88-14.23-21.43-28-32-41.86a24.07,24.07,0,0,1-2.48-3.1A2.53,2.53,0,0,0,235,513.1c-1.52.45-1.75,1.84-1.76,3.22,0,4.33,0,8.66,0,13,0,26.17-.07,52.33.08,78.49,0,3.54-.58,4.87-4.53,4.76-11-.31-22-.24-33,0-3.17.06-3.78-.92-3.78-3.91q.14-89,0-178c0-3.24,1-3.79,3.93-3.74q15.24.27,30.49,0c2.54-.05,3.68.91,4.92,2.95q18.76,30.93,37.75,61.74c2.94,4.78,4.64,4.83,7.54.1q18.78-30.6,37.45-61.29c1.52-2.5,3.18-3.6,6.29-3.52,9.66.25,19.33.18,29,0,2.93-.05,4.29.31,4.29,3.89q-.19,88.74,0,177.47c0,3.21-.82,4.29-4.15,4.23-10.66-.2-21.33-.25-32,0-3.72.09-4.7-.84-4.68-4.63.18-29,.1-58,.1-87,0-1,0-2,0-3,0-1.8.33-4-1.65-4.8-2.16-.86-3.27,1.29-4.32,2.63-9.94,12.67-19.79,25.41-29.67,38.12C275.83,555.69,274.38,557.46,272.73,559.53Z" transform="translate(277 156)"/><path class="cls-1" d="M1430.44,293c7.16,0,14.33.1,21.49-.06,2.42,0,3.09.69,3,3.07-.15,7.5-.22,15,0,22.49.17,6.23,1.64,12,6.27,16.75,5.59,5.68,12.19,7,19.62,5,7.82-2.1,12.43-7.59,13.89-15.24,2.09-11,1.68-22.33.6-33.35-1-10.43-9.94-14.28-18.88-16.56-14.23-3.63-28.93-5.16-43.12-9.05a66.09,66.09,0,0,1-12.81-5c-11-5.65-17.12-14.65-18.78-26.89s-1.2-24.31-.62-36.39c.72-14.88,9.52-25.61,22.3-31.83,30.37-14.76,61.74-15.43,92.52-1.73,17,7.55,26.89,21.2,25.44,41-.3,4.11,1.79,9.46-.85,12s-7.93.69-12,.73c-10.66.11-21.33-.05-32,.1-2.69,0-3.88-.49-3.66-3.48.27-3.64.11-7.32.05-11-.17-10-7.82-17.2-18.5-17.42-11.88-.25-19.81,6.06-20.26,16.5-.3,7-.21,14,0,21s6.54,12.73,15.43,15.41c14.27,4.3,29.19,5.62,43.42,9.94,9.1,2.75,17.75,6.44,24.49,13.54,5.67,6,9.21,13,9.49,21.21.42,12.15.74,24.32.33,36.46-.65,19-10.75,32.21-27,41.12-17.61,9.66-36.63,11.88-56.33,10.11a72.92,72.92,0,0,1-36-12.9c-14.54-10.22-21.89-24.39-22.51-42-.24-6.83.06-13.67-.1-20.49-.05-2.4.62-3.14,3.07-3.09C1415.77,293.12,1423.11,293,1430.44,293Z" transform="translate(277 156)"/><path class="cls-1" d="M576,519.48c0,29.32-.09,58.64.1,88,0,4.24-1.2,5.2-5.26,5.11-12.32-.27-24.65-.2-37,0-3.27.05-4.79-.9-6.11-4.1C514,575.18,500,542,486.1,508.88c-.69-1.65-1.27-4-3.49-3.49s-2.1,3.06-2.1,5.06c0,32.15-.11,64.3.12,96.45,0,4.72-1.36,5.78-5.8,5.66-11-.32-22-.21-33,0-3,.05-3.9-.62-3.89-3.79q.15-89,0-177.91c0-3,.53-4,3.75-3.92,13,.22,26,.19,39,0,2.75,0,4.16.77,5.2,3.29Q506.1,479.14,526.45,528a11.13,11.13,0,0,0,.8,1.83c1.08,1.62.91,4.71,4.07,4s1.62-3.3,1.62-5c.1-32.48.15-65,0-97.45,0-3.78.92-4.67,4.62-4.58,11.49.26,23,.23,34.48,0,3.31-.06,4.08.89,4.07,4.11C576,460.5,576,490,576,519.48Z" transform="translate(277 156)"/><path class="cls-1" d="M1413.93,520c0,29.15-.1,58.3.1,87.45,0,4.26-1.22,5.2-5.27,5.11-12.32-.27-24.65-.2-37,0-3.27.05-4.78-.91-6.1-4.11C1351.93,575.17,1338,542,1324,508.87c-.69-1.65-1.28-4-3.5-3.48s-2.09,3.06-2.09,5.07c0,32.15-.11,64.3.12,96.45,0,4.74-1.39,5.77-5.81,5.65-11-.31-22-.22-33,0-3,.05-3.89-.66-3.88-3.8q.15-89,0-177.92c0-3,.55-4,3.76-3.9,13,.21,26,.18,39,0,2.75,0,4.16.78,5.19,3.29Q1344,479.16,1364.37,528a11.13,11.13,0,0,0,.8,1.83c1.08,1.62.92,4.71,4.08,4s1.61-3.3,1.61-5c.1-32.48.15-65,0-97.45,0-3.79,1-4.66,4.64-4.57,11.49.26,23,.23,34.48,0,3.32-.07,4.07.91,4,4.12C1413.88,460.68,1413.93,490.33,1413.93,520Z" transform="translate(277 156)"/><path class="cls-1" d="M-38.91,157.88c14.67,0,29,.05,43.28-.06,2.7,0,3.29,1.34,3.72,3.53Q21.5,229.46,35,297.56c.48,2.44.68,4.93,1.19,7.35.36,1.73.57,3.94,3,3.85,2.13-.07,2.41-2.08,2.73-3.65,2.39-12,4.71-24,7.05-36q9.24-47.48,18.47-94.95c.85-4.37,2-8.71,2.48-13.11.29-2.77,1.49-3.23,3.83-3.22q20.24.09,40.48,0c2.58,0,2.88.63,2.35,3.18q-12.76,61.11-25.27,122.26-8.22,40.07-16.22,80.16c-.81,4.11-2,5.81-6.79,5.72-19.82-.38-39.65-.28-59.47-.05-3.73,0-5.11-1.14-5.8-4.61Q-8.36,307.38-20,250.31C-26.22,219.61-32.55,188.93-38.91,157.88Z" transform="translate(277 156)"/><path class="cls-1" d="M1075.31,583.77c-10.08,14.87-22.64,25.29-39.64,29.49-26.82,6.62-51,2-71-18.13-12.6-12.68-19.88-28.34-23.12-45.8-4.86-26.18-4.7-52.25,5.46-77.24,9.81-24.15,26.37-41.54,53.09-46.61,27.7-5.25,55.59,2.73,73,27.24.63.89,1.19,1.84,2,3.13-19.36-.57-26,12.8-30.88,27.42-4.78,14.33-5.07,29.24-4.46,44.26.5,12.37,2,24.4,7.1,35.78.87,2,1.82,3.87,2.88,5.73C1055.21,578.68,1062.82,584.82,1075.31,583.77Z" transform="translate(277 156)"/><path class="cls-1" d="M1241.82,456.07c-13.84-1.25-21.34,6.48-26.84,17.2-6.34,12.36-8.27,25.77-8.86,39.4-.7,16,.36,31.81,5.84,47.08a52.32,52.32,0,0,0,6.93,13.1c5.52,7.6,12.75,12.1,23.28,10.77-11.4,16.82-26.09,27.8-45.6,31.14-21.29,3.65-41.37.28-58.6-13.64-14.8-12-24-27.72-28.31-46.14-6.7-28.89-6.68-57.63,5.21-85.3,10-23.15,26.52-39.52,52.05-44.31C1194.05,420.28,1224.54,427.83,1241.82,456.07Z" transform="translate(277 156)"/><path class="cls-1" d="M21.56,517.44c.06-20.29,3.79-42.22,16.82-61.7,16.21-24.23,39.28-33.91,67.81-31.21,32.66,3.09,52,23,61.93,52.38,11.46,33.91,10.23,67.82-6.09,100.19-14.15,28.09-43,42.51-73.84,38.18C56.76,610.87,38.44,591.44,28.06,563,23,549.15,21.62,534.67,21.56,517.44Z" transform="translate(277 156)"/><path class="cls-1" d="M136.05,263.53c0-33.66.08-67.31-.1-101,0-4.06,1.2-4.79,4.94-4.78q55.74.21,111.47,0c4.07,0,4.91,1.2,4.77,4.95-.29,7.32-.28,14.67,0,22,.12,3.41-.66,4.45-4.28,4.42-20.66-.2-41.32,0-62-.19-4.71-.05-6,1.55-5.91,6.06.22,16,.18,32,0,48,0,3.69,1.12,5,4.85,4.94,12.82-.16,25.66.06,38.48-.14,3.16-.05,3.9.85,3.81,3.88-.23,7.83-.29,15.67,0,23.49.14,3.54-1.23,4-4.24,3.93-12.16-.15-24.33.1-36.49-.14-4.65-.1-6.54,1.18-6.46,6.18.27,16,.24,32,0,48-.06,4.06,1.21,5,5.12,5,20.82-.19,41.65,0,62.48-.19,3.76,0,4.74.89,4.59,4.62-.32,7.65-.23,15.33,0,23,.07,2.87-.8,3.56-3.59,3.55q-57-.13-114,0c-3.53,0-3.54-1.49-3.54-4.11Q136.1,314.26,136.05,263.53Z" transform="translate(277 156)"/><path class="cls-1" d="M-179.08,263.51c0-33.64.08-67.29-.11-100.94,0-4.07,1.23-4.79,5-4.78q55.73.21,111.44,0c3.72,0,5.17.66,5,4.77-.38,7.47-.29,15,0,22.48.12,3.29-.85,4.09-4.09,4.07-20.83-.15-41.65,0-62.47-.17-4.48-.05-5.66,1.41-5.6,5.73q.33,24,0,48c-.07,4.32,1.4,5.37,5.44,5.3,12.49-.22,25,0,37.48-.14,3,0,4.41.37,4.27,3.94-.31,7.82-.24,15.66,0,23.49.09,3-.63,3.93-3.8,3.87-12.49-.2-25,0-37.48-.15-4.11-.06-6,.92-5.89,5.56.26,16.32.23,32.65,0,49,0,3.92,1.25,4.64,4.84,4.61,21-.17,42,0,63-.17,3.46,0,4.51.74,4.37,4.32-.3,7.81-.19,15.65,0,23.48,0,2.57-.62,3.35-3.29,3.34q-57.21-.13-114.44,0c-3.57,0-3.52-1.56-3.52-4.14Q-179,314.23-179.08,263.51Z" transform="translate(277 156)"/><path class="cls-1" d="M822.89,546c6,0,12,.15,18-.06,2.86-.1,3.69.8,3.66,3.64A207,207,0,0,0,845,571c1.09,11.68,7.75,17.76,18.18,17.48,9.8-.26,17.25-7.72,17.74-18.42.37-8.14.32-16.32,0-24.47-.26-7.19-7.07-13.11-17.08-15.62-13.3-3.34-27-4.84-40.16-8.86-17.67-5.39-25.8-15.75-25.83-34,0-6.33.29-12.68-.06-19-1-18.1,8.32-30.11,24-36.19,26.25-10.21,53-10.81,78.86,2,13.12,6.52,20.47,17.5,20.34,32.62,0,4.11,1.86,9.54-.83,11.93-2.26,2-7.58.66-11.55.68-8.82.05-17.65-.09-26.48.08-2.78.05-3.89-.69-3.63-3.59a64.53,64.53,0,0,0,0-8c-.34-9.65-6.56-15.38-16.19-15.72-7.19-.26-13.11,1.33-16.71,8.12a13,13,0,0,0-1.62,6.65,114.66,114.66,0,0,1-.05,14.48c-1.17,11.53,5.43,15.16,14.27,17.64,11.73,3.28,23.81,5.33,35.65,8.24,6.89,1.69,13.61,4.13,19.28,8.58,8.76,6.86,13.09,15.9,12.91,27.13-.16,9.66.51,19.36-.16,29-1.05,15-9,26.37-22.05,33.26-24.37,12.83-49.78,14.55-75,2.9-18.35-8.48-27.5-23.68-27.31-44.15,0-4.83.14-9.67,0-14.49-.11-2.69.9-3.39,3.46-3.32C810.9,546.08,816.9,546,822.89,546Z" transform="translate(277 156)"/><path class="cls-1" d="M-14.2,493.47c-6,0-12-.3-18,.11-3.94.27-5.07-1.41-5.81-4.81a60.55,60.55,0,0,0-9.9-22.47c-9.58-13.56-27.5-14-37.54-.69-7.4,9.81-10.48,21.31-12.11,33.12-2.57,18.57-2.16,37.14,2.73,55.36,2.5,9.31,6.36,18,14,24.48,9.61,8.06,23.31,6.65,31.37-3.06A53.55,53.55,0,0,0-38.06,551.1c.82-4.23,2.58-5.35,6.76-5.24,12,.31,24,.18,36,.06,2.82,0,3.76.51,3.17,3.59C4.81,565.39-1,580-11.87,592.18-22.46,604-35.64,611.74-51.36,614.52c-22.63,4-43.45.29-61.24-15.34-15.1-13.27-24-30.17-27.83-49.62-5.12-26.14-4.8-52.14,5.5-77.18,9.32-22.65,24.45-40.2,49.05-46,42.29-9.95,80,10.41,91.94,55.55.51,1.91.81,3.88,1.17,5.83,1.07,5.69,1.06,5.69-4.94,5.69Z" transform="translate(277 156)"/><path class="cls-1" d="M699.68,498.49h30c1.84,0,3.6-.35,3.54,2.61-.53,28.66-3.16,56.85-16.37,83.05-21,41.57-78.25,41.68-102.6,8.28-12.2-16.74-18.5-35.22-20.4-55.6s-1.15-40.79,5.23-60.47c5.39-16.63,14-31.33,28.45-42,11.33-8.34,24.26-10.86,37.93-10.88,9,0,18,.11,27-.06,2.78-.06,3.7.62,3.64,3.53q-.29,13.48,0,27c.06,2.72-.85,3.3-3.39,3.26-8.82-.15-17.66.13-26.48-.11-11.2-.3-19,4.82-24.16,14.42-7.11,13.14-9.39,27.46-10,42.11-.53,13.65.27,27.26,5,40.25,3.49,9.52,8.22,18.33,18.58,22,9.64,3.43,19.07.22,24.9-8.4,8.1-12,9.57-25.86,10.75-39.74.23-2.79-2.23-3.27-4.55-3.27-5.66,0-11.34-.22-17,.08-3.64.19-4.51-1.13-4.36-4.53.26-5.82.26-11.67,0-17.48-.15-3.4,1.11-4.17,4.27-4.12C679.69,498.6,689.68,498.49,699.68,498.49Z" transform="translate(277 156)"/><path class="cls-1" d="M591,157.87,547.66,258.31c-2.36,5.45-4.72,10.9-7.14,16.33a18.14,18.14,0,0,0-1.55,7.64c.07,27.49,0,55,.13,82.46,0,3.49-.8,4.41-4.33,4.36q-20.49-.35-41,0c-3.42.06-4-1.07-4-4.18.11-26.82,0-53.64.12-80.46a26.07,26.07,0,0,0-2.47-11C471,236.52,454.78,199.52,438.3,162.62c-1.79-4-1.4-4.94,3.07-4.83,10.65.27,21.33.26,32,0,3.46-.09,4.72,1.13,5.94,4.19,10.16,25.59,20.52,51.09,30.89,76.59.62,1.54.63,3.82,3.13,4,2.87.15,2.9-2.37,3.58-4q15.29-38.22,30.44-76.5c1.16-2.94,2.6-4.28,6.12-4.2C565.77,158.05,578.1,157.87,591,157.87Z" transform="translate(277 156)"/><path class="cls-1" d="M1386,157.88c-6.85,15.94-13.52,31.51-20.22,47.08q-15.43,35.89-30.94,71.76a13.88,13.88,0,0,0-.87,5.83c0,27.32-.09,54.64.1,82,0,3.78-.92,4.66-4.63,4.59-13.49-.25-27-.21-40.48,0-3.3,0-4.08-.89-4.06-4.11.13-27.49.05-55,.11-82.47a18,18,0,0,0-1.77-7.62q-25.11-56.31-50.13-112.66c-1.41-3.16-1.76-4.55,2.62-4.44,11.16.26,22.32.18,33.48,0,2.58,0,3.72.79,4.66,3.14q15.5,38.82,31.23,77.53c.68,1.68.72,4.21,3.58,4,2.5-.14,2.51-2.42,3.13-4q15.71-38.72,31.29-77.5c.66-1.64,1-3.26,3.56-3.23C1359.6,158,1372.57,157.88,1386,157.88Z" transform="translate(277 156)"/><path class="cls-1" d="M374.54,519c0-29.14.07-58.28-.09-87.42,0-3.66.75-4.75,4.57-4.65,11.48.29,23,.19,34.47,0,2.77,0,3.6.66,3.6,3.53q-.13,89.16,0,178.33c0,3.26-1.06,3.77-3.95,3.73-11.33-.16-22.65-.22-34,0-3.69.08-4.77-.87-4.74-4.67C374.61,578.24,374.54,548.6,374.54,519Z" transform="translate(277 156)"/><path class="cls-1" d="M902.92,144.94c43.85-.3,75.58,17.06,100.4,48.46,2,2.55,1.53,3.78-.61,5.55-4.78,3.91-12.7,2.91-17.87-2.56a58.87,58.87,0,0,1-4.25-5.51c-2.87-3.88-3.79-3.82-6.07.63-1.67,3.25-3.19,6.55-6.21,8.89a13,13,0,0,1-19-3.49c-1.7-2.62-3.07-5.46-4.64-8.17-.67-1.16-1.52-2.35-3.08-2.11s-2,1.66-2.23,3a30,30,0,0,1-2.47,8c-2.42,5.2-6.17,8.32-12.2,8.49-6.21.18-10.39-2.68-13-8a51.54,51.54,0,0,1-2.73-6.92c-.46-1.44-.48-2.9-2.53-3.11-2.45-.25-2.53,1.74-3.13,3.12-1,2.27-1.47,4.78-2.64,6.93-2.9,5.34-7.22,8.55-13.64,8-6-.54-10.11-3.74-12.21-9.39a52.15,52.15,0,0,1-1.8-5.69c-.44-1.75-.36-3.94-2.73-4.16s-2.76,2-3.63,3.54c-1.12,2-2.19,4.07-3.42,6-6.05,9.5-18.3,9-23.72-1-4.38-8-4.38-8-10.23-1.07s-13.79,9-19.62,4.78c-2.13-1.53-3.16-2.76-1-5.46C826,172,846.87,155.69,874.18,148.68,884.66,146,895.29,144.44,902.92,144.94Z" transform="translate(277 156)"/><ellipse class="cls-2" cx="76.65" cy="420.08" rx="0.35" ry="153.11"/><path class="cls-2" d="M1037.17,372.41V155.88h.46V372.29Z" transform="translate(277 156)"/><ellipse class="cls-3" cx="866.35" cy="429.9" rx="0.33" ry="139.18"/><path class="cls-3" d="M1418.71,424.93V615h-.49V425.17Z" transform="translate(277 156)"/><ellipse class="cls-4" cx="665.64" cy="773.49" rx="133.99" ry="0.28"/><path class="cls-2" d="M468.28,372.32V279.66h.5v92.72Z" transform="translate(277 156)"/><path class="cls-3" d="M543.24,372.23V280.08h.5v92Z" transform="translate(277 156)"/><path class="cls-2" d="M735.24,493.72H647.61v-.5h87.72Z" transform="translate(277 156)"/><ellipse class="cls-3" cx="1785.81" cy="378.5" rx="49.6" ry="0.31"/><ellipse class="cls-2" cx="568.5" cy="736.05" rx="0.27" ry="49.9"/><path class="cls-3" d="M-124.9,194.05c.74-1.27,2-1,3.12-1q32.72,0,65.41,0a2,2,0,0,1,1.71.95h-70.29Z" transform="translate(277 156)"/><path class="cls-3" d="M-124.95,333H-55.2c-1.4,1.34-2.59.95-3.67.95q-30.94,0-61.91,0c-1.41,0-3,.58-4.12-1Z" transform="translate(277 156)"/><path class="cls-3" d="M191.08,193.22h66.79v.48H191.13Z" transform="translate(277 156)"/><ellipse class="cls-3" cx="501.49" cy="489.57" rx="47.18" ry="0.34"/><path class="cls-2" d="M1350,617.15h66.22v.5h-66.66Z" transform="translate(277 156)"/><path class="cls-4" d="M511.91,617.12h66.23v.5H511.67Z" transform="translate(277 156)"/><path class="cls-2" d="M1256.74,617.24h64.55v.49h-64.71Z" transform="translate(277 156)"/><path class="cls-3" d="M846,541.75H783v-.49h62.86C845.89,541.42,846,541.59,846,541.75Z" transform="translate(277 156)"/><path class="cls-2" d="M172.79,617.15h63.56v.5H172.74Z" transform="translate(277 156)"/><path class="cls-4" d="M1.11,498.86H-55v-.53H1.21Z" transform="translate(277 156)"/><ellipse class="cls-5" cx="250" cy="697.48" rx="39.57" ry="0.33"/><path class="cls-4" d="M485.22,615.11v-55h.89v55.12Z" transform="translate(277 156)"/><path class="cls-4" d="M1323.14,615.09v-55h.89v55.14Z" transform="translate(277 156)"/><ellipse class="cls-2" cx="949.96" cy="574.46" rx="35.83" ry="0.28"/><path class="cls-3" d="M-124.95,194v48.07c-1.6-1.11-.93-2.44-.93-3.51q-.09-20,0-39.91c0-1.55-.7-3.37,1-4.6Z" transform="translate(277 156)"/><path class="cls-3" d="M-124.9,333c-.32-.54-.93-1.08-.93-1.62,0-15.46,0-30.92.88-46.38v48Z" transform="translate(277 156)"/><path class="cls-3" d="M580.42,614.83V573.48h.71V615Z" transform="translate(277 156)"/><path class="cls-3" d="M580.23,466V424.93h.5v40.91Z" transform="translate(277 156)"/><path class="cls-6" d="M-78.7,282.15V245h.44v37.1Z" transform="translate(277 156)"/><ellipse class="cls-3" cx="1174.63" cy="547.53" rx="24.77" ry="0.27"/><path class="cls-3" d="M1448.85,376.28h33.93v.38h-33.93Z" transform="translate(277 156)"/><path class="cls-2" d="M1552.14,320.28V285.61h.5v34.53Z" transform="translate(277 156)"/><ellipse class="cls-3" cx="1740.34" cy="306.51" rx="23.47" ry="0.34"/><ellipse class="cls-3" cx="1450.99" cy="776.43" rx="22.79" ry="0.35"/><path class="cls-3" d="M1023,620.72H990.86v-.5H1023Z" transform="translate(277 156)"/><ellipse class="cls-3" cx="202.28" cy="776.49" rx="22.82" ry="0.3"/><path class="cls-3" d="M74.1,620.2h31.07v.5h-31Z" transform="translate(277 156)"/><path class="cls-3" d="M644.22,527V496.93h.5v29.88Z" transform="translate(277 156)"/><path class="cls-2" d="M776.72,460.85v29.49h-.5V460.68Z" transform="translate(277 156)"/><path class="cls-3" d="M1384.15,319.05V290.87h.5v28Z" transform="translate(277 156)"/><path class="cls-4" d="M1474.67,292.79v26.65h-.5V292.8Z" transform="translate(277 156)"/><path class="cls-2" d="M849.73,544v26.17h-.48v-26.6Z" transform="translate(277 156)"/><path class="cls-6" d="M780.24,568.91V543.65h.49v25.23Z" transform="translate(277 156)"/><ellipse class="cls-2" cx="1823.39" cy="365.14" rx="0.27" ry="15.91"/><ellipse class="cls-2" cx="935.02" cy="685.5" rx="16.02" ry="0.34"/><path class="cls-7" d="M848.16,484.76V466.13h.51v18.64Z" transform="translate(277 156)"/><ellipse class="cls-3" cx="1134.52" cy="630.02" rx="0.33" ry="11.38"/><path class="cls-6" d="M1008,420H991.82v-1H1008c.33.23.44.45.33.67S1008.08,420,1008,420Z" transform="translate(277 156)"/><path class="cls-8" d="M-74.92,419.08h15.35v.83H-74.92c-.33-.19-.44-.37-.33-.55S-75,419.08-74.92,419.08Z" transform="translate(277 156)"/><path class="cls-3" d="M-74.92,419.08c0,.28,0,.55,0,.83H-90.08v-.83Z" transform="translate(277 156)"/><path class="cls-6" d="M1220.85,255q-.06,8.1-.13,16.22h-.54L1220,255Q1220.45,254.37,1220.85,255Z" transform="translate(277 156)"/><ellipse class="cls-6" cx="1292.09" cy="575.49" rx="10.08" ry="0.71"/><path class="cls-3" d="M75.06,419.23H88.14v.5h-13Z" transform="translate(277 156)"/><path class="cls-3" d="M91.37,419.18H104v.5H90.94Z" transform="translate(277 156)"/><path class="cls-3" d="M1174.85,419.23h13v.47h-13.05Z" transform="translate(277 156)"/><path class="cls-3" d="M1158.89,419.29h12.92l0,.36H1158.9Z" transform="translate(277 156)"/><path class="cls-8" d="M.89,512.86,1,527c-.27.4-.55.38-.83,0l.09-14.18Z" transform="translate(277 156)"/><path class="cls-3" d="M-164.69,526.12q0-6.63-.05-13.27h.65q0,6.63,0,13.28Z" transform="translate(277 156)"/><path class="cls-9" d="M925.33,469.53v-8.29C926.59,464.37,925.24,467.07,925.33,469.53Z" transform="translate(277 156)"/><path class="cls-10" d="M744.27,212.23v-8.58h.49v8.73Z" transform="translate(277 156)"/><path class="cls-11" d="M1220.18,271.17h.54a11.24,11.24,0,0,1-.23,5.68A10.1,10.1,0,0,1,1220.18,271.17Z" transform="translate(277 156)"/><path class="cls-3" d="M711.9,373.22h4.65C714.85,374.47,713.43,373.75,711.9,373.22Z" transform="translate(277 156)"/><path class="cls-12" d="M-164.69,526.12h.55c.06,1.4.12,2.81.24,5.55A7.6,7.6,0,0,1-164.69,526.12Z" transform="translate(277 156)"/><path class="cls-13" d="M.15,527A1.19,1.19,0,0,1,1,527v4.37l-.83,0Z" transform="translate(277 156)"/><path class="cls-14" d="M637.52,533.9a3.87,3.87,0,0,1-.2-3.32C638.61,531.63,637.76,532.75,637.52,533.9Z" transform="translate(277 156)"/><path class="cls-2" d="M-164.09,512.85h-.65v-5.26A8.23,8.23,0,0,1-164.09,512.85Z" transform="translate(277 156)"/><path class="cls-3" d="M1031.45,255.48a3.48,3.48,0,0,1,0,3.69A3.42,3.42,0,0,1,1031.45,255.48Z" transform="translate(277 156)"/><path class="cls-2" d="M1220.85,255l-.4.05L1220,255v-4.26l.81,0Z" transform="translate(277 156)"/><path class="cls-14" d="M637.47,507.72a4.05,4.05,0,0,1,0-3.66C637.89,505.22,638.34,506.31,637.47,507.72Z" transform="translate(277 156)"/><path class="cls-15" d="M.89,512.86H.24v-5.19A7.77,7.77,0,0,1,.89,512.86Z" transform="translate(277 156)"/><path class="cls-16" d="M842,310.85a37,37,0,0,1-37-37.45c0-20.81,16.33-36.91,37.4-36.88a36.91,36.91,0,0,1,37.1,36.81A37.28,37.28,0,0,1,842,310.85Z" transform="translate(277 156)"/><path class="cls-16" d="M1007,273.51c1.54,19.59-17.87,37.6-37,37.54-18.67-.05-38.1-16.79-37.2-38.34.85-20.38,16.25-36.17,37.07-36.19C990.84,236.49,1007,252.57,1007,273.51Z" transform="translate(277 156)"/><path class="cls-17" d="M906,314.85c-5.66.24-10.36-2.09-14.34-5.79-6.62-6.15-5.86-15.39,1.57-21.73,8-6.78,22.75-5.22,29.15,3.05,3.33,4.3,4.2,9.12,1.95,14-3.14,6.79-9.2,9.63-16.34,10.49A16.51,16.51,0,0,1,906,314.85Z" transform="translate(277 156)"/><path class="cls-17" d="M907.07,343c-11.57.54-21.18-2.95-29.92-9.16a21.68,21.68,0,0,1-7.18-8.11c-.74-1.51-1.93-3,.32-4.15,2-1,3,.27,4,1.7a39.35,39.35,0,0,0,4.09,5c13.51,13.16,42.36,13.24,56,.15a38.59,38.59,0,0,0,4.12-5c1.15-1.54,2.19-3.12,4.39-1.73,2.48,1.59.65,3.36-.19,4.64-5.83,8.81-14.67,13-24.5,15.56C914.34,342.88,910.38,343.47,907.07,343Z" transform="translate(277 156)"/><path d="M1108,263.25c0-20.64.11-41.28-.09-61.91,0-4.31,1.18-6,5.57-5.88,8,.22,16-.44,23.84,1.08,9.81,1.9,16.33,8.19,20.67,17,6.69,13.56,8.13,28.23,8.71,42.94.64,16.11-.18,32.24-5.85,47.58-4.65,12.58-12.07,23-26.09,26.23-8.15,1.89-16.57.49-24.86.63-2.93.05-1.85-2.69-1.86-4.27Q1107.91,295,1108,263.25Z" transform="translate(277 156)"/><path d="M655,304V276.54c0-6.52,0-6.52,6.76-6.52,5.33,0,10.68.33,16-.06,15.11-1.12,23.75,8.76,26.85,21.46A47.51,47.51,0,0,1,703,319.77c-4.4,11.81-12,17.24-24.43,17.24-6.33,0-12.66-.14-19,.05-3.44.11-4.74-1-4.67-4.57C655.12,323,655,313.51,655,304Z" transform="translate(277 156)"/><path d="M655,211.84c0-6.82.14-13.64,0-20.45-.11-3.78,1.18-5.57,5.14-5.39,4.65.2,9.31,0,14,.16,10.63.41,17.51,5.48,20.53,15.49,2.63,8.73,2.22,17.38-2.7,25.28-4.09,6.55-9.9,10.47-18.06,10.13-4.64-.19-9.31-.22-14,0-3.66.19-5.07-1-4.94-4.8C655.18,225.47,655,218.65,655,211.84Z" transform="translate(277 156)"/><path d="M329.2,231.66c0-12,.14-24-.08-36-.07-4.31,1.29-6.17,5.73-5.72a53.47,53.47,0,0,0,8.49,0c11.58-.7,19.79,4.52,23.81,15.05,7.48,19.55,8,39.21-2.52,58-4.15,7.4-11.1,11.22-19.95,10.85a61.21,61.21,0,0,0-9.48,0c-5,.57-6.21-1.62-6.1-6.3C329.39,255.64,329.2,243.65,329.2,231.66Z" transform="translate(277 156)"/><path d="M66,521.55c0-17.43,1.75-32.84,8.27-47.26,4.87-10.75,13-19.12,25.24-18.32,10.78.72,16.84,7.59,21.46,16.3A80.73,80.73,0,0,1,129.7,503c1.62,17.57,1.32,35.1-3.69,52.25a57.31,57.31,0,0,1-8.24,17.35c-10.86,15.23-29.1,15-39.55-.49-6.91-10.26-9.67-21.92-11.11-33.95C66.38,532.1,65.68,526,66,521.55Z" transform="translate(277 156)"/><path class="cls-1" d="M810,273.42c-.88-14.62,12.45-32.08,32.1-32.11,18.43,0,32.64,16,32.44,32C874.3,291.7,860.17,306,841.74,306,824.16,306,810,291.45,810,273.42Z" transform="translate(277 156)"/><path class="cls-1" d="M1002.13,273.81c-.12,18.37-14.47,32.3-33.2,32.2-17.5-.09-30.95-14.72-31.21-33.13-.21-14.76,12.82-31.91,33.17-31.59C988.76,241.57,1003.42,258.72,1002.13,273.81Z" transform="translate(277 156)"/><path class="cls-1" d="M906.06,288a14,14,0,0,1,7.25,1.47c3.72,1.77,6.63,4.42,7.1,8.86s-2.29,7.09-5.54,9.28c-5.62,3.77-14.3,3-19.42-1.62-5.46-4.91-3.77-13.4,3.42-16.48A14.93,14.93,0,0,1,906.06,288Z" transform="translate(277 156)"/><path class="cls-3" d="M1112.11,325.05c0-1-.14-1.93-.15-2.9q0-58.66-.06-117.32c0-3.83.84-5.79,5.34-4.17-4.43-.26-4.33,2.44-4.32,5.48q.09,56.67,0,113.33v5.42Z" transform="translate(277 156)"/><path class="cls-18" d="M1145.75,255.2q.06,7.38.13,14.77c-.28.51-.57.49-.85,0q.06-7.39.13-14.77C1145.36,254.62,1145.55,254.59,1145.75,255.2Z" transform="translate(277 156)"/><path class="cls-19" d="M1145,270a1.37,1.37,0,0,0,.85,0c0,1.44.38,2.92-.43,4.36C1144.66,272.89,1145,271.41,1145,270Z" transform="translate(277 156)"/><path class="cls-20" d="M1145.75,255.2h-.59c-.15-1.43-.62-2.88.29-4.32C1146.37,252.32,1145.9,253.77,1145.75,255.2Z" transform="translate(277 156)"/><path class="cls-2" d="M684.78,298.61v8.77h-.5v-8.61Z" transform="translate(277 156)"/><path class="cls-7" d="M109.34,525.88v-12A27.56,27.56,0,0,1,109.34,525.88Z" transform="translate(277 156)"/><path d="M858,273.3c0,10.21-8.24,19-18,18.48-11.27-.6-18.11-7.76-18.49-18.13s7.7-18.51,18.27-18.5S858,262.87,858,273.3Z" transform="translate(277 156)"/><path d="M972.35,255.11a18.48,18.48,0,0,1,18.46,18.13c0,9.93-8.89,18.79-18.66,18.61-10-.18-18.24-8.84-18.18-19.08C954,263.23,962.49,255.1,972.35,255.11Z" transform="translate(277 156)"/></svg>