<?xml version="1.0" encoding="utf-8"?>
<!-- Generator: Adobe Illustrator 24.1.3, SVG Export Plug-In . SVG Version: 6.00 Build 0)  -->
<svg version="1.1" id="Layer_1" xmlns="http://www.w3.org/2000/svg" xmlns:xlink="http://www.w3.org/1999/xlink" x="0px" y="0px"
	 viewBox="0 0 1920 1080" style="enable-background:new 0 0 1920 1080;" xml:space="preserve">
<style type="text/css">
	.st0{fill:#FCFCFC;}
	.st1{fill:#FEFEFE;}
	.st2{fill:#010101;}
	.st3{fill:#020202;}
</style>
<path d="M1695.9,583.7c0-4.4-1.3-5.8-5.7-5.8c-18.2,0.2-36.3,0.1-54.5,0.1c-9.9,0-8.7-1.1-8.7,8.9c0,15.9,0,31.8,0,47.6
	c-1.2-0.9-2.1-2.2-2.6-3.6c-6.8-16.1-13.7-32.2-20.1-48.4c-1.5-3.7-3.4-4.6-7-4.6c-19.8,0.1-39.7,0.2-59.5,0c-4.6-0.1-6.1,1.4-6,6
	c0.3,12.9,0.1,25.8,0.1,38.6c-0.6,0.1-0.9,0.2-0.9,0.1c-2-3.4-4-6.8-6-10.2c-11-18.9-26.9-31.2-48.5-35.5c-15.1-3-30.4-2.5-45.6-0.9
	c-21.3,2.2-37.6,13-50,30.3c-5.3,7.6-9.7,15.7-13.2,24.2c-3.2-6.2-5.4-12.2-8.7-17.6c-12-19.3-28.3-32.4-51-36.5
	c-12.1-2.2-24.5-1.7-36.7-1.2c-22.5,1-41.1,10.3-55,28.4c-5.3,6.9-9.8,14.5-13.3,22.5c0-8.1-0.5-14.7-3.5-20.8
	c-7.4-14.8-20.2-22.3-35.6-26.2c-18.7-4.8-37.7-3.3-56.6-2.4c-8.1,0.4-16.1,2.2-23.6,5.4c-15.4,6.5-27.7,15.9-30,34
	c-0.1,10.3-0.1,20.6,0,30.9c0.8,6.5,1.7,12.8,5.4,18.5c6.4,9.8,16.2,14.4,26.8,17.5c12.5,3.7,25.4,5.1,38.1,8
	c6.1,1.4,11.9,3.9,12.7,10.4c1.2,8.7,1.1,17.6-0.3,26.3c-0.6,3.2-1,8.6-5.2,8c-3.7-0.5-4.3-5.6-4.1-9.5c-1.1-9-0.1-18-0.6-27.1
	c-0.9-1.2-2.3-1.9-3.9-1.9c-20.3,0-40.7,0-61,0c-2.7,0-4.5,1.2-4.4,4.2c0.3,9.7-0.9,19.5,0.9,29.2c4.2,22.2,19.1,36.2,39.2,41.9
	c22.2,6.3,45.3,5.4,67.8,0.3c13.9-3.1,26-10.1,34.7-22c3.5-4.8,5.3-10.3,7.7-16.8c1.7,4.9,4.2,8,6.6,11.2c11.2,15,25.3,25.9,44,29.8
	c14.7,3.1,29.6,2.2,44.5,1.1c18.2-1.4,33-9.4,45.3-22.4c8.7-9.2,15.4-20.1,19.6-32.1c0.7,0.7,1.2,1.5,1.7,2.3
	c3.9,10,9.5,19.3,16.6,27.3c9.4,11,20.8,18.8,34.6,22.7c16.2,4.6,32.8,3.6,49.3,2.2c22.2-2,39-13.2,52-30.8
	c3.7-5,6.6-10.6,10.2-15.8c0.4,13.1,0.4,26,0.4,38.9c0,1.7-0.8,3.7,1,5.1c22,0.2,43.9,0.1,65.9,0.1l1.5-1.5
	c0.1-16.4,0-32.8,0.1-49.2c0-1.5-1.2-3.6,1.2-4.7c5.1,12.3,10,24.8,15.5,36.9c2.9,6.2,4.3,13.1,8.9,18.5c22.6,0.1,45.2,0.1,67.9,0
	c2.1-1.3,1.9-3.3,1.9-5.3C1695.8,706.7,1695.8,645.2,1695.9,583.7z M1197.6,644.8c-2,7.9-2.9,16.1-2.6,24.2
	c-14.6-10.7-31.1-12.7-47.2-16.1c-5.5-1.2-11-2.4-16-4.9c-4.1-2-6.3-5-6-9.8s0-10,0.1-15c0-3.5,1-7.9,4.2-7.8c3,0.1,4.1,4.6,4.1,8.1
	c0,4,0.2,8-0.1,12c-0.2,3.5,1.1,4.6,4.6,4.6c18.3-0.2,36.6,0,54.9-0.2C1197.7,639.9,1198.6,640.6,1197.6,644.8z"/>
<path d="M1013,649.6c-29.6-0.2-59.2,0-88.9,0c-2.6,0.6-2.9,2.5-2.9,4.8c0.1,8.8,0.1,17.5,0,26.3c0,1.9,0.1,3.6,1.9,4.7
	c7.8,0.5,15.7-0.6,23.5,0.6c-0.2,5.7-0.9,11.3-2.3,16.8c-1.5,5.8-3,11.6-6.4,16.7c-4.9,7.4-8.3,7.3-13.4-0.1
	c-6.1-8.9-8.7-18.9-9.8-29.5c-2-19.3-0.9-38.1,6.4-56.3c4.4-11,11.5-15.5,23.5-15.5c9.7,0,19.3-0.2,29,0c3.2,0.1,4.4-1,4.4-4.3
	c-0.1-11.5-0.1-23,0-34.5c0-1.9-0.2-3.6-2.1-4.6c-17.3-0.3-34.6-0.1-51.9-0.1c-0.8,0.2-1.6,0.4-2.4,0.4c-23.1,0-40.4,10.4-53.2,29.1
	c-3.7,5.3-6.8,11-10.1,16.6c-0.4-12-0.4-23.9-0.4-35.9c0-6.8-0.1-6.8-6.5-6.8c-18.8,0-37.7,0.1-56.5-0.1c-4.6-0.1-6,1.2-5.9,5.9
	c0.3,16.9,0.1,33.8,0.1,52.2c-1.4-2.6-2.2-4-2.8-5.4c-6.6-15.8-13.3-31.6-19.6-47.5c-1.5-3.9-3.5-5.1-7.6-5.1
	c-29.8,0.2-59.7,0.1-89.5,0.1c-30.2,0-60.3,0-90.5,0c-2.6,0-5.1-0.1-6.7,2.4c-6.5,10.8-12.9,21.7-19.5,32.4
	c-3.6,5.8-6.7,12-11.4,17.6c-10.2-16.5-20.2-32.4-29.8-48.6c-1.8-3.1-3.9-3.8-7.2-3.8c-16.2,0.1-32.3,0-48.5,0c-7.8,0-7.8,0-7.8,8
	v37.5c-1.3-1.3-2.4-2.9-3.2-4.6c-8.5-15.7-19.4-29-36.1-36.6c-7.9-3.6-16.3-5.8-25-6.5c-13.7-1-27.4-1.5-40.9,0.7
	c-21.4,3.5-37.3,15.8-48.9,33.8c-3.3,5.1-5.9,10.7-9.2,16.6c-6.7-16.8-16.7-30.2-31.4-39.7c-10.4-6.7-22.3-10.6-34.6-11.3
	c-13.4-1-26.9-1.5-40.1,0.6c-16.4,2.6-30,10.8-41.2,23.3c-7.4,8.3-13.3,17.8-17.3,28.2c-9.5,24.3-10.4,49.9-5.9,75.3
	c3.9,22,13.8,41.5,31.2,56.6c11,9.8,24.9,15.7,39.6,16.8c11.8,0.9,23.6,0.8,35.3-0.5c22.9-2.6,40.4-13.6,53.9-31.9
	c4.4-6,7.3-12.8,10.7-19.9c3.5,8.2,7.2,15.5,12.2,22.1c10.2,13.4,22.8,23.4,39.4,27.7c16,4.2,32.2,3.3,48.3,2
	c23.2-1.9,40.1-14.1,53.2-32.6c3.4-4.8,6-10.2,9.3-15.2c0.5,13.4,0.4,26.7,0.5,39.9c0,1.7-0.7,3.7,1,5.1c21.6,0.2,43.3,0.2,65,0
	c1.7-1.4,1-3.4,1-5.1c0.1-20.8,0-41.6,0.1-62.4c0-1.5-0.6-3.2,0.7-5c4.5,5.7,9,11.2,13.2,16.8c4.1,5.5,4.9,5.7,9.1,0
	c3.5-4.8,3.8-4.8,7.3,0.1c0.3,0.4,0.5,0.9,0.7,1.3c2.1,3.4,4.4,3.7,6.9,0.5c1.7-2.2,3.1-4.8,5.1-6.7c3.7-3.6,5.3-8.9,10.1-11.5
	c1,1.5,0.4,3.2,0.4,4.8c0.1,21.9,0,43.8,0.1,65.7l1.5,1.5c63.6,0.1,127.2,0.1,190.8,0l1.5-1.4c0.1-16.4,0-32.8,0.1-49.2
	c0-1.5-1.2-3.6,1.2-4.7c5.1,12.3,10,24.8,15.5,36.9c2.9,6.2,4.3,13.1,8.9,18.5c22.6,0.1,45.2,0.1,67.9,0c2.1-1.3,1.9-3.3,1.9-5.3
	c0-11.2,0-22.3,0-33.5c0-1.1-0.5-2.5,0.7-3.5c3.8,7.7,8.4,15.1,13.8,21.8c9.7,11.9,21.7,19.9,36.9,23c10.1,2,20.2,0.6,30.3,1
	c5.8,0.3,11.6-0.2,17.2-1.5c23.5-5.4,37.4-21.4,45.8-42.5c10.2-25.6,12.5-52.7,12.3-80C1015,651.3,1014.7,650.1,1013,649.6z
	 M275.2,697.3c-8.5-0.2-17-0.1-25.5-0.1c-8.2,0-16.3,0.1-24.5,0c-3.8-0.1-5.6,1.1-6.5,5.1c-2,9.7-4.7,19.3-11.9,26.8
	c-4.4,4.5-5.1,4.5-9.5,0c-6.9-7-9.9-15.9-11.6-25.2c-4.1-21.6-4.1-43.2,2.4-64.4c1.8-6,4.5-11.8,8.8-16.5c4.1-4.6,5.3-4.6,9.5-0.3
	c7.5,7.5,10.5,17.1,12.5,27c0.9,4.5,2.9,5.1,6.7,5.1c16-0.1,32,0,48-0.1c3.5,0,5.4,0.1,4.8,4.7c-1.4,11.6-1.4,23.3,0.1,34.8
	C278.6,696.8,277.7,697.3,275.2,697.3z M380.1,715.7c-2.1,5.7-5.5,10.9-10,15.1c-2.2,1.9-3.8,1.9-6,0c-8-7.2-11.5-16.8-13.4-27
	c-4.1-21.6-4.2-43.1,2.3-64.3c2.2-7.1,5.2-13.9,11.3-18.8c2.1-1.7,3.4-1.6,5.4,0.1c7.7,6.4,10.8,15.3,13.2,24.5
	c2.5,9.5,3.6,19.4,3.2,29.3C386.4,689.3,385.1,702.8,380.1,715.7z"/>
<path d="M1497.9,411.2c-0.9-1.6-0.2-3.4-0.5-5.1c-1.3-16.7-3.9-33.1-10.5-48.6c-12.3-29.1-33.9-46.9-65.8-48.1
	c-34.2-1.3-68.5-0.3-102.8-0.3c-1.6,0-3.4-0.4-3.7,2c-0.1,72-0.1,143.9-0.1,215.9c0,0.7,0.1,1.3,0.2,2c1.7,1.6,3.8,1,5.7,1
	c32.8,0,65.5,0,98.3,0c6.2-0.1,12.4-1.1,18.4-2.8c26.8-7.3,42.3-26.1,51.8-51c5.3-13.9,7.1-28.5,8.5-43.2c0.3-1.8-0.4-3.5,0.5-5.1
	C1497.9,422.3,1497.9,416.8,1497.9,411.2z M1418.9,452c-2.7,10.2-7,19.7-16.2,25.9c-0.7,0.5-1.4,0.9-2.1,1.2
	c-9.5,5.1-10.8,4.4-10.8-6.1l0-53.5c0-19.5,0.1-39-0.1-58.5c0-3.5,0.7-4.6,4.3-4.2c9.3,1,15.6,6.2,19.7,14.1
	c5,9.4,7.1,19.6,7.9,30.1C1423.1,418.1,1423.4,435.3,1418.9,452z"/>
<path d="M1041.1,449.3c-1.8-14-7.1-25.9-17.1-35.7c-5-4.9-11.6-7.4-18-10.2c2.4-2.8,5.1-4.8,7-7.6c5.7-8.1,7.5-17.4,8.4-26.9
	c0.2-3.3,0.1-6.6,0-9.9c-0.9-2.7-0.8-5.5-1.3-8.2c-3.9-24.5-22.9-42.1-49.7-41.9c-21.7,0.1-43.3,0-65,0c-31.3,0.1-62.6,0.1-93.9,0
	c-3.5,0-5.3,0.8-6.8,4.6c-7.1,18.5-14.8,36.8-22.2,55.3c-0.7-0.5-1.3-1.2-1.5-2.1c-7.2-18-14.5-36-21.7-54c-1-2.6-2.2-3.8-5.3-3.8
	c-19.8,0.2-39.6,0.2-59.5,0c-4,0-4.4,2.1-3.2,4.4c1.7,3.2,2.8,6.6,4.3,9.8c5.9,12.7,11.5,25.4,17.3,38.3s11.4,25.8,17,38.8
	c5.1,11.8,10.2,23.5,15.3,35.3c0.9,3.3,0.4,6.6,0.3,9.9c0.2,27.8-0.2,55.6,0.2,83.4c1.5,1.5,3.4,1,5.2,1c21.3,0,42.6-0.2,64,0.1
	c5,0.1,6-1.7,6-6.3c-0.2-27.6,0-55.3-0.2-82.9c0-4.1,0.9-8.1,2.6-11.9c11.3-26,22.4-52.1,33.7-78.1c2.7-6.2,5.6-12.4,8.4-18.6
	l0.7,0.3v5.5c0.1,61.9,0,123.9-0.1,185.9c0,4.7,1.1,6.3,6.1,6.3c37.3-0.2,74.6-0.1,111.9-0.1c3.3,0.1,6.7,0,10-0.4
	c22.5-3.4,35.7-17.4,42.9-37.9C1041.6,478.1,1043,463.6,1041.1,449.3z M937,384.9c0-12.4,0-24.9,0-37.7
	c10.2,2.5,16.4,12.1,14.9,22.6c-1.1,7.6-3.5,14.4-11.6,17.5C937.2,388.5,936.9,387.5,937,384.9z M955.8,480.2
	c-3.5,5.6-8.8,8.1-15.6,7.9c-2.6-0.1-3.3-0.8-3.3-3.4c0.2-8.5,0.1-17,0.1-25.4c0-8.3,0.1-16.6-0.1-24.9c-0.1-2.8,0.6-3.6,3.5-3.6
	c8,0.1,14.1,3.6,17.2,10.6C963.5,454.5,963.7,467.7,955.8,480.2z"/>
<path d="M701.3,524.8c-10.9-22.5-21.7-45-32.8-67.5c-1.3-2.7-1-3.6,1.4-5.1c10.3-6.4,18.5-15.7,23.6-26.8
	c10-22.3,10.3-45.6,3.1-68.4c-10-31.4-32-47.5-61.1-47.7c-101.4-0.6-203-0.2-304.4-0.3c-3,0-4.3,0.9-4.8,3.8
	c-5,26.5-10.1,53-15.4,79.5c-0.9,4.2-0.9,8.8-3.5,13.6c-6.2-31.4-12.4-61.9-18.2-92.4c-0.7-3.7-2-4.5-5.4-4.5
	c-28.5,0.1-57,0.1-85.5,0.1c-38.8-0.1-77.6-0.1-116.5,0c-1.9,0-4.5-1.2-5.2,2c-0.1,72,0,143.9-0.1,215.9c0,0.7,0.1,1.3,0.2,2
	c1.2,1.2,2.7,1,4.2,1c46.2,0,92.3,0,138.4,0.1c3.5,0,4.7-1.1,4.6-4.6c-0.2-9.7-0.1-19.3-0.1-29c0-7.3,0-7.3-7.1-7.3
	c-20.3,0-40.7-0.1-61,0.1c-3.2,0-4.1-0.8-4.1-4.1c0.2-13.7,0.2-27.3,0-41c-0.1-3.7,1.1-4.3,4.5-4.2c12.7,0.2,25.3,0,38,0.1
	c3.5,0,4.7-1.1,4.7-4.6c-0.1-10.7-0.1-21.3,0-32c0-3.5-1.2-4.5-4.7-4.5c-12.5,0.2-25-0.1-37.5,0.2c-3.8,0.1-5.1-0.7-5-4.8
	c0.3-13.2,0.3-26.3,0-39.5c-0.1-4.3,1.1-5.1,5.2-5.1c21.8,0.1,43.6,0,65.5-0.3c2.1,0,1.6,0.9,1.8,1.8c0.8,3.8,1.6,7.7,2.4,11.6
	c6.1,30.4,12.3,60.7,18.5,91.1c4.9,24,10,48,14.8,72c0.7,3.5,2.1,4.2,5.3,4.2c28.4-0.1,56.7-0.1,85,0c3.6,0,5.1-1.4,5.7-4.5
	c1.4-6.9,2.8-13.8,4.2-20.7c4.6-22.1,9.1-44.3,13.6-66.4c4.5-21.9,8.8-43.9,13.5-65.8c1.3-6.1,1.9-12.4,4.9-18.2v5.3
	c0,55.2,0,110.3,0,165.5c0,3.3,0.1,4.9,4.3,4.9c69.8-0.1,139.6-0.1,209.5,0c4.3,0,5.4-1.4,5.3-5.5c-0.2-10.4-0.1-20.8-0.1-32.3
	c5.7,12.3,10.9,23.4,16,34.6c0.7,2.1,2.7,3.4,4.9,3.1c22.2-0.1,44.3-0.1,66.5-0.1C703.2,530,703.5,529.4,701.3,524.8z M531.4,489.2
	c-20-0.3-40-0.2-60,0c-3.3,0-4.6-0.5-4.5-4.2c0.2-13.7,0.2-27.3,0-41c0-3.1,0.6-4.2,4-4.2c12.7,0.2,25.3,0,38,0.2
	c3.9,0.1,5.2-1.2,5.2-5.1c-0.2-10.3-0.2-20.7,0-31c0.1-4.1-1.4-5.1-5.2-5c-12.5,0.2-25,0-37.5,0.1c-3.3,0-4.5-0.5-4.5-4.2
	c0.2-13.8,0.2-27.6,0-41.5c0-2.7,0.6-3.7,3.5-3.6c20.7,0.1,41.3,0.2,62,0c3.4,0,3.6,1.3,3.6,4.1c0,22,0,44,0,65.9
	c0,21.5-0.1,43,0.1,64.5C536.1,487.9,535.6,489.3,531.4,489.2z M628.2,386c-0.3,12.5-1.2,22.8-7.8,31.6c-0.3,0.4-0.6,0.8-0.9,1.2
	c-2.2,2.2-4.7,5.5-7.5,4.8c-2.1-0.5-0.8-4.7-0.8-7.2c-0.1-20.1-0.1-40.3,0-60.4c0-1.3-0.7-2.9,0.5-3.7c1.5-1,2.7,0.5,3.9,1.3
	c7.6,5,9.8,13,11.5,21.1C627.9,379,628.5,383.5,628.2,386z"/>
<path d="M1751,448.7c-1.4-6.3-7.5-11.1-14.9-12.7c-16.3-3.7-33.2-5.3-49.1-10.9c-20.4-7.1-29.9-21.3-30.1-42.4
	c-0.1-7.5,0.4-15-0.1-22.5c-1.2-20,9-33.1,25.3-42.6c11.7-6.8,24.5-9.6,38-10.7c11.1-0.8,22.2-1,33.3-0.5c15.3,0.4,30.3,2.8,44,10.7
	c14.2,8.1,23.8,19.3,25.8,36.1c0.1,7.9,0.1,15.9,0,23.9c-1.1,1.8-2.8,1.9-4.8,1.9c-21.6,0-43.3-0.1-64.9,0c-3.7,0-5.1-1-4.8-4.8
	c0.3-4.5,0.2-9,0.1-13.5c-0.1-5.6-4-11.9-7.1-11.6c-2.7,0.2-5.9,6.5-5.9,11.7c0,5.7,0,11.3,0,17c-0.2,3.7,1.7,7.1,4.8,9
	c8.2,5.2,17.6,6.5,26.8,8.3c12,2.2,24,4.6,35.2,9.8c15.7,7.1,24.7,19.1,26.4,36.3c0.2,12,0.1,23.9,0,35.9c-1,10.3-3.7,20-10.2,28.4
	c-9.5,12.1-22.2,19.3-36.6,23.6c-18.7,5.6-38.1,4.6-57.2,3.8c-16.9-0.7-33-7.2-45.5-18.5c-9.9-8.8-15.7-20.4-17.8-33.6
	c-1.7-10.7-0.6-21.5-0.8-32.2c-0.1-2.8,1-4.3,4.4-4.3c22.2,0.1,44.3,0.1,66.4,0c4,0,5.1,1.5,5,5.4c-0.2,8.7-0.1,17.3-0.1,26
	c0.1,4.7,1.8,9.1,5,12.6c1.4,1.7,2.3,1.5,3.9,0c3.4-3.2,5.4-6.9,5.2-11.7C1751.6,467,1751.7,457.8,1751,448.7z"/>
<path d="M1174.4,296.1c17.6-0.7,35,0.7,51.7,7c20.1,7.5,38,20,52.1,36.3c11.5,13.3,20.4,27.8,25.2,44.7
	c11.5,40.5,6.2,78.6-19.1,112.7c-20.6,27.8-48.3,45.3-82.8,49.7c-24.7,3.1-49.7,3.3-74-4.7c-28.7-9.5-50.5-27.8-67.2-52.5
	c-10-14.9-16.2-31.9-18.2-49.7c-2.5-21.1-1.4-41.8,6.2-61.8c8.1-21.3,21.4-38.9,38.9-53.5c10.4-8.6,21.9-15.5,34.3-20.7
	c8.2-3.5,17.2-5.4,26.1-6.5C1156.5,296.1,1165.5,295.8,1174.4,296.1z"/>
<path d="M1577.4,369.4c7.6-18.9,15.1-37.3,22.4-55.7c1.4-3.6,3.5-4.8,7.4-4.7c18.8,0.2,37.6,0.1,56.5,0.1c5.7,0,6.4,0.8,4.2,5.8
	c-9.8,22.8-19.7,45.5-29.5,68.3c-7.3,16.9-14.5,33.8-21.8,50.7c-0.7,1.7-0.5,3.2-0.5,4.9c0,28.5-0.1,57,0.1,85.4
	c0,4.6-1.3,6-5.9,5.9c-21.7-0.2-43.3-0.2-65,0c-3.6,0-4.3-1-4.3-4.4c0.2-25.1,0-50.3,0.1-75.5c0-8.2-0.2-16.2-4.1-23.9
	c-6.6-13.2-12.4-26.8-18.4-40.3s-11.8-27.1-17.7-40.6c-4.5-10.1-9-20.2-13.7-30.2c-2.4-5.3-2-6.2,3.7-6.2c18.8,0,37.7,0.2,56.5-0.1
	c4.2-0.1,6.1,1.5,7.5,5.1c7,17.8,14.1,35.5,21.1,53.2C1576.4,367.9,1576.9,368.7,1577.4,369.4z"/>
<path class="st0" d="M76.7,311.1c0,71.6,0,143.2,0,214.9c0,1,0.1,2,0.2,3c-1.3-1.6-0.7-3.5-0.7-5.3c0-69.1,0-138.1,0-207.2
	C76.1,314.7,75.6,312.8,76.7,311.1z"/>
<path class="st0" d="M1314.5,311.1c0,71.6,0,143.2,0,214.9c0,1,0.1,2,0.2,3c-1.3-1.6-0.7-3.5-0.7-5.3c0-69.1,0-138.1,0-207.2
	C1314,314.7,1313.5,312.8,1314.5,311.1z"/>
<path class="st0" d="M570.1,773.4H761c-1.5,1-3.2,0.6-4.9,0.6c-60.4,0-120.8,0-181.1,0C573.3,774,571.6,774.4,570.1,773.4z"/>
<path class="st1" d="M745.1,435.7c0.1,1.8,0.4,3.6,0.4,5.4c0.1,29.3,0.2,58.6,0.2,87.9c-0.9-1-0.7-2.2-0.7-3.3
	C745.1,495.6,745.1,465.6,745.1,435.7z"/>
<path class="st1" d="M1012.9,649.6l-88.9,0c1.2-0.8,2.6-0.6,3.9-0.6h81.2C1010.4,649,1011.8,648.7,1012.9,649.6z"/>
<path class="st1" d="M568.1,701.3c1,12.4,0.2,24.8,0.4,37.2c0.2,11.1,0.1,22.2,0.1,33.3c-0.3-1.1-0.5-2.2-0.5-3.4
	C568,746.1,568,723.7,568.1,701.3z"/>
<path class="st0" d="M788.1,773.4H856C833.3,774.4,810.7,774.4,788.1,773.4z"/>
<path class="st0" d="M1626,773.4h67.9C1671.2,774.4,1648.6,774.4,1626,773.4z"/>
<path class="st0" d="M1533,773.3l65.9,0.1c-0.8,0.3-1.6,0.5-2.4,0.6c-20.4,0-40.8,0-61.2,0C1534.5,773.8,1533.7,773.6,1533,773.3z"
	/>
<path class="st0" d="M449.1,773.3H514c-1,0.8-2.2,0.7-3.3,0.7h-58.2C451.3,774,450.1,774.1,449.1,773.3z"/>
<path class="st0" d="M762.4,771.9c0-16.8,0-33.5,0.1-50.3c0-1.5,0.2-2.9,0.3-4.4c0,0,0.4,0,0.5,0c0.2,0.2,0.3,0.5,0.5,0.8
	c-1.2,1.7-0.7,3.5-0.7,5.3c0,14.4,0,28.8,0,43.2C763,768.3,763.5,770.2,762.4,771.9z"/>
<path class="st0" d="M1600.4,771.9c0-16.8,0-33.5,0.1-50.3c0-1.5,0.2-2.9,0.3-4.4c0,0,0.4,0,0.4,0c0.2,0.2,0.3,0.5,0.5,0.8
	c-1.2,1.7-0.7,3.5-0.7,5.3c0,14.4,0,28.8,0,43.2C1600.9,768.3,1601.4,770.2,1600.4,771.9z"/>
<path class="st1" d="M976,574.7l-51.9-0.1c4.7-1.3,9.5-0.5,14.3-0.5c10.9-0.1,21.8-0.1,32.8,0C972.8,574,974.5,573.6,976,574.7z"/>
<path class="st0" d="M1829.3,477c0-12,0-23.9,0-35.9C1830.4,453.1,1830.4,465.1,1829.3,477z"/>
<path class="st0" d="M1053.6,616v30.9C1052.6,636.7,1052.6,626.3,1053.6,616z"/>
<path class="st1" d="M1126.9,726.1c-1.1-9-0.1-18-0.5-27C1127.7,708,1126.7,717.1,1126.9,726.1z"/>
<path class="st0" d="M1751,448.7c0.7,9.1,0.7,18.3,0,27.5V448.7z"/>
<path class="st0" d="M1823.3,377v-23.9C1824.3,361,1824.3,369.1,1823.3,377z"/>
<path class="st1" d="M923.1,685.4c7.8,0.5,15.7-0.6,23.5,0.6C938.8,685.6,930.9,686.7,923.1,685.4z"/>
<path class="st0" d="M1021.4,369c0-3.3,0-6.6,0-9.9C1022.4,362.3,1022.4,365.8,1021.4,369z"/>
<path class="st0" d="M1497.9,411.1c-1-1.6-0.2-3.4-0.5-5.1C1498.4,407.7,1497.8,409.5,1497.9,411.1z"/>
<path class="st0" d="M1497.4,433l0.5-5.1C1497.8,429.5,1498.4,431.3,1497.4,433z"/>
<path class="st1" d="M549.7,715.5c-10.9-14.2-21.4-28.1-32-41.8c-1.5-1.9-2.2-5.8-5.6-4.5c-3.3,1.2-1.8,4.6-1.8,7.1
	c-0.1,28.8-0.2,57.7,0.1,86.5c0,5-1.4,6-6.1,5.8c-10.5-0.4-21-0.2-31.5,0c-3.1,0.1-3.8-0.8-3.8-3.9c0.1-59.3,0.1-118.7,0-178
	c0-3.2,0.9-3.8,3.9-3.8c10.2,0.2,20.3,0.2,30.5,0c2.5,0,3.7,0.9,4.9,2.9c12.4,20.5,24.9,40.9,37.5,61.3c3.4,5.5,4.9,5.5,8.4-0.2
	c12.3-20.1,24.6-40.3,36.9-60.5c1.5-2.5,3.2-3.6,6.3-3.6c9.8,0.3,19.7,0.2,29.5,0c3.2-0.1,3.8,0.9,3.8,3.9
	c-0.1,59.2-0.1,118.3,0,177.5c0,3.8-1.4,4.3-4.6,4.3c-10.5-0.2-21-0.2-31.5,0c-3.6,0.1-4.7-0.7-4.7-4.6c0.2-28.8,0.1-57.7,0.1-86.5
	c0-0.8,0-1.7,0-2.5c-0.1-2.1,0.7-4.8-1.6-5.8c-2.5-1-3.8,1.7-5,3.3c-9.7,12.4-19.3,24.9-29,37.4
	C552.8,711.7,551.4,713.4,549.7,715.5z"/>
<path class="st1" d="M715,675.7c0-29.5,0.1-59-0.1-88.5c0-3.5,0.8-4.5,4.3-4.4c12.8,0.2,25.7,0.2,38.5,0c2.8,0,4.2,0.8,5.2,3.3
	c13.5,32.6,27,65.2,40.6,97.8c0.3,0.8,0.6,1.5,1,2.3c0.9,1.6,1,4.2,3.9,3.6s1.6-3,1.6-4.5c0.1-32.5,0.2-65-0.1-97.5
	c0-4.3,1.1-5.2,5.2-5c11.3,0.3,22.7,0.2,34,0c2.7,0,4,0.2,4,3.6c-0.1,59.3-0.1,118.6,0,177.9c0,3.5-1.2,4.1-4.3,4
	c-12.7-0.1-25.3-0.2-38,0c-3.3,0-4.8-1-6.1-4.1C791,731.1,777,698,763.1,664.8c-0.7-1.7-1.3-4-3.5-3.4s-2.1,3.1-2.1,5.1
	c0,32-0.2,64,0.2,96c0,5.3-1.5,6.3-6.4,6.1c-10.7-0.4-21.3-0.3-32,0c-3.5,0.1-4.4-0.8-4.4-4.3C715.1,734.7,715,705.2,715,675.7z"/>
<path class="st1" d="M262.7,649.5c-6,0-12-0.3-18,0.1c-3.6,0.2-5-1.2-5.7-4.4c-1.7-8.1-5-15.8-9.7-22.5c-9.7-13.9-27.7-14.5-37.8-1
	c-7.7,10.3-10.7,22.3-12.3,34.6c-2.3,16.5-1.6,33.3,1.9,49.5c2.4,10.8,6.1,21,14.8,28.4c10,8.6,23.6,7,32-3.2
	c5.9-7.2,9.3-15.5,11.1-24.5c0.7-3.2,1.8-4.8,5.7-4.7c12.3,0.4,24.7,0.2,37,0.1c2.4,0,3.8,0.2,3.2,3.2c-3,14.8-8,28.6-17.7,40.4
	c-10.9,13.4-24.8,21.8-41.7,25c-20,3.7-39,1.1-55.8-11c-18.2-13.2-28.7-31.7-33.1-53.5c-5.3-26.3-4.9-52.5,5.4-77.7
	c9.3-22.7,24.5-40.2,49.1-45.9c42.5-9.9,80.1,10.7,91.9,55.7c3,11.4,2.8,11.4-8.8,11.4L262.7,649.5z"/>
<path class="st1" d="M976.5,654.5c10,0,20,0,30,0c1.7,0,3.7-0.7,3.7,2.5c-0.5,29.2-3.1,57.9-17,84.4c-21.1,40.2-77.7,40.3-101.8,7.2
	c-12.2-16.7-18.6-35.2-20.5-55.6s-1.2-40.8,5.2-60.5c5.4-16.7,13.9-31.3,28.4-42c11.5-8.5,24.6-11,38.4-11c8.8,0,17.7,0.2,26.5-0.1
	c3.2-0.1,3.8,0.9,3.8,3.9c-0.2,8.7-0.2,17.3,0,26c0.1,3-0.5,4-3.8,3.9c-8.7-0.3-17.3,0.1-26-0.1c-11.4-0.3-19.2,4.9-24.5,14.7
	c-6.8,12.9-9.1,26.8-9.8,41.2c-0.6,14,0.2,28,5.1,41.2c3.5,9.4,8.3,18.3,18.8,21.7c10,3.3,18.8-0.1,24.9-9.2
	c7.8-11.8,9.1-25.3,10.4-38.9c0.3-2.8-2-3.4-4.4-3.4c-6,0-12-0.1-18,0c-2.5,0.1-3.5-0.7-3.5-3.4c0.2-6.2,0.2-12.3,0-18.5
	c-0.1-3.2,0.8-4.3,4.1-4.3C956.5,654.6,966.5,654.5,976.5,654.5z"/>
<path class="st1" d="M694,675.5c0,29.5-0.1,59,0.1,88.4c0,3.6-0.7,4.8-4.5,4.7c-11.2-0.3-22.3-0.3-33.5,0c-3.9,0.1-4.6-1.1-4.6-4.8
	c0.1-58.8,0.1-117.6,0-176.3c0-3.9,1.1-4.6,4.7-4.5c11.3,0.2,22.7,0.2,34,0c3.4-0.1,4,1,4,4.2C694,616.5,694,646,694,675.5z"/>
<path class="st1" d="M1690.9,676c0,29.2-0.1,58.3,0.1,87.5c0,4.3-1.2,5.2-5.3,5.1c-12.3-0.3-24.7-0.2-37,0c-3.3,0-4.8-0.9-6.1-4.1
	c-13.7-33.3-27.7-66.5-41.7-99.6c-0.7-1.7-1.3-4-3.5-3.5s-2.1,3.1-2.1,5.1c0,32.2-0.1,64.3,0.1,96.5c0,4.7-1.4,5.8-5.8,5.6
	c-11-0.3-22-0.2-33,0c-3,0-3.9-0.7-3.9-3.8c0.1-59.3,0.1-118.6,0-177.9c0-3,0.6-4,3.8-3.9c13,0.2,26,0.2,39,0c2.8,0,4.2,0.8,5.2,3.3
	c13.5,32.6,27,65.2,40.6,97.8c0.2,0.6,0.5,1.2,0.8,1.8c1.1,1.6,0.9,4.7,4.1,4s1.6-3.3,1.6-5c0.1-32.5,0.2-65,0-97.5
	c0-3.8,1-4.7,4.6-4.6c11.5,0.3,23,0.2,34.5,0c3.3-0.1,4.1,0.9,4,4.1C1690.9,616.7,1690.9,646.3,1690.9,676z"/>
<path class="st1" d="M1351.9,612c-13.9-1.1-21.6,6.6-26.8,17.5c-8.2,17-9.1,35.3-8.3,53.9c0.4,10.8,1.7,21.4,5.3,31.7
	c1.8,5.2,4.3,10,7.6,14.4c5.5,7.3,12.6,11.2,22.7,10.2c-9.3,13.9-20.7,24-36.2,28.5c-27.8,8.2-53.2,4-74.3-17
	c-12.7-12.6-19.9-28.3-23.2-45.8c-4.7-24.3-4.6-48.6,3.5-72.2c8-23.2,22-41.5,46.4-49.5C1299,573.8,1334.9,583.1,1351.9,612z"/>
<path class="st1" d="M1519.3,739.7c-17.2,24.6-40,35.1-68.8,31.7c-34.8-4-54.1-26.3-63.1-57.9c-8.3-29.5-7.8-59.5,4.6-88.1
	c10-23.1,26.7-39.6,52.2-44c26.2-4.6,49.7,1.3,68.3,21.7c1.2,1.4,2.3,2.8,3.3,4.3c1,1.3,1.8,2.7,3.1,4.5c-17.9-0.9-25.4,11-30,25.1
	c-8.7,26.5-8.2,53.1,0.3,79.6c1.6,4.7,4,9.1,7.1,13C1501.9,736.8,1509.1,740.9,1519.3,739.7z"/>
<path class="st1" d="M1100.2,702c5.8,0,11.7,0.2,17.5-0.1c3.2-0.2,3.9,1,3.9,4c0,7.2-0.5,14.3,0.4,21.5c1.4,11.2,7.8,17.3,18,17.2
	c9.7-0.2,17.2-7.2,17.8-17.7c0.5-8.5,0.5-17,0.1-25.5c-0.3-6.9-7.3-12.9-16.9-15.3c-13.3-3.3-27-4.8-40.2-8.8
	c-18-5.5-26-15.7-26-34.4c0-9.5-1-19.2,0.5-28.4c2.1-12.9,11-21.7,22.7-26.2c26.5-10.2,53.3-11,79.3,1.7c13.3,6.5,20.7,17.7,20.5,33
	c0,4,1.7,9.1-0.7,11.5s-7.6,0.7-11.5,0.7c-8.8,0.1-17.7-0.1-26.5,0.1c-3.2,0.1-4.2-0.9-3.8-3.9c0.1-2.2,0.1-4.3,0-6.5
	c-0.1-10.9-6.1-16.8-17-16.8c-9.3,0-14.8,3.3-17,10.6c-1.1,3.4-0.3,7-0.4,10.4c-0.1,2.7,0.2,5.3-0.1,8c-1.2,10.7,3.8,14.5,14.5,18
	c13.5,4.4,27.9,5.3,41.3,10s24.2,12.7,25.6,27.8c1.3,14,2.4,28.4-0.8,42.2c-3.9,16.9-16.7,26.2-32.3,31.5c-18.8,6.4-38.1,7-57.1,0.5
	c-21.8-7.4-33.8-24.5-33.8-47.4c0-4,0.3-8-0.1-12c-0.3-4.2,0.6-6,5.3-5.6C1089.2,702.4,1094.7,702,1100.2,702z"/>
<path class="st1" d="M238.1,313.9c14.7,0,28.8,0.1,43-0.1c2.5,0,3.5,0.9,4,3.2c8,41.2,16,82.5,24.1,123.7c1.3,6.6,2.6,13.3,4,19.9
	c0.4,1.8,0.5,4,2.8,4.1s2.7-2.1,3-3.8c6-31.2,12.1-62.3,18.1-93.5c3.3-17,6.7-34,9.9-51.1c0.4-2.3,1.7-2.5,3.5-2.5
	c13.7,0,27.3,0,41,0c2.3,0,2.7,0.5,2.2,2.9c-6.2,29.4-12.3,58.8-18.3,88.2c-6.8,33.2-13.6,66.4-20.4,99.6
	c-1.2,5.8-2.7,11.6-3.6,17.5c-0.4,2.7-1.5,3-3.8,3c-21-0.1-42-0.2-63,0.1c-3.3,0-3.9-1.4-4.4-3.9c-4.7-23.1-9.4-46.3-14.2-69.4
	c-6.5-32.2-13.1-64.4-19.5-96.7C243.8,341.6,241,328,238.1,313.9z"/>
<path class="st1" d="M413,419.5c0-33.5,0.1-67-0.1-100.5c0-3.9,0.6-5.3,5-5.2c37.2,0.2,74.3,0.2,111.5,0c3.5,0,5,0.5,4.8,4.5
	c-0.4,7.6-0.3,15.3,0,23c0.1,3.1-0.7,3.9-3.8,3.9c-20.7-0.1-41.3,0-62-0.2c-4.7,0-6.5,1.1-6.4,6.1c0.3,16,0.2,32,0,48
	c0,3.8,1.2,4.9,4.9,4.9c12.5-0.2,25,0.1,37.5-0.2c4.1-0.1,4.9,1.2,4.8,5c-0.3,7.3-0.3,14.7,0,22c0.1,3.4-0.7,4.5-4.3,4.4
	c-12.3-0.2-24.7,0-37-0.2c-4.2-0.1-6,1.2-5.9,5.7c0.2,16.2,0.2,32.3,0,48.5c-0.1,4.2,1.4,5,5.2,4.9c20.8-0.2,41.7,0,62.5-0.2
	c3.9,0,4.7,1.1,4.5,4.7c-0.3,7.5-0.3,15,0,22.5c0.1,3.4-1,4-4.2,4c-37.7-0.1-75.3-0.1-113,0c-3.4,0-4-1-4-4.2
	C413.1,487.1,413,453.3,413,419.5z"/>
<path class="st1" d="M97.9,419c0-33.5,0.1-67-0.1-100.4c0-4.1,1.2-4.8,5-4.8c37.1,0.1,74.3,0.1,111.4,0c3.7,0,5.2,0.6,5,4.8
	c-0.4,7.5-0.3,15,0,22.5c0.1,3.3-0.8,4.1-4.1,4.1c-20.6-0.1-41.3,0.1-62-0.2c-4.9-0.1-6.2,1.5-6.1,6.2c0.3,15.8,0.3,31.6,0,47.5
	c-0.1,4.3,1.4,5.4,5.4,5.3c12.5-0.2,25,0,37.5-0.1c3,0,4.4,0.4,4.3,3.9c-0.3,7.8-0.2,15.7,0,23.5c0.1,3-0.6,3.9-3.8,3.9
	c-12.5-0.2-25,0.1-37.5-0.2c-4.7-0.1-6,1.5-5.9,6.1c0.3,16,0.3,32,0,48c-0.1,4.3,1.3,5.2,5.3,5.1c20.8-0.2,41.7,0,62.5-0.2
	c3.4,0,4.5,0.7,4.4,4.3c-0.3,7.8-0.2,15.7,0,23.5c0.1,2.6-0.6,3.4-3.3,3.3c-38.1-0.1-76.3-0.1-114.4,0c-3.6,0-3.5-1.5-3.5-4.1
	C98,487,98,453,97.9,419z"/>
<path class="st1" d="M868,313.9c-6.9,16-13.7,31.7-20.5,47.4c-10.1,23.3-20.2,46.7-30.3,70c-0.9,2.1-1.3,4.4-1.2,6.7
	c0.1,27.5,0,55,0.1,82.5c0,3.6-0.6,4.8-4.5,4.7c-13.5-0.3-27-0.2-40.5,0c-3.5,0.1-4.3-0.9-4.3-4.4c0.2-26.8,0-53.6,0.1-80.5
	c0-3.6-0.8-7.2-2.3-10.5c-16.5-37.2-33-74.5-49.5-111.8c-0.5-1.1-1.6-2.2-0.8-4.1c12.6,0,25.4,0.1,38.2-0.1c2.7,0,2.8,1.9,3.4,3.4
	c9.4,23.2,18.8,46.5,28.2,69.7c1.2,2.9,2.4,5.8,3.5,8.7c0.6,1.4,0.9,2.9,2.9,2.9s2.3-1.5,2.9-2.9c5.5-13.7,11-27.5,16.5-41.2
	c4.9-12.2,9.8-24.4,14.5-36.7c1.1-2.8,2.5-4.1,5.7-4C842.6,314,855.1,313.9,868,313.9z"/>
<path class="st1" d="M1707.1,449h2.5l21.9,0.3c1,7.2,0.2,14.5,0.5,21.8c0,3.3,0.3,6.6,0.9,9.9c2.6,10.6,9.7,16.2,20.8,16
	c9-0.2,16.6-7,18.2-16.6c1.8-10.7,1.1-21.6,0.6-32.4c-0.3-8.1-8.5-14.6-19.1-17c-14.2-3.2-28.6-5-42.7-8.9
	c-4.4-1.2-8.7-2.9-12.8-4.9c-11.3-5.6-17.4-14.7-19.1-27.2c-1.6-12-1.3-24-0.6-35.9c1-17.7,12.5-28.3,27.6-35
	c17.2-7.6,35.4-9.1,54-7.6c11.3,0.9,22.3,3,32.5,8.2c17.2,8.7,27.4,21.8,26.2,42.2c-0.7,12.1-0.1,12.1-12.2,12.1
	c-11,0-22-0.1-33,0.1c-2.9,0-3.7-0.8-3.5-3.6c0.2-3.6,0.1-7.3,0.1-11c-0.2-10-7.9-17.1-18.6-17.3c-11.9-0.2-19.7,6.1-20.1,16.6
	c-0.3,7-0.2,14,0,21s6.6,12.6,15.6,15.3c14.3,4.3,29.2,5.6,43.4,10c8.4,2.6,16.5,5.9,23,12.2s10.6,13.7,10.9,22.6
	c0.4,12.1,0.7,24.3,0.3,36.5c-0.7,19-10.8,32.2-27.1,41.1c-17.6,9.6-36.7,11.8-56.4,10c-12.9-1-25.4-5.5-36-13
	c-14.5-10.2-21.8-24.5-22.4-42.1c-0.2-6.7,0.1-13.3-0.1-20c-0.1-3,1.1-3.5,3.7-3.5C1693.1,449.1,1700.1,449,1707.1,449z"/>
<path class="st1" d="M1111.3,352.3c3.8,7.4,9.3,11.5,17.4,11.7s13.5-4.4,17.2-11.6c5.8,12.4,13.2,16.3,24.6,13.7
	c4.9-1.1,8-4.3,10.4-8.5c0.9-1.5,1.6-3.4,3.7-0.6c10.6,14.6,25.5,13.5,34.2-2.3c0.3-0.6,0.6-1.1,1.1-2c2.4,2.4,3.4,5.5,5.8,7.4
	c7.7,6.3,19.1,5.1,25.3-2.6c0.3-0.4,0.6-0.8,0.9-1.2c2.4-3.5,3.6-3.6,6.6-0.5c7.8,7.9,15.6,8.5,24.8,2.2c2.2-1.5,2.6-0.1,3.5,1.3
	c14.1,23.3,19.3,48.6,16.4,75.6c-4.3,39.2-24,68.8-56.6,90.1c-15,9.8-31.7,15.2-49.6,17.1c-33.7,3.6-64-4.6-90.2-26.3
	c-25-20.8-40.8-46.9-44.1-79.9c-2.7-26.8,1.3-52.1,15.6-75.4c1.8-3,2.8-3.8,6-1.2c5.9,4.6,14,3.8,20.6-1.3
	C1107.1,356.4,1108.9,354.5,1111.3,352.3z"/>
<path class="st1" d="M1180.3,301c42.5-0.5,74,16.4,98.8,47c3.6,4.4,1.9,8.2-4,9.1c-6.2,0.9-10.9-1.5-14.7-6.3
	c-6.1-7.7-6.1-7.6-11.1,0.9c-5.8,10-17.6,10.1-23.5,0.2c-1.4-2.4-2.8-4.9-4.2-7.3c-0.7-1.1-1.6-2.3-3.2-1.9c-1.3,0.3-1.8,1.5-2,2.6
	c-0.5,2.8-1.3,5.4-2.4,8c-2.5,5.4-6.3,8.6-12.5,8.8c-6.5,0.1-10.6-3.2-13.2-8.6c-1-2.3-1.8-4.6-2.5-7c-0.4-1.4-0.9-2.4-2.6-2.4
	s-2.2,1.1-2.6,2.4c-0.9,2.7-1.9,5.3-3.1,7.8c-2.8,5.2-7,8.3-13.2,7.8s-10.2-3.5-12.4-9.1c-0.9-2.3-1.4-4.8-2.1-7.1
	c-0.4-1.3-0.7-2.7-2.2-3c-1.8-0.3-2.6,1-3.4,2.4c-1.2,2.4-2.4,4.7-3.8,7c-6.1,9.8-18.6,9.3-24.1-0.9c-4.3-8-4.1-7.9-9.9-1.2
	c-7,8.1-13.7,9.3-20.4,4.6c-1.9-1.3-2.3-2.7-0.6-4.8c17.4-22,38.8-38.4,66.4-45.4C1161.9,301.8,1172.3,300.3,1180.3,301z"/>
<path class="st1" d="M1509.3,313.9c12.7,0,25.6,0,38.6,0c2.5,0,2.4,2,2.9,3.3c9.5,23.4,18.9,46.8,28.3,70.2c1.1,2.8,2.3,5.5,3.4,8.2
	c0.6,1.3,0.8,2.9,2.8,3s2.4-1.4,3-2.8c8.5-21.1,17-42.2,25.6-63.3c2.5-6.1,3.4-14.3,8-17.6c4.2-3,12.2-0.9,18.5-0.9
	c7.3,0,14.7,0,22.6,0c-3.3,7.8-6.5,15.2-9.7,22.6c-13.8,32-27.5,64-41.3,95.9c-0.8,2-1.1,4.2-1,6.3c0,27.3-0.1,54.6,0.1,82
	c0,3.4-0.7,4.5-4.3,4.4c-13.5-0.2-27-0.2-40.5,0c-3.4,0-4.4-0.7-4.4-4.3c0.2-27.3,0.1-54.6,0.1-82c0-2.8-0.6-5.6-1.8-8.1
	c-16.9-37.9-33.7-75.7-50.4-113.6C1509.3,316.2,1508.5,315.4,1509.3,313.9z"/>
<path class="st1" d="M446,635.4c-9.6-30.7-29.1-51.8-63.1-54.9c-28.3-2.6-51.2,7.1-67.4,31.1c-13.1,19.5-16.8,41.4-16.9,64.2
	c0,14.8,1.4,29.5,6.6,43.4c10.4,28.2,28.6,47.7,59.9,52c31.4,4.3,59.8-10,74.2-38.4C455,701.4,456.3,668.4,446,635.4z M403,711.2
	c-1.7,6.1-4.4,11.8-7.9,17c-11,15.9-29.2,15.6-40-0.5c-6.8-10.2-9.4-21.7-11-33.5c-0.8-6.1-1.4-12.3-1.2-16.8
	c0-17.3,2-32.6,8.2-47.2c4.9-11.7,14.2-18.7,25.3-18.3c10.8,0.4,16.9,7.5,21.5,16.2c4.9,9.6,7.9,20,8.8,30.8
	C408.3,676.6,408,694.1,403,711.2z"/>
<path class="st1" d="M663.3,457.5c-1.9-3.8-1.7-6,2.2-8.3c10.5-6.1,18.7-14.6,23.5-25.8c11.3-26.6,10.3-53.2-3.1-78.6
	c-10-19-26.7-29.7-48.1-30.5c-25.8-1-51.6-0.3-77.5-0.4c-2.6,0-3.3,0.7-3.3,3.3c0.1,68.1,0.1,136.3,0,204.4c0,2.9,0.9,3.5,3.7,3.5
	c13.7-0.1,27.3-0.2,41,0c3.9,0.1,4.5-1.1,4.5-4.7c-0.2-18-0.1-36-0.1-54c0-2-0.5-4.1,1.9-5.2c4.4-2,10.9,0.4,13,5
	c8.4,18.3,16.7,36.7,25.1,55c0.9,1.9,1.2,3.9,4.3,3.9c15.1-0.2,30.2-0.1,45.9-0.1c-0.7-1.5-1.2-2.5-1.7-3.4
	C684.1,500.2,673.8,478.8,663.3,457.5z M642.2,418.3c-4.9,7.8-11.7,11.7-21.1,11.6c-14.8-0.2-14.8-0.1-14.8-14.9v-53.4
	c0-15.5,0-15.5,15.8-15.5c2.2-0.1,4.3,0.1,6.4,0.5c8.6,2.4,13.6,8.5,16.7,16.5c3,7.7,4.4,15.9,3.9,24.1
	C649.3,398.5,648,409,642.2,418.3z"/>
<path class="st1" d="M1035.7,445.9c-4.4-21.7-17.7-38.1-41.5-38.9c-1.5-0.1-3.2,0-3.3-2.1c-0.1-1.8,1.2-2.7,2.8-2.8
	c11.6-1,17-8.9,20-18.7c3.6-11.8,3.8-24.4,0.6-36.3c-5.4-20.5-21.1-32.8-42.2-33c-26.6-0.2-53.3-0.1-79.9-0.3
	c-4-0.1-4.9,1.1-4.9,4.9c0.2,33.5,0.1,66.9,0.1,100.4c0,33.8,0.1,67.6-0.2,101.4c0,3.8,1,4.6,4.7,4.6c30.9-0.2,61.9-0.3,92.9,0
	c21.9,0.2,36.3-10.2,45.1-29.5C1037.2,480.1,1039.2,462.7,1035.7,445.9z M931.9,387.8c0.3-6.6,0.1-13.3,0.1-19.9
	c0-7.2,0-14.3,0-21.4c0-2.5,0.8-4.4,3.5-4.4c6.5,0,13-0.4,19.4,0.4c8.2,1.1,13.5,6.2,16.2,14.1c3.1,9.1,2.7,17.9-2.2,26.2
	c-4,6.6-9.8,10.5-18,10.2c-4.7-0.2-9.3-0.2-14,0C932.8,393.3,931.7,391.7,931.9,387.8z M980,475.8c-4.4,11.7-12,17.2-24.5,17.2
	c-6.3,0-12.7-0.2-19,0.1c-3.5,0.1-4.7-1.1-4.6-4.6c0.2-9.7,0.1-19.3,0.1-29c0-9.3,0.2-18.6-0.1-28c-0.1-4,1.1-5.8,5.4-5.6
	c5.8,0.4,11.7,0.4,17.5,0c15.1-1.1,23.7,8.8,26.8,21.5C984,456.8,983.4,466.7,980,475.8z"/>
<path class="st2" d="M1119.1,466.9c-20.4,0-37-16.5-37.1-36.9c0-0.2,0-0.3,0-0.5c0-20.9,16.3-37,37.3-36.9
	c20.4-0.1,37,16.3,37.1,36.6c0,0,0,0.1,0,0.1c0.2,20.6-16.4,37.4-37,37.6C1119.4,466.9,1119.2,466.9,1119.1,466.9z"/>
<path class="st2" d="M1210,429.5c-1.5-16.3,13.8-37.2,37.1-37.2c22.6,0,38.1,21.4,37.2,38.4c-1.1,20-17.4,35.8-37.5,36.2
	C1227.9,467.3,1208.6,450,1210,429.5z"/>
<path class="st3" d="M1187.3,439.2c4,0.1,10.3,3,13.8,10.1c2.6,5.2,1.6,10.3-2.1,14.8c-5.7,6.8-17.8,8.9-25.6,4.5
	c-7.3-4.2-10.5-10.2-8.9-16.6C1166.5,444.2,1174.1,439.1,1187.3,439.2z"/>
<path class="st3" d="M1184.3,499c-13.7,0.3-24.5-3.9-33.7-12.3c-1.6-1.4-2.9-3.2-3.7-5.2c-0.6-1.4-1.7-2.6,0.2-3.8s3.1-0.2,4.1,1.4
	c4.4,6.9,10.8,10.7,18.4,13.1c14.5,4.6,37.8,1.4,46.3-13.4c0.8-1.4,2-2.3,3.7-1.3c2.1,1.2,1.3,2.5,0.3,4.1
	c-5.5,9.4-14.7,13.4-24.6,16.2C1191.8,498.9,1188.1,499.3,1184.3,499z"/>
<path class="st1" d="M1492.3,406c-1.3-20.2-5-39.7-15.3-57.4c-13.1-22.7-33-34.2-59-34.5c-25.8-0.3-51.6-0.1-77.4-0.3
	c-3.9,0-4.9,1-4.9,4.9c0.2,33.5,0.1,67,0.1,100.4c0,33.8,0.1,67.6-0.1,101.4c0,3.8,0.9,4.6,4.6,4.6c26.8-0.2,53.6-0.1,80.4-0.1
	c1.2,0.1,2.3,0,3.5-0.1c29.1-3.8,48.1-20.4,58.7-47.1C1492.1,454.7,1493.9,430.6,1492.3,406z M1443.3,431.2
	c-0.5,10-1.9,19.8-5.5,29.1c-4.9,12.7-12.5,23.5-26.8,26.1c-7.7,1.4-15.9,0.6-23.9,0.5c-3.3,0-2.1-2.8-2.1-4.5
	c-0.1-21,0-41.9,0-62.9c0-20.6,0.2-41.3-0.1-61.9c-0.1-5.1,1.8-6.3,6.3-6.1c7.9,0.3,15.9-0.4,23.8,1.3c9.5,2,15.9,8.1,19.8,16.6
	C1444,389,1444.4,410,1443.3,431.2z"/>
<path class="st1" d="M1119.4,397.5c18.1-1,32.5,15.9,32.1,32c-0.4,18.4-14.5,32.3-33.1,32.5c-14.4,0.1-32.1-13.1-31.6-33.4
	C1087.2,414.6,1099.4,396.5,1119.4,397.5z"/>
<path class="st1" d="M1214.8,429.3c-0.8-15.3,12.9-31.9,32.1-32s32.3,17.7,32.4,32.1c0.2,18.6-17.4,33.1-32.5,32.8
	C1228.8,461.7,1214.8,447.8,1214.8,429.3z"/>
<path class="st1" d="M1183.3,466c-3.9,0.1-7.6-1.3-10.5-3.8c-5.5-4.3-4.5-12.3,1.8-16.2c4.9-3,13.3-2.7,18,0.6
	c6.6,4.7,6.6,11.5,0.1,16.3C1189.9,465,1186.7,466,1183.3,466z"/>
<path d="M1135,429.6c0,9.9-8.1,18.5-17.7,18.2c-11.4-0.4-18.5-7.8-18.7-18.4s7.9-18.3,18.5-18.2C1127.4,411.3,1135,419,1135,429.6z"
	/>
<path d="M1249.1,411.1c10.1-0.1,18.4,7.8,18.7,17.9c0.1,9.9-8.6,18.8-18.4,18.8s-18.4-8.6-18.4-18.8
	C1230.9,419.4,1239.3,411.2,1249.1,411.1z"/>
</svg>
