<svg id="Layer_1" data-name="Layer 1" xmlns="http://www.w3.org/2000/svg" viewBox="0 0 1440 2160"><defs><style>.cls-1{fill:#213c43;}.cls-2{fill:#f7f8f7;}.cls-3{fill:#1e383f;}.cls-4{fill:#233942;}.cls-5{fill:#1d343a;}.cls-6{fill:#e6e9ea;}.cls-7{fill:#d8dddf;}.cls-8{fill:#dfe4e6;}.cls-9{fill:#fbfcfc;}.cls-10{fill:#fbfbfb;}.cls-11{fill:#fcfcfc;}.cls-12{fill:#fbfbfc;}.cls-13{fill:#fafafb;}.cls-14{fill:#f9faf9;}.cls-15{fill:#f7f8f8;}.cls-16{fill:#f9fafa;}.cls-17{fill:#f8f9f9;}.cls-18{fill:#f9f9f9;}.cls-19{fill:#f4f5f6;}.cls-20{fill:#f4f6f6;}.cls-21{fill:#f5f6f7;}.cls-22{fill:#f6f7f7;}.cls-23{fill:#f6f7f8;}.cls-24{fill:#203840;}.cls-25{fill:#1e373f;}.cls-26{fill:#20363e;}.cls-27{fill:#ebeff0;}.cls-28{fill:#21373e;}.cls-29{fill:#23373f;}.cls-30{fill:#1e363d;}.cls-31{fill:#eaedee;}.cls-32{fill:#e7eaeb;}.cls-33{fill:#1f3a41;}.cls-34{fill:#1e3840;}.cls-35{fill:#e9ebed;}.cls-36{fill:#eaeeef;}.cls-37{fill:#233a41;}.cls-38{fill:#eef0f1;}.cls-39{fill:#ebeeee;}.cls-40{fill:#eceff0;}.cls-41{fill:#ebeef0;}.cls-42{fill:#203a41;}.cls-43{fill:#e8eced;}.cls-44{fill:#e7ebec;}.cls-45{fill:#e8ebed;}.cls-46{fill:#ecf0f1;}.cls-47{fill:#1f343c;}.cls-48{fill:#213942;}.cls-49{fill:#203941;}.cls-50{fill:#1d333a;}.cls-51{fill:#eceef0;}.cls-52{fill:#e8ebec;}.cls-53{fill:#f0f2f3;}.cls-54{fill:#1f383f;}.cls-55{fill:#edf0f1;}.cls-56{fill:#eff1f2;}.cls-57{fill:#e9edee;}.cls-58{fill:#eef1f2;}.cls-59{fill:#f1f2f3;}.cls-60{fill:#1f363d;}.cls-61{fill:#f1f4f5;}.cls-62{fill:#213740;}.cls-63{fill:#1e353e;}.cls-64{fill:#20373c;}.cls-65{fill:#edf0f2;}.cls-66{fill:#20353d;}.cls-67{fill:#20373f;}.cls-68{fill:#1c353c;}.cls-69{fill:#1d373e;}.cls-70{fill:#223a42;}.cls-71{fill:#1d353e;}.cls-72{fill:#1e353d;}.cls-73{fill:#1e343a;}.cls-74{fill:#1a3139;}.cls-75{fill:#243a40;}.cls-76{fill:#20363f;}.cls-77{fill:#21383f;}.cls-78{fill:#1f373d;}.cls-79{fill:#1b3239;}.cls-80{fill:#1b3339;}.cls-81{fill:#1c343a;}.cls-82{fill:#1b333a;}.cls-83{fill:#223941;}.cls-84{fill:#253b3f;}.cls-85{fill:#1a3138;}.cls-86{fill:#1b343c;}.cls-87{fill:#183135;}.cls-88{fill:#1c3338;}.cls-89{fill:#173036;}.cls-90{fill:#1a353c;}.cls-91{fill:#193238;}.cls-92{fill:#233b41;}.cls-93{fill:#142b31;}.cls-94{fill:#193037;}.cls-95{fill:#22383b;}.cls-96{fill:#182c35;}.cls-97{fill:#243b3f;}.cls-98{fill:#142c30;}.cls-99{fill:#1b343a;}.cls-100{fill:#1c3136;}.cls-101{fill:#1b353f;}.cls-102{fill:#152a2d;}.cls-103{fill:#192f34;}.cls-104{fill:#1e3137;}.cls-105{fill:#0d282c;}.cls-106{fill:#16313a;}.cls-107{fill:#17333d;}.cls-108{fill:#243c42;}.cls-109{fill:#0d262a;}.cls-110{fill:#13272b;}.cls-111{fill:#203339;}.cls-112{fill:#172c30;}.cls-113{fill:#142a2e;}.cls-114{fill:#1c3137;}.cls-115{fill:#0f252c;}.cls-116{fill:#0d2730;}.cls-117{fill:#173236;}.cls-118{fill:#10262a;}.cls-119{fill:#374a4f;}.cls-120{fill:#1a2e34;}.cls-121{fill:#1b3036;}.cls-122{fill:#112e38;}.cls-123{fill:#162d33;}.cls-124{fill:#cbd3d7;}.cls-125{fill:#35474c;}.cls-126{fill:#2c3e47;}</style></defs><path class="cls-1" d="M1679.9,191q0,712,.1,1424.05c0,3.93-.62,4.92-4.79,4.92q-444.09-.2-888.17-.12c-2-1-2.87-2.48-2.5-4.41.36,1.93-.54,3.46-2.5,4.41q-268.71,0-537.42.1c-3.75,0-4.62-.85-4.6-4.6.18-32.49.1-65,.1-97.49,2.75-2.33.7-4.66,0-7Q240.12,488,240-535c0-4.4,1.12-5,5.18-5q142.45.19,284.9.1c2.66,2.34,5.33,2.23,8,0h46c1.31,3.33-.51,5.7-2.61,7.82a57.91,57.91,0,0,0-6.21,7.44,12.82,12.82,0,0,0-.12,1.86c4.3,3.49,6.89,8.33,10.22,12.58.49,0,1.12.1,1.25-.49,1.35-6.07,6.21-9.41,10.28-13.35-.75-2.6-3.33-3.55-4.87-5.44-2.51-3.08-4.19-6.32-2.94-10.42H901c2.67,2.34,5.33,2.23,8,0q383.19,0,766.38-.09c3.75,0,4.59.84,4.59,4.59q-.15,353.72-.09,707.43c-2.45,2.34-4.81,4.75-5.63,8.2C1676.8,183.5,1679.47,186.68,1679.9,191Z" transform="translate(-240 540)"/><path class="cls-2" d="M1679.9,191c-1.91-3.43-3.6-7-7.27-9.05-1.21-.67,0-1.32.37-1.91,2.53-1.75,2.75-6.14,6.9-6Z" transform="translate(-240 540)"/><path class="cls-3" d="M574.33-524.79c-1.78-.38-1.74-.92-.38-2.07,4.29-3.61,8.45-7.37,10.12-13h1a4.22,4.22,0,0,1,1.28,2.91c-.3,4.84-2.74,8.46-6.56,11.21C578.2-524.64,576.46-523.43,574.33-524.79Z" transform="translate(-240 540)"/><path class="cls-4" d="M589.07-539.9c1.33,5.78,3.58,10.91,9.21,13.86.81.43,1.64,1.33.4,2.33-6.06.93-8-3.89-10.66-7.69a8,8,0,0,1-1.35-5.65,4.46,4.46,0,0,1,1.4-2.85Z" transform="translate(-240 540)"/><path class="cls-5" d="M1679.9,174c-2.71,1.55-3.44,5.36-6.9,6-.58-.18-1.71-.45-1.12-1.08a48,48,0,0,0,6.1-7.73c.61-1,1.21.6,1.92.77Z" transform="translate(-240 540)"/><path class="cls-6" d="M909-539.9a18.05,18.05,0,0,0-3.77,6.3c-1.57-2.35-2.9-4.32-4.23-6.3Z" transform="translate(-240 540)"/><path class="cls-6" d="M538.08-539.9a17.9,17.9,0,0,0-3.77,6.3c-1.57-2.35-2.9-4.32-4.23-6.3Z" transform="translate(-240 540)"/><path class="cls-7" d="M240.12,1510.89a10.35,10.35,0,0,0,1.49,1.89c3.68,3,1.71,4.19-1.49,5.11Z" transform="translate(-240 540)"/><path class="cls-8" d="M782,1619.88l2.51-5.09c.89,1.83,1.69,3.46,2.49,5.09Z" transform="translate(-240 540)"/><path class="cls-1" d="M588.07-539.9c-.05,1.1-.09,2.19-.14,3.29-.91.14-1.85-2.26-2.75,0,0-1.1-.07-2.21-.11-3.31Z" transform="translate(-240 540)"/><path class="cls-9" d="M488.27,870.34c.54.31,1.47.53,1.56.93,1.51,7,5.73,11.74,12.51,15.05-6.31,3.06-10.73,7.18-12.25,13.75-.28,1.18-1.07,1-1.9.67-3.41-5.28-6-11.25-12.42-13.92-1.49-.63-1.28-2.12.12-3.13C482.71,881.74,485.36,875.92,488.27,870.34Z" transform="translate(-240 540)"/><path class="cls-9" d="M1381.08,175.34l1.84-3.39c1.76,7.82,5.7,13.38,13.22,16.59-7.16,3.15-11.42,7.91-12.74,14.82-2.05-.21-1.18-2.15-2.34-2.58a11.81,11.81,0,0,1-3.86-6.87,13.26,13.26,0,0,0-5.58-5.2c-1.47-.76-1.32-1.53-.33-2.51C1375.15,183.12,1378.11,179.22,1381.08,175.34Z" transform="translate(-240 540)"/><path class="cls-9" d="M1567.28,395.81c-1-1.35,0-2,.93-2.67,4.55-3.31,7-8.27,9.86-12.85,1.86-.72,1.74.72,2,1.81a18.66,18.66,0,0,0,9.16,11.95c4.08,2.17,1,2.78-.44,3.93-3.11,2.92-5.29,6.6-8,9.86-.52,1-1,2-1.77,3.31-1.67-2.8-2-5.91-4.2-8C1571.9,401.16,1569.79,398.28,1567.28,395.81Z" transform="translate(-240 540)"/><path class="cls-9" d="M981.26,1304.8a13.2,13.2,0,0,0-5.58-5.2c-1.47-.76-1.32-1.53-.32-2.51,3.85-3.08,6.81-7,9.78-10.87l1.85-3.39c1.75,7.83,5.69,13.39,13.21,16.6-7.16,3.15-11.42,7.9-12.74,14.82-2.05-.22-1.18-2.15-2.34-2.58A11.81,11.81,0,0,1,981.26,1304.8Z" transform="translate(-240 540)"/><path class="cls-9" d="M884.21-240.55c.54.31,1.37.49,1.57.94,4.5,10,4.48,10,12.14,15.23-6.37,3-10.8,7.55-12.64,14.83-2.55-6.36-5.9-11.8-12.25-14.72-1.3-.6,0-1.68.27-2.52A33,33,0,0,0,884.21-240.55Z" transform="translate(-240 540)"/><path class="cls-9" d="M1204.08,373c-.91-3.26-5.5-3.32-6-6.92a39.72,39.72,0,0,0,11.07-13.68c.91-.13,1.59,0,1.83,1.1a19.38,19.38,0,0,0,10.93,13.85c.43.21.56,1.05.83,1.6a31.53,31.53,0,0,0-11.79,14l-1.73,0A29.12,29.12,0,0,1,1204.08,373Z" transform="translate(-240 540)"/><path class="cls-9" d="M766.7,1179.93c.26-.56.36-1.37.8-1.66,7.67-5.06,7.87-5.27,11.82-14.82,1.88,7.86,5.59,13.45,13.24,16.63-6.76,3.17-11,7.63-12.66,14.26-.21.88-1.07.52-1.69.52C775.4,1189.09,771.22,1184.39,766.7,1179.93Z" transform="translate(-240 540)"/><path class="cls-9" d="M1186.75,68.13c.25.61,1.64,1.28.33,1.87a19.54,19.54,0,0,0-11.25,13.48c-.24.87-1.07.49-1.68.49-2.81-5.76-7-10.47-11.51-14.92.26-.57.36-1.37.8-1.66,7.65-5,8-5.48,11.34-13.74,1.93.44,1,2.66,2.13,3.52C1179.81,61.17,1183.41,64.53,1186.75,68.13Z" transform="translate(-240 540)"/><path class="cls-9" d="M513.27-240.55c.54.31,1.47.53,1.56.94,1.5,7,5.76,11.74,12.5,15.06-6.72,3.17-11.15,7.72-13,15-2.55-6.36-5.9-11.8-12.26-14.72-1.29-.6,0-1.68.28-2.52A33,33,0,0,0,513.27-240.55Z" transform="translate(-240 540)"/><path class="cls-9" d="M815,1493.78l-1.73,0a28.79,28.79,0,0,1-5.11-10c-.91-3.26-5.51-3.32-6-6.93a39.57,39.57,0,0,0,11.06-13.67c.91-.14,1.59,0,1.83,1.09A19.38,19.38,0,0,0,826,1478.2c.44.21.56,1,.83,1.6A31.42,31.42,0,0,0,815,1493.78Z" transform="translate(-240 540)"/><path class="cls-9" d="M1449.12,870.34c.54.31,1.47.53,1.56.93,1.5,7,5.76,11.74,12.52,15.08-6.8,3.1-11.07,7.79-13,16.4-2.58-7.78-5.92-13.21-12.28-16.13-1.3-.6,0-1.69.27-2.52A33,33,0,0,0,1449.12,870.34Z" transform="translate(-240 540)"/><path class="cls-10" d="M822.85,590.06c1.18,1.3.45,1.93-.8,2.49-5.92,2.66-8.78,7.71-10.79,14.9-2.42-6.43-5.1-11.57-9.79-15.32-1-.76-3.28-.75-2.22-3,5.1-3.1,8.3-7.77,10.81-13,1.54-1.29,1.77-.25,2.08,1.06.64,2.7,1.59,5.28,3.74,7.23S821.6,586.85,822.85,590.06Z" transform="translate(-240 540)"/><path class="cls-10" d="M1206-534.82c1.54-1.29,1.76-.25,2.08,1.06.64,2.7,1.59,5.29,3.73,7.23,2.16,2.11,5.73,2.49,7,5.7,1.18,1.3.44,1.93-.8,2.49-5.93,2.67-8.78,7.71-10.79,14.9-2.42-6.43-5.1-11.57-9.79-15.32-1-.75-3.28-.75-2.22-3,2.2-2.6,5.31-4.19,7.54-6.84C1204.33-530.53,1203-533.83,1206-534.82Z" transform="translate(-240 540)"/><path class="cls-11" d="M1147.9-93.91c.34.89.26,1.52-.77,2a17.74,17.74,0,0,0-10.39,12c-.21.69-.2,1.92-1.3,1.53-.59-.2-.87-1.28-1.3-2a1.44,1.44,0,0,1-1.54-.94c-1.86-4.87-5.42-8.4-9.16-11.79l-.35-1.75c4.65-3,7.71-7.45,11-11.68.93-.27.63-3.69,2.69-1A31.6,31.6,0,0,0,1147.9-93.91Z" transform="translate(-240 540)"/><path class="cls-11" d="M752,1017c.34.88.26,1.52-.76,1.95a17.77,17.77,0,0,0-10.4,12c-.21.69-.2,1.92-1.3,1.53-.59-.21-.87-1.28-1.29-2a1.44,1.44,0,0,1-1.55-1c-1.86-4.86-5.42-8.39-9.16-11.79-.11-.58-.23-1.16-.34-1.74,4.64-3,7.7-7.45,11-11.68.92-.27.62-3.69,2.68-1A31.6,31.6,0,0,0,752,1017Z" transform="translate(-240 540)"/><path class="cls-12" d="M1452-408.81c1.36-1.34,1.7-.7,2.1.84,1.61,6.31,5.58,10.74,12,13.89-6.53,3.31-11.11,7.92-12.66,15.61-2.39-3.3-2.57-7.14-5.48-9.26-3.53-.91-5-4.19-7.5-6.35-.54-1.85.72-2.64,2-3.4C1447.7-399.51,1448.53-405.26,1452-408.81Z" transform="translate(-240 540)"/><path class="cls-12" d="M986,1147.94l1.72-3.28c1.85,1,.75,3.29,2.24,4.3,2.68,3.58,5.86,6.72,8.83,10-.11,1,3.24,1.19.85,2.28-6.22,2.83-9.48,7.89-11.61,14.94-2.76-6.86-5.64-12.53-11.62-15.86-2.13-1.19.21-1.65.61-2.42C979.82,1154.43,983.52,1151.72,986,1147.94Z" transform="translate(-240 540)"/><path class="cls-12" d="M1382,37.06l1.72-3.28c1.86,1,.76,3.29,2.25,4.29,2.68,3.58,5.86,6.73,8.83,10-.11,1,3.24,1.19.85,2.28-6.23,2.83-9.46,7.9-11.61,14.94-2.76-6.86-5.64-12.52-11.62-15.86-2.14-1.19.2-1.65.61-2.41C1375.76,43.54,1379.45,40.83,1382,37.06Z" transform="translate(-240 540)"/><path class="cls-9" d="M1092.81-268.85c.37.68,2.09,1.35.33,2.11-6.25,2.7-9.53,7.74-11.22,14-1.5-.19-1-1.74-1.92-2.2-2.17-2.35-4.12-4.83-4.8-8.07-1.32-2.64-4-3.81-6.72-5.7a20.79,20.79,0,0,0,12.45-14.57c1.77.18,1.12,1.91,2,2.51C1085.77-276.43,1088.71-272.16,1092.81-268.85Z" transform="translate(-240 540)"/><path class="cls-11" d="M1137.16,599.91c0-.6,0-1.2.08-1.81,4.16-3.43,7.36-7.75,10.85-11.8.89-2,1.8-2.38,2.76,0,2.29,5.39,6.52,9.16,10.77,12.92.68,1.19.07,1.67-1,2.17a17.78,17.78,0,0,0-9.93,11.69c-1.22,4.18-1.8.38-2.63-.22-2-1-2.33-3.09-3.28-4.77C1142.89,604.71,1139.67,602.65,1137.16,599.91Z" transform="translate(-240 540)"/><path class="cls-11" d="M307.22,657.29c.89-2,1.81-2.38,2.76,0,2.29,5.4,6.52,9.17,10.77,12.92.68,1.2.07,1.67-1,2.17a17.77,17.77,0,0,0-9.93,11.7c-1.22,4.17-1.8.37-2.63-.23-2-1-2.33-3.09-3.27-4.77-1.89-3.34-5.11-5.39-7.62-8.13l.08-1.82C300.54,665.66,303.74,661.34,307.22,657.29Z" transform="translate(-240 540)"/><path class="cls-11" d="M1281.6,670.17c.68,1.2.07,1.67-1,2.17a17.77,17.77,0,0,0-9.93,11.7c-1.22,4.17-1.8.37-2.63-.23-2-1-2.33-3.09-3.27-4.77-1.89-3.34-5.11-5.39-7.62-8.13,0-.61.06-1.21.08-1.82,4.17-3.43,7.36-7.74,10.85-11.8.89-2,1.81-2.38,2.76,0C1273.12,662.65,1277.35,666.42,1281.6,670.17Z" transform="translate(-240 540)"/><path class="cls-11" d="M321.29-440l.08-1.81c4.16-3.43,7.36-7.75,10.85-11.8.89-2,1.8-2.39,2.76-.05,2.28,5.4,6.51,9.17,10.77,12.92.67,1.2.07,1.67-1,2.17a17.79,17.79,0,0,0-9.93,11.7c-1.22,4.17-1.8.38-2.63-.22-2-1-2.33-3.1-3.28-4.78C327-435.19,323.79-437.24,321.29-440Z" transform="translate(-240 540)"/><path class="cls-11" d="M716.69-440.72c.68,1.2.07,1.67-1,2.17a17.79,17.79,0,0,0-9.93,11.7c-1.22,4.17-1.8.37-2.63-.22-2-1-2.33-3.1-3.28-4.78-1.88-3.34-5.11-5.39-7.61-8.13l.08-1.81c4.16-3.43,7.36-7.75,10.85-11.8.89-2,1.8-2.39,2.76-.05C708.21-448.24,712.44-444.47,716.69-440.72Z" transform="translate(-240 540)"/><path class="cls-11" d="M1353.92,1091.05c-2.13-6.2-5-11.89-11-15.27-2.33-1.3-.36-1.87.3-2.71,4.38-3.44,7-8.21,9.86-12.86.6-.08,1.47-.6,1.65.35,1.34,7.22,6.36,11.53,12,15.33-.59,2.58-2.74,2.78-4.79,3.15-2.09,1-2.81,3.27-4.36,4.77C1356.62,1086.34,1357.14,1089.65,1353.92,1091.05Z" transform="translate(-240 540)"/><path class="cls-9" d="M392.22,1060.21c.6-.08,1.47-.6,1.65.35,1.34,7.22,6.36,11.53,12,15.33-.59,2.58-2.74,2.77-4.79,3.15-2.09,1-2.81,3.27-4.36,4.77-1,2.53-.46,5.84-3.69,7.24-2.13-6.2-5-11.89-11-15.27-2.33-1.3-.36-1.87.3-2.71C386.74,1069.63,389.4,1064.86,392.22,1060.21Z" transform="translate(-240 540)"/><path class="cls-11" d="M1361.28-68.1c-.76-.88-1.74-1.73.14-2.52,6-2.52,8.83-7.69,11.26-15,1.81,8.46,5.85,13.9,13.23,17.19-7,3-11.2,7.82-12.72,14.68-1.94.07-1-2-2.2-2.33C1367.8-60.11,1365-64.46,1361.28-68.1Z" transform="translate(-240 540)"/><path class="cls-9" d="M679.26,847.87c-1.28-2.69-4-3.72-6.54-5.75,6.46-3,10.67-7.73,12.21-14.52,1.84.18,1.18,1.91,2.06,2.51,2.85,4.35,5.79,8.62,9.88,11.93.37.68,1.91,1,.36,2.17-8.41,6.31-8.39,6.33-11.46,13.89-1.29-.15-.81-1.71-1.71-2.16C681.89,853.59,679.94,851.1,679.26,847.87Z" transform="translate(-240 540)"/><path class="cls-11" d="M965.34,1042.79c-.76-.88-1.74-1.74.14-2.52,6-2.52,8.83-7.69,11.28-15,1.8,8.5,5.8,14,13.24,17.22-7,3-11.23,7.84-12.75,14.7-1.94.07-1-2-2.19-2.33C971.86,1050.78,969,1046.43,965.34,1042.79Z" transform="translate(-240 540)"/><path class="cls-9" d="M1657.72,842c.37.68,2.1,1.35.33,2.11-6.24,2.7-9.53,7.74-11.22,14-1.5-.19-1-1.75-1.92-2.2-2.17-2.35-4.12-4.84-4.8-8.07-1.28-2.69-4-3.72-6.57-5.77a20.69,20.69,0,0,0,12.3-14.5c1.78.18,1.12,1.91,2,2.51C1650.69,834.46,1653.63,838.73,1657.72,842Z" transform="translate(-240 540)"/><path class="cls-11" d="M417.22-50.68c.6-.08,1.47-.6,1.65.35,1.34,7.23,6.36,11.53,12,15.33-.59,2.58-2.75,2.78-4.79,3.15-2.1,1-2.81,3.27-4.36,4.77-1,2.54-.47,5.84-3.69,7.24-2.14-6.2-5-11.89-11-15.26-2.32-1.31-.35-1.88.3-2.72C411.74-41.26,414.4-46,417.22-50.68Z" transform="translate(-240 540)"/><path class="cls-9" d="M789-19.84c-2.13-6.2-5-11.89-11-15.26-2.32-1.31-.35-1.88.31-2.72,4.38-3.44,7-8.21,9.86-12.86.6-.08,1.47-.6,1.65.35,1.34,7.23,6.36,11.53,12,15.33-.59,2.58-2.75,2.78-4.79,3.15-2.09,1-2.81,3.27-4.36,4.77C791.71-24.54,792.23-21.24,789-19.84Z" transform="translate(-240 540)"/><path class="cls-11" d="M585.18-536.59c.9-2,1.82-2.53,2.75,0a16.47,16.47,0,0,0,10.75,12.9c.71,1.19.12,1.66-1,2.17a17.74,17.74,0,0,0-9.94,11.69c-1.22,4.18-1.8.39-2.63-.22-2-1-2.33-3.09-3.28-4.77-1.88-3.34-5.11-5.39-7.61-8.13l.08-1.82C580.53-526.35,583.27-531.09,585.18-536.59Z" transform="translate(-240 540)"/><path class="cls-9" d="M900.92,722.23c-2.66,2.89-6.73,4-8.94,7.57a36.52,36.52,0,0,0-3.91,9.32c-2.33-8.46-7.12-13.59-12.77-18,4.43-3.56,8.75-7.21,11-12.68a1.34,1.34,0,0,1,1.71-.57c1.58.49.73,2.49,2,3.18C893,715.39,896.89,718.87,900.92,722.23Z" transform="translate(-240 540)"/><path class="cls-9" d="M1344.85-238.67c-2.66,2.89-6.73,4-8.94,7.56a36.68,36.68,0,0,0-3.91,9.32c-2.33-8.45-7.12-13.58-12.77-18,4.44-3.55,8.75-7.2,11-12.67a1.34,1.34,0,0,1,1.71-.57c1.57.49.72,2.49,2,3.18C1336.92-245.51,1340.82-242,1344.85-238.67Z" transform="translate(-240 540)"/><path class="cls-9" d="M936,857.83c1.57.5.72,2.49,2,3.19,3,4.36,6.9,7.84,10.93,11.2-2.66,2.89-6.73,4-8.94,7.56a37,37,0,0,0-3.91,9.32c-2.33-8.46-7.12-13.58-12.77-18,4.44-3.55,8.75-7.2,11-12.67A1.34,1.34,0,0,1,936,857.83Z" transform="translate(-240 540)"/><path class="cls-9" d="M575.48,1565c7-2.88,10.81-7.91,13-14.74,1.91,7.31,5.95,12.63,13.23,16-3.49,1.88-6.41,3.57-8.64,6.23s-2.91,5.81-4.4,8.92C583.13,1570.48,582.77,1570,575.48,1565Z" transform="translate(-240 540)"/><path class="cls-11" d="M420.51,1242.73c0-.48-.18-1.2.05-1.39,8.64-6.71,8.64-6.71,12.43-15,1.65,7.73,5.59,13.15,12.88,16.56-6.19,3.15-10.21,7.24-12.25,13.47-1.11,3.41-1.39-.84-2.34-.81C427.92,1251.07,425,1246.2,420.51,1242.73Z" transform="translate(-240 540)"/><path class="cls-11" d="M1426,1399c.9-.31.85-4.28,2.76-.71,2.21,5.07,5.78,9.11,9.73,12.85.86.81,2.67,1.51.2,2.62-5.9,2.66-9.09,7.53-11,14.75-2.77-7.33-6.26-12.89-12.21-16.55-1.12-.69.63-1.17.82-1.84A39.66,39.66,0,0,0,1426,1399Z" transform="translate(-240 540)"/><path class="cls-11" d="M1381.36,1242.73c0-.48-.13-1.3,0-1.37,6.51-2.68,9.87-8,12.31-15.65,1.78,8.32,5.72,13.74,13,17.15-6.19,3.15-10.21,7.24-12.25,13.47-1.11,3.41-1.39-.84-2.34-.81C1388.77,1251.07,1385.89,1246.2,1381.36,1242.73Z" transform="translate(-240 540)"/><path class="cls-9" d="M984.6,471.69c-2.88-8.07-6.24-13.7-13.33-17.36,6.88-3,10.93-7.94,13.11-14.89,2,7.11,5.86,12.57,13.35,15.92C990.55,458.46,986.44,463.48,984.6,471.69Z" transform="translate(-240 540)"/><path class="cls-9" d="M1562.76,1566.37c-7.37,3-11.23,7.91-13.12,15.68-3.19-7.13-6.1-13.41-13.26-16.57,2.95-2.29,6.07-3.51,8.16-6.19s3.18-5.76,5-10.08C1551.21,1557.58,1555.29,1562.88,1562.76,1566.37Z" transform="translate(-240 540)"/><path class="cls-11" d="M873.55,300.23c.86.82,2.67,1.51.2,2.62-5.9,2.67-9.09,7.54-11,14.75-2.77-7.33-6.26-12.89-12.21-16.55-1.12-.69.62-1.16.82-1.84a39.82,39.82,0,0,0,9.68-11.12c.9-.32.86-4.27,2.76-.71C866,292.45,869.59,296.49,873.55,300.23Z" transform="translate(-240 540)"/><path class="cls-11" d="M842.19,132c-7.45,3.27-11.49,8.19-13.27,16.29-2.81-7.84-6.29-13.51-13.42-17.4,3.49-1.62,6.22-3.26,8.3-5.77s3.29-5.71,5-9.86C830.76,123,834.31,128.65,842.19,132Z" transform="translate(-240 540)"/><path class="cls-11" d="M502.61,300.23c.85.82,2.67,1.51.19,2.62-5.89,2.67-9.08,7.54-11,14.75-2.77-7.33-6.26-12.89-12.22-16.55-1.12-.69.63-1.16.83-1.84a39.63,39.63,0,0,0,9.67-11.12c.9-.32.86-4.27,2.77-.71C495.08,292.45,498.65,296.49,502.61,300.23Z" transform="translate(-240 540)"/><path class="cls-11" d="M477.62,1411.12c.85.81,2.66,1.49.19,2.62-5.85,2.7-9.17,7.47-10.91,14.93-2.84-7.51-6.33-13.07-12.28-16.73-1.12-.69.63-1.17.82-1.84a39.66,39.66,0,0,0,9.68-11.12c.9-.32.86-4.28,2.76-.71C470.09,1403.34,473.66,1407.38,477.62,1411.12Z" transform="translate(-240 540)"/><path class="cls-11" d="M457.49,115.54c4.62,10.87,5.05,11.41,13.13,16.58-6.69,3-10.78,8-12.73,15.95-2.68-7.69-6.28-13.27-13.06-17.13C451.56,127.85,455.53,122.91,457.49,115.54Z" transform="translate(-240 540)"/><path class="cls-9" d="M1056,702.09c.79-.64,1.56-1.49,2,.35,1.5,6.59,5.59,11.11,12.12,14.41-6.49,3.26-11.09,7.73-12.48,15.08-2.28-1.51-2.25-4-3.34-5.87-2.07-3.47-4.42-6.67-7.85-8.85-3-1.91-.22-2.27.67-3.18C1050.85,710.6,1053.44,706.34,1056,702.09Z" transform="translate(-240 540)"/><path class="cls-10" d="M1154.13,1230.28c.59-.52,1.21-2.91,1.9-.23,1.71,6.7,5.91,11.34,12.29,15-6.76,3.07-10.94,7.82-12.75,15.68-3.45-7.9-9.67-14-5.4-22.78C1151.48,1235.42,1151.29,1232.07,1154.13,1230.28Z" transform="translate(-240 540)"/><path class="cls-13" d="M261.33,1309.28c.85-.27,1.41-.26,1.87.81,3.49,8.11,3.52,8.1,10.57,13.26-5.52,2.48-9.12,6.45-10.61,12.18-.32,1.23-1.23.61-1.9.1a98.88,98.88,0,0,0-8.79-11.89c-.78-.86-1.52-1.73-.25-2.77A26.47,26.47,0,0,0,261.33,1309.28Z" transform="translate(-240 540)"/><path class="cls-13" d="M1213.32,1323.74c-.78-.86-1.52-1.73-.25-2.77a26.47,26.47,0,0,0,9.11-11.69c.85-.27,1.58-.35,1.84.82,1.35,5.87,5.11,9.87,11,13.09-5.87,2.64-9.47,6.61-11,12.34-.32,1.23-1.23.61-1.9.1A98.88,98.88,0,0,0,1213.32,1323.74Z" transform="translate(-240 540)"/><path class="cls-13" d="M657.27,198.39c.85-.27,1.56-.34,1.84.82,1.41,5.83,5,10,11.1,13-6,2.7-9.62,6.67-11.11,12.4-.32,1.23-1.23.61-1.9.1a100,100,0,0,0-8.79-11.89c-.78-.86-1.52-1.72-.25-2.77A26.47,26.47,0,0,0,657.27,198.39Z" transform="translate(-240 540)"/><path class="cls-13" d="M597.28,117.4c.85-.27,1.56-.34,1.84.82,1.41,5.83,5,10,11.1,13-6,2.71-9.62,6.68-11.11,12.41-.32,1.23-1.23.61-1.9.1a101.07,101.07,0,0,0-8.79-11.89c-.78-.86-1.52-1.73-.25-2.77A26.47,26.47,0,0,0,597.28,117.4Z" transform="translate(-240 540)"/><path class="cls-9" d="M1609.06-486c-.11-.69-1.68-1.44-.53-2,5.92-2.58,8.7-7.62,10.76-13.94.9,2.88,1.13,5.2,2.58,7.06a36.08,36.08,0,0,1,6.82,7c.35.88,3.11,1.54.49,2.71-4.93,2.2-7.69,6-9.25,11-.65,2.11-1.29.23-1.92-.08C1614.94-478,1612.83-482.63,1609.06-486Z" transform="translate(-240 540)"/><path class="cls-13" d="M277.47,212.85c-.78-.86-1.52-1.72-.25-2.77a26.38,26.38,0,0,0,9.1-11.69c.86-.27,1.58-.34,1.85.82,1.35,5.88,5.11,9.87,10.94,13.1-5.87,2.63-9.46,6.6-10.95,12.34-.32,1.22-1.23.6-1.9.09A101.07,101.07,0,0,0,277.47,212.85Z" transform="translate(-240 540)"/><path class="cls-10" d="M321.31,852.37c.87.06,1.55.26,1.78,1.31,1.26,5.94,5,9.93,11.46,13.18-7,2.16-10.12,7-11.93,12.81,0,.15-.91.05-1.39.07-2.27-5-6.36-8.73-9.69-13-1.28-2.15,1.43-1.65,1.8-2.7A45.58,45.58,0,0,0,321.31,852.37Z" transform="translate(-240 540)"/><path class="cls-10" d="M1282.16,852.37c.86.06,1.56.26,1.78,1.31,1.23,6,5,9.89,11.37,13.21-7,2.13-10,6.93-11.84,12.78,0,.15-.91.05-1.4.07-2.26-5-6.35-8.73-9.68-13-1.28-2.14,1.43-1.64,1.8-2.69A45.58,45.58,0,0,0,1282.16,852.37Z" transform="translate(-240 540)"/><path class="cls-10" d="M346.31-258.52c.86.07,1.55.26,1.77,1.31,1.24,6,5,9.89,11.37,13.22-6.94,2.13-10,6.92-11.83,12.77-.05.15-.91.05-1.4.07-2.27-5-6.36-8.73-9.68-13-1.28-2.15,1.43-1.65,1.79-2.7A45.36,45.36,0,0,0,346.31-258.52Z" transform="translate(-240 540)"/><path class="cls-10" d="M717.25-258.52c.86.07,1.55.26,1.77,1.31,1.27,5.94,5,9.94,11.47,13.19-7,2.16-10.13,7-11.93,12.8,0,.15-.91.05-1.4.07-2.27-5-6.36-8.73-9.68-13-1.28-2.15,1.43-1.65,1.79-2.7A45.36,45.36,0,0,0,717.25-258.52Z" transform="translate(-240 540)"/><path class="cls-14" d="M1332,1527l1.68-2.93c1.62,4.92,4.32,8.69,9.27,11.09-4.6,2.5-7.79,5.46-9.14,11.53-2-5.22-4.21-8.63-7.65-11.18-2.39-1.77.89-1.59,1.12-2.52C1327.75,1530.15,1329.74,1528.48,1332,1527Z" transform="translate(-240 540)"/><path class="cls-15" d="M767.1,416.13l1.68-2.94c1.62,4.94,4.32,8.71,9.34,11.14a16.78,16.78,0,0,0-9.37,11.09c-1.84-4.8-4.06-8.21-7.5-10.77-2.39-1.77.89-1.59,1.12-2.52C762.84,419.26,764.83,417.59,767.1,416.13Z" transform="translate(-240 540)"/><path class="cls-14" d="M371.16,1527l1.68-2.94c1.61,4.94,4.32,8.69,9.27,11.1-4.61,2.5-7.79,5.47-9.14,11.52-2-5.21-4.21-8.62-7.65-11.17-2.39-1.77.89-1.59,1.12-2.52C366.9,1530.15,368.89,1528.48,371.16,1527Z" transform="translate(-240 540)"/><path class="cls-14" d="M396.16,416.14c.47-.83.95-1.66,1.83-3.19,1.32,5.3,4.34,8.8,8.94,11.49-4.55,2.26-7.44,5.48-9.13,11-1.83-4.79-4.05-8.19-7.49-10.75-2.38-1.77.9-1.59,1.12-2.51C391.9,419.26,393.89,417.59,396.16,416.14Z" transform="translate(-240 540)"/><path class="cls-16" d="M1181.88,506.27c.46,4.28,3.95,6.21,7.36,9a14.92,14.92,0,0,0-8.5,10.4c-2.4-3.75-3.3-8.07-7.49-9.74-2.17-1.14-2.06-2.06.27-2.75,2.09-2,4.38-3.84,5.59-6.59.46-.88-.1-2.55,1.46-2.54C1181.76,504,1181.35,505.55,1181.88,506.27Z" transform="translate(-240 540)"/><path class="cls-17" d="M1124.15,932.89c0-.64-.07-1.27-.1-1.91,2.89-2.47,4.65-5.87,7.14-8.67.57-.12,1.35-.75,1.61.22a14,14,0,0,0,6.94,9.06c.94.53.49,1.4.15,2.14-2,2.93-5.26,4.85-6.4,8.59-.57,1.88-2.71,1.57-3.22-.18C1129.19,938.33,1126.48,935.77,1124.15,932.89Z" transform="translate(-240 540)"/><path class="cls-17" d="M1561.15-8c-1.92-1.64.45-1.94.89-2.85a16.14,16.14,0,0,1,5-5.85c.48-.83,1-1.67,2-3.48,1,5.46,4.08,8.82,8.51,11.62-4.47,2.25-7.28,5.32-8.33,9.88-1.67-.2-1.12-2-2.17-2.4C1564.59-3,1563.11-5.75,1561.15-8Z" transform="translate(-240 540)"/><path class="cls-17" d="M1520.08-178l-.09-1.91c2.89-2.47,4.65-5.86,7.14-8.67.57-.12,1.35-.75,1.61.23a14,14,0,0,0,6.94,9.06c.94.52.49,1.39.15,2.13-2,2.93-5.27,4.85-6.4,8.59-.57,1.88-2.71,1.58-3.22-.18C1525.12-172.56,1522.42-175.12,1520.08-178Z" transform="translate(-240 540)"/><path class="cls-18" d="M899.23-388.5l1.48-2.78c1.53,4.94,4.08,8.68,9.06,11.33-5,2.14-7.52,5.61-9,10.58-2.08-4.4-3.83-8.27-7.74-10.49-1.19-.68-.15-1.33.21-2C895.43-383.86,896.49-386.94,899.23-388.5Z" transform="translate(-240 540)"/><path class="cls-18" d="M1464.14,722.39l1.38-2.59c1.84,4.58,3.91,8.71,9.6,11-5.4,2.32-8,5.8-9.45,10.76-2.08-4.39-3.83-8.26-7.73-10.49-1.2-.68-.16-1.33.2-1.95C1460.34,727,1461.4,724,1464.14,722.39Z" transform="translate(-240 540)"/><path class="cls-18" d="M503.29,722.39l1.49-2.78c1.52,4.94,4.08,8.68,9.05,11.33-5,2.13-7.52,5.61-9,10.57-2.08-4.39-3.83-8.26-7.73-10.49-1.2-.68-.16-1.33.2-1.95C499.49,727,500.55,724,503.29,722.39Z" transform="translate(-240 540)"/><path class="cls-18" d="M528.29-388.5l1.48-2.78c1.53,4.94,4.08,8.68,9,11.27a14.9,14.9,0,0,0-8.78,10.91c-2.2-4.67-4-8.54-7.86-10.76-1.19-.68-.15-1.33.21-2C524.49-383.86,525.54-386.94,528.29-388.5Z" transform="translate(-240 540)"/><path class="cls-17" d="M1009.13,1529.16c.54-.37,1.26-1.83,1.71-.43,1.35,4.29,3.94,7.49,8.66,10-5.09,2.15-7.67,5.56-9.38,10.18-.85-5.27-6-7.41-7.8-11.83C1004.33,1534.21,1007.08,1532,1009.13,1529.16Z" transform="translate(-240 540)"/><path class="cls-17" d="M1405.07,418.28c.54-.37,1.29-1.84,1.7-.44,1.28,4.36,4.13,7.36,8.43,10.09-4.86,2.05-7.43,5.47-9.15,10.08-.84-5.27-6-7.41-7.79-11.83C1400.27,423.33,1403,421.1,1405.07,418.28Z" transform="translate(-240 540)"/><path class="cls-17" d="M1579.12,98.41c2.9.73,2,3.83,3.43,5.57a42.82,42.82,0,0,0,5.94,5.31c-3.8,2.53-7.25,5.22-8,11.12-2.65-4.74-4.25-8.56-8-10.78-2.07-1.23.55-1.58.76-2.42C1575.27,104.31,1577.2,101.37,1579.12,98.41Z" transform="translate(-240 540)"/><path class="cls-16" d="M1571.24,248.88c-1.73-1.58.29-1.94.89-2.76a31.39,31.39,0,0,1,5.58-7.43c1.16-.26,1.67.55,2.19,1.33.95,4.17,5.74,5.39,7.1,9.24-4.06,2-5.24,6.44-8.2,9.38a.54.54,0,0,0-.58.26C1575.47,255.85,1574.42,251.63,1571.24,248.88Z" transform="translate(-240 540)"/><path class="cls-19" d="M507.14,564.09l2.28-3.4a11.94,11.94,0,0,0,6.29,8.49c-2.38,2.46-5.85,3.75-5.88,8.83-2.6-3.47-3.69-6.45-6.28-8.25-1.72-1.19.56-1.73.8-2.63A3.88,3.88,0,0,1,507.14,564.09Z" transform="translate(-240 540)"/><path class="cls-19" d="M1468,564.09c.61-.91,1.21-1.81,2.29-3.4a11.72,11.72,0,0,0,6.48,8.53c-2.93,2.15-5.68,4-6.43,8.33-2.26-3-3.34-6-5.93-7.79-1.72-1.19.56-1.73.8-2.63A3.88,3.88,0,0,1,1468,564.09Z" transform="translate(-240 540)"/><path class="cls-20" d="M1223.08,1602.15c.64-.69,1.38-1.93,2,0,.91,3,3.12,5,6.07,7.21-3.16,1.34-5.22,3.27-6.15,6.22-.38,1.19-1.21.71-1.88.12-1.43-1.93-3.88-3.1-4.33-5.77-.81-1.13-.77-2.1.51-2.86C1220.37,1605.28,1220.93,1603.09,1223.08,1602.15Z" transform="translate(-240 540)"/><path class="cls-20" d="M658.17,491.26c.64-.68,1.38-1.92,2,0,.9,3,3.12,4.94,6.07,7.2-3.16,1.34-5.22,3.27-6.15,6.22-.38,1.2-1.21.71-1.88.12-1.43-1.93-3.88-3.1-4.33-5.77-.81-1.12-.77-2.1.51-2.86C655.46,494.39,656,492.21,658.17,491.26Z" transform="translate(-240 540)"/><path class="cls-20" d="M257.89,1609.89c-.81-1.13-.77-2.1.51-2.86,1.12-1.75,1.68-3.94,3.83-4.88.64-.69,1.38-1.93,1.95,0,.91,3,3.13,4.94,6.07,7.21-3.16,1.34-5.22,3.27-6.15,6.22-.38,1.2-1.21.71-1.88.12C260.79,1613.73,258.35,1612.56,257.89,1609.89Z" transform="translate(-240 540)"/><path class="cls-21" d="M1622.85,1311.93c-.73-.85-1.55-1.68-.51-2.84.24-2.28,2.07-3,3.77-3.84,1-1.07,1.89-4.62,3.15,0,.67,2.47,3,3.82,5.08,5.58-1.71,1.87-4.37,2.78-5.14,5.27-1.53,5-2.2.18-3.25-.25C1624.06,1315.2,1623.46,1313.56,1622.85,1311.93Z" transform="translate(-240 540)"/><path class="cls-21" d="M1061.2,194.36c1-1.07,1.86-4.61,3.16-.05.69,2.42,2.78,4,5.21,5.43-1.86,2-4.51,2.93-5.28,5.43-1.53,5-2.2.17-3.25-.26-1.89-.6-2.49-2.24-3.1-3.87-.73-.84-1.55-1.67-.51-2.84C1057.67,195.92,1059.49,195.2,1061.2,194.36Z" transform="translate(-240 540)"/><path class="cls-21" d="M665.26,1305.25c1-1.07,1.89-4.62,3.15,0,.67,2.47,3,3.82,5.08,5.58-1.71,1.87-4.37,2.78-5.14,5.27-1.53,5-2.2.17-3.25-.25-1.89-.6-2.49-2.24-3.1-3.87-.73-.85-1.55-1.68-.51-2.84C661.73,1306.81,663.56,1306.09,665.26,1305.25Z" transform="translate(-240 540)"/><path class="cls-20" d="M283.55,496.13a10.76,10.76,0,0,0,4.68-7.65c1.53,4.94,3.45,7.66,7.19,9.87-3.34,1.43-5.39,3.36-6.33,6.31-.37,1.19-1.2.69-1.87.11a62,62,0,0,1-4.9-5.48C281.86,497.89,281.4,496.5,283.55,496.13Z" transform="translate(-240 540)"/><path class="cls-22" d="M988-142.9c.44-.69.87-1.37,1.69-2.64,1.27,3.6,3,6.57,6.89,8.5-3.52,2-5.73,4.42-6.85,8-1.92-2.72-2.83-5.7-5.47-7.33-1.37-.85-.48-1.62,0-2.43A8,8,0,0,1,988-142.9Z" transform="translate(-240 540)"/><path class="cls-22" d="M592.09,968l1.69-2.63c1.28,3.6,3.06,6.56,6.89,8.5-3.51,2-5.73,4.41-6.85,8-1.92-2.72-2.83-5.7-5.47-7.33-1.37-.85-.48-1.62,0-2.43A8,8,0,0,1,592.09,968Z" transform="translate(-240 540)"/><path class="cls-22" d="M1552.94,968l1.69-2.63c1.28,3.6,3.06,6.56,6.89,8.5-3.51,2-5.73,4.41-6.85,8-1.92-2.72-2.83-5.7-5.47-7.33-1.37-.85-.48-1.62,0-2.43A8,8,0,0,1,1552.94,968Z" transform="translate(-240 540)"/><path class="cls-21" d="M1592.93,1134c.6-.4,1.39-1.48,1.82-.08a11.69,11.69,0,0,0,6.26,7.16c-3.24,2.14-6,4-6.46,8.48-2.28-3.25-3.3-6.14-5.85-7.83-1.78-1.17,0-1.83.46-2.68A13.07,13.07,0,0,1,1592.93,1134Z" transform="translate(-240 540)"/><path class="cls-21" d="M1028,23.09c.6-.4,1.4-1.48,1.82-.08.94,3.17,3,5.39,6.18,7.2-3.26,2-5.71,4.11-6.58,8.17-2.08-3-3.1-5.87-5.65-7.56-1.78-1.17,0-1.83.46-2.68A13.15,13.15,0,0,1,1028,23.09Z" transform="translate(-240 540)"/><path class="cls-21" d="M632.08,1134c.6-.4,1.4-1.48,1.82-.08.94,3.16,3,5.38,6.19,7.2-3.27,2-5.72,4.1-6.59,8.16-2.07-3-3.1-5.86-5.65-7.55-1.78-1.17,0-1.83.46-2.68A13.07,13.07,0,0,1,632.08,1134Z" transform="translate(-240 540)"/><path class="cls-23" d="M1531.12-346.51c.73.17,1-3.09,2-.36,1.05,3,3.05,5,6.08,7-2.94,2-5.78,3.86-6.39,8.49-2.15-3.59-3.54-6.52-6.23-8.44-1-.73.43-1.3.65-2C1528.53-343.36,1529-345.65,1531.12-346.51Z" transform="translate(-240 540)"/><path class="cls-23" d="M1282.16-376.51c.73.17,1-3.09,2-.35,1,2.95,3,5,6,7-2.89,2-5.6,4-6.45,8.32-2-3.39-3.42-6.31-6.11-8.23-1-.74.43-1.31.65-2C1279.56-373.35,1280-375.64,1282.16-376.51Z" transform="translate(-240 540)"/><path class="cls-23" d="M1135.18,764.37c.73.17,1-3.07,2-.35a12.18,12.18,0,0,0,6.18,6.86c-3.06,2.15-5.77,4.11-6.62,8.45-2-3.39-3.42-6.32-6.11-8.24-1-.73.44-1.3.65-2C1132.59,767.53,1133,765.24,1135.18,764.37Z" transform="translate(-240 540)"/><path class="cls-21" d="M844.19,1247.28c.65-.29,1.34-2,1.95,0,.87,3,2.91,5,6,6.87-3.12,2-5.61,4.2-6.57,7.89-2.16-2.61-3.07-5.54-5.61-7.32-2.15-1.52.74-1.86,1-2.87C841.68,1250.12,842.46,1248.36,844.19,1247.28Z" transform="translate(-240 540)"/><path class="cls-21" d="M1240.13,136.39c.65-.29,1.36-2,1.94,0,.84,3,3,5,5.87,6.95-3,2-5.48,4.12-6.44,7.81-2.17-2.61-3.07-5.53-5.61-7.32-2.15-1.51.74-1.86,1-2.87C1237.62,139.23,1238.4,137.48,1240.13,136.39Z" transform="translate(-240 540)"/><path class="cls-23" d="M278.77-31.78c.48.93,2.71,1.67.47,2.93-2.53,1.43-4,3.7-5.33,7.35-1.48-4.11-3.34-6.67-6.43-8.72,2.83-2.05,5.2-4.05,5.91-7.19,2,0,1.31,2.24,2.61,2.68A3.51,3.51,0,0,1,278.77-31.78Z" transform="translate(-240 540)"/><path class="cls-23" d="M649.71-31.78c.48.93,2.71,1.66.47,2.94-2.52,1.43-4,3.72-5.41,7.1a15.75,15.75,0,0,0-6.35-8.48c2.84-2.05,5.2-4.05,5.91-7.19,2,0,1.31,2.24,2.61,2.68A3.51,3.51,0,0,1,649.71-31.78Z" transform="translate(-240 540)"/><path class="cls-23" d="M253.78,1079.11c.48.93,2.71,1.66.46,2.93-2.52,1.44-4,3.73-5.41,7.11a15.78,15.78,0,0,0-6.35-8.49c2.84-2,5.2-4,5.92-7.18,2,0,1.3,2.24,2.61,2.68A3.51,3.51,0,0,1,253.78,1079.11Z" transform="translate(-240 540)"/><path class="cls-23" d="M1214.63,1079.11c.47.93,2.69,1.63.47,2.94-2.48,1.46-4.14,3.6-5.21,7.41-1.73-4.09-3.29-6.88-6.62-8.6,2.71-2.38,5.54-4,5.82-7.37,2.17,0,1.46,2.23,2.77,2.67A3.52,3.52,0,0,1,1214.63,1079.11Z" transform="translate(-240 540)"/><path class="cls-24" d="M1520.08-178c4.48,1.67,5.84,5.83,7.86,10.21,1.7-4.27,3.29-8.2,7.89-9.37.48,1,1.56.95,2.61,1.27-4,1.45-6.87,3.77-8.06,7.87-.41,1.41-1.2,2.91-3,2.84s-2.23-1.59-2.53-3.13c-.62-3.17-1.82-5.89-5.12-7.32C1517.82-176.46,1518.06-177.49,1520.08-178Z" transform="translate(-240 540)"/><path class="cls-24" d="M1124.15,932.89c4.47,1.67,5.83,5.83,7.85,10.2,1.7-4.26,3.29-8.19,7.89-9.36.39,1.2,1.74.61,2.68,1.53-4.08,1.19-6.94,3.5-8.13,7.61-.41,1.41-1.2,2.91-3,2.84s-2.23-1.59-2.53-3.13c-.62-3.18-1.82-5.9-5.12-7.32C1121.88,934.43,1122.12,933.4,1124.15,932.89Z" transform="translate(-240 540)"/><path class="cls-25" d="M1452-408.81c-1.11,5.36-3.79,9.56-8.9,11.95-3.06,1.06-3.06,1.06-1.68,2.81l6.54,6.32c-.44,1.81-1.28,1-2,.27-2.28-2.13-4.32-4.5-7-6.2-1.79-1.13-1.94-3.37.06-3.81,6.76-1.47,8.56-7,11.06-12.17.3-.62.42-1.9,1.56-1C1452-410.37,1451.86-409.45,1452-408.81Z" transform="translate(-240 540)"/><path class="cls-3" d="M307.22,657.29c-1.91,5.5-4.65,10.24-10.85,11.8-.72-.23-2.09-.69-1-1.38,2.13-1.4,3.29-3.72,5.06-5.12,3.2-2.53,4.77-5.7,6.34-10.83C307,654.62,307.1,656,307.22,657.29Z" transform="translate(-240 540)"/><path class="cls-3" d="M1148.09,586.3c-1.91,5.5-4.66,10.24-10.85,11.8-.72-.23-2.09-.69-1-1.38,2.13-1.4,3.28-3.72,5-5.12,3.2-2.53,4.77-5.7,6.35-10.83C1147.85,583.63,1148,585,1148.09,586.3Z" transform="translate(-240 540)"/><path class="cls-3" d="M1268.07,657.29c-1.91,5.5-4.66,10.24-10.85,11.8-.72-.23-2.09-.69-1-1.38,2.13-1.4,3.29-3.72,5.06-5.12,3.19-2.53,4.77-5.7,6.34-10.83C1267.83,654.62,1268,656,1268.07,657.29Z" transform="translate(-240 540)"/><path class="cls-3" d="M703.16-453.59c-1.91,5.5-4.66,10.23-10.85,11.8-.72-.23-2.09-.7-1-1.39,2.13-1.4,3.28-3.71,5.05-5.11,3.2-2.53,4.77-5.71,6.35-10.84C702.92-456.27,703-454.93,703.16-453.59Z" transform="translate(-240 540)"/><path class="cls-3" d="M332.22-453.59c-1.91,5.5-4.66,10.23-10.85,11.8-.72-.23-2.09-.7-1-1.39,2.13-1.4,3.28-3.71,5.05-5.11,3.2-2.53,4.77-5.71,6.34-10.84C332-456.27,332.1-454.93,332.22-453.59Z" transform="translate(-240 540)"/><path class="cls-26" d="M888,707.85c-3.17,5.43-5.67,11.51-12.7,13.25-1-.36-2.82-1.12-.78-1.93,6.8-2.7,9.54-8.35,11.61-15.26Z" transform="translate(-240 540)"/><path class="cls-26" d="M1331.94-253c-3.18,5.42-5.68,11.5-12.71,13.24-1-.36-2.82-1.11-.78-1.92,6.8-2.7,9.54-8.36,11.61-15.26C1330.85-255.33,1331.39-254.19,1331.94-253Z" transform="translate(-240 540)"/><path class="cls-26" d="M936,857.83c-3.18,5.43-5.68,11.51-12.71,13.25-1-.36-2.82-1.11-.78-1.92,6.8-2.7,9.54-8.36,11.61-15.27Z" transform="translate(-240 540)"/><path class="cls-27" d="M1015.2,1368c2.14.85,2.26,3.51,4.18,4.63,1.41.81.46,1.65-.34,2.17-1.67,1.08-2,3.42-4,4.11-2-1.1-2.74-3.24-4-5l1.25-1.86C1013,1370.51,1013.38,1368.72,1015.2,1368Z" transform="translate(-240 540)"/><path class="cls-27" d="M1411.14,257.09c2.14.85,2.25,3.52,4.18,4.63,1.41.81.46,1.65-.34,2.17-1.67,1.08-2,3.42-4,4.11-2-1.09-2.74-3.24-4-5l1.25-1.86C1408.94,259.62,1409.32,257.84,1411.14,257.09Z" transform="translate(-240 540)"/><path class="cls-28" d="M985.14,1286.22c-1.51,5.2-4.47,9.1-9.78,10.87l-3.7.78c5.45-4.2,11.73-7.72,13.08-15.65Z" transform="translate(-240 540)"/><path class="cls-28" d="M1381.08,175.34c-1.52,5.19-4.47,9.09-9.79,10.86-1.34-.27-2.44.6-4,.69,5.54-4.25,12.27-7.4,13.34-15.56C1380.81,172.67,1381,174,1381.08,175.34Z" transform="translate(-240 540)"/><path class="cls-29" d="M1209.13,352.36c-.69,7-5.43,10.69-11.07,13.68-2.36-.94-2.46-1.26-1.68-1.5,7.22-2.16,9.22-8.62,12.12-15.52C1208.84,350.84,1209,351.6,1209.13,352.36Z" transform="translate(-240 540)"/><path class="cls-30" d="M1134.11-106.58c-2,5.51-4.9,10.09-11,11.68-.85-.34-2.38-.61-.93-1.8,8.12-6.67,8.15-6.63,11.52-14.58C1133.87-109.28,1134-107.93,1134.11-106.58Z" transform="translate(-240 540)"/><path class="cls-31" d="M1642.4,351.74c-3.86-3.48-4.75-6.69-.14-9.68C1646.34,346.66,1646.34,346.66,1642.4,351.74Z" transform="translate(-240 540)"/><path class="cls-32" d="M1672.09-22.61c3.86-2.94,2.19,2.67,4.38,2.88,1.35.12,1.25,1.5,0,2.53a35.24,35.24,0,0,0-3.24,3.61c-.2-2.75-6-3.23-2.38-7.36C1670.91-21.78,1671.17-22.43,1672.09-22.61Z" transform="translate(-240 540)"/><path class="cls-29" d="M813.19,1463.25c-.69,7-5.43,10.69-11.06,13.67-2.37-.93-2.47-1.25-1.69-1.49,7.22-2.17,9.22-8.62,12.12-15.53C812.91,1461.72,813.05,1462.49,813.19,1463.25Z" transform="translate(-240 540)"/><path class="cls-33" d="M1381.36,1242.73c5.71,2.48,8.86,7.12,10.77,12.79-.09.65-.19,1.29-.36,2.45-1.8-2.8-3.31-5.29-5-7.68-1.25-1.82-2-4.08-5-4.24C1381,1246,1377.67,1244.42,1381.36,1242.73Z" transform="translate(-240 540)"/><path class="cls-34" d="M476.49,884.16c-1,2.34,1.05,2.68,2.31,3.52,4.78,3.17,8.52,7.09,9.39,13.06-.62,1-1.35,2.4-2.08.19-1.93-5.85-4.93-10.7-10.76-13.53-2-1-3.09-2.79-.26-4.44C475.5,883.42,476.3,883.43,476.49,884.16Z" transform="translate(-240 540)"/><path class="cls-30" d="M738.18,1004.31c-2,5.51-4.91,10.09-11,11.68-.85-.34-2.5-1.08-.91-1.72,6.45-2.61,9-8.1,11.45-15.08C737.93,1001.61,738.05,1003,738.18,1004.31Z" transform="translate(-240 540)"/><path class="cls-35" d="M1673,119.14c1,.2,1.34-3.06,2.17-.78.76,2.09,5.82,3.34,1.78,6.67a1.79,1.79,0,0,1-1.19,1.63c-2.5.24-4.69-2.36-4.67-5.55C1671.18,120,1672,119.48,1673,119.14Z" transform="translate(-240 540)"/><path class="cls-33" d="M420.51,1242.73c5.71,2.48,8.86,7.12,10.77,12.79-.09.65-.19,1.29-.36,2.45-1.8-2.8-3.31-5.29-4.95-7.68-1.25-1.82-2-4.08-5-4.24C420.16,1246,416.82,1244.42,420.51,1242.73Z" transform="translate(-240 540)"/><path class="cls-31" d="M1200.44,1520.06c-4-5.47-4-5.47,0-10.13,1.44,1.79,2.34,4,4.36,5.19Z" transform="translate(-240 540)"/><path class="cls-36" d="M1279,432c1.45.49.92-4.26,2.66-1.34.92,1.55,5.06,2.39,2.31,5.56-1,1.09-1.88,2.2-3.42,4,.52-3.4-5.26-3.21-2.66-7.21A1.21,1.21,0,0,1,1279,432Z" transform="translate(-240 540)"/><path class="cls-37" d="M1210.93,382.89c1.22-6.94,5-11.73,11.79-14a4.62,4.62,0,0,1,1.28-.74c1.24-.24.83.72.6,1.15a3.11,3.11,0,0,1-1.35,1.36c-5.62,2.5-9.55,6.33-10.41,12.73-.13.89-.7,1.64-1.7,1.22C1210.38,384.31,1210.82,383.51,1210.93,382.89Z" transform="translate(-240 540)"/><path class="cls-38" d="M1553.57,479.44c-4.76-3.43-4.41-6.67.08-9.51C1557.39,473,1558.34,476.24,1553.57,479.44Z" transform="translate(-240 540)"/><path class="cls-6" d="M1082.09-101.74c3.68-1.46,2.69,3,4.83,3.92,1.42.6-.64,1.64-1.27,2.43-.79,1-1.56,2-2.74,3.49-.36-3.08-4-3.67-3.59-6.85C1079.76-100.19,1081-100.93,1082.09-101.74Z" transform="translate(-240 540)"/><path class="cls-39" d="M905.58,584.81c5,3.26,3.72,6.43.16,9.58C901.63,591.26,901.17,588,905.58,584.81Z" transform="translate(-240 540)"/><path class="cls-40" d="M1107.15,1412.18c3.36-.6,3.68,2.91,4.59,4.38,1.22,2-3,2.73-3.48,5.29,0-2.89-5.84-2.82-3.11-6.87A2.84,2.84,0,0,1,1107.15,1412.18Z" transform="translate(-240 540)"/><path class="cls-36" d="M883,1542.85c1.45.49.92-4.26,2.66-1.34.92,1.54,5.06,2.39,2.31,5.56-1,1.09-1.88,2.2-3.42,4,.52-3.4-5.26-3.22-2.66-7.21A1.22,1.22,0,0,1,883,1542.85Z" transform="translate(-240 540)"/><path class="cls-6" d="M686.15,1009.15c3.69-1.46,2.69,3,4.84,3.92,1.41.6-.65,1.64-1.28,2.42-.79,1-1.55,2-2.74,3.5-.36-3.09-4-3.68-3.59-6.85C683.82,1010.7,685,1010,686.15,1009.15Z" transform="translate(-240 540)"/><path class="cls-6" d="M1647,1009.15c3.69-1.46,2.69,3,4.84,3.92,1.41.6-.65,1.64-1.28,2.42-.79,1-1.55,2-2.74,3.5-.36-3.09-4-3.68-3.59-6.85C1644.67,1010.7,1645.87,1010,1647,1009.15Z" transform="translate(-240 540)"/><path class="cls-37" d="M815,1493.78c1.22-7,5-11.73,11.79-14a4.52,4.52,0,0,1,1.28-.74c1.24-.24.83.72.6,1.15a3.06,3.06,0,0,1-1.35,1.36c-5.62,2.5-9.55,6.33-10.41,12.72-.12.9-.7,1.64-1.69,1.23C814.44,1495.2,814.88,1494.39,815,1493.78Z" transform="translate(-240 540)"/><path class="cls-41" d="M1046.18,1105.31c.72-.68,1.84-2.29,2.17-.14s4.74,2.18,2.3,5.24c-.6.75-1.18,1.5-1.77,2.26-1,2.14-1.9,2.15-2.74-.09-1-1.48-3.05-2.29-2.88-4.51A5.37,5.37,0,0,1,1046.18,1105.31Z" transform="translate(-240 540)"/><path class="cls-39" d="M1301.48-526.11c4.51,3.06,4.85,6.32.1,9.51C1297.31-519.67,1297.36-522.93,1301.48-526.11Z" transform="translate(-240 540)"/><path class="cls-31" d="M1589,1267.18c4,3.13,4.41,6.3.09,9.51C1584.57,1273.56,1584.72,1270.39,1589,1267.18Z" transform="translate(-240 540)"/><path class="cls-31" d="M1023.94,165.71c-3.61-4.52-3.61-4.52-.23-9.45C1028,159.33,1029.05,162.46,1023.94,165.71Z" transform="translate(-240 540)"/><path class="cls-31" d="M627.77,1276.61c-3.72-3.17-4-6.34.24-9.41C632.09,1270.24,633,1273.38,627.77,1276.61Z" transform="translate(-240 540)"/><path class="cls-42" d="M1257.14,670.91c5.88,2.4,8.94,7.18,10.89,12.9-.81,2.11-.94,2.18-1.4,1.37-1.06-1.85-1.8-3.91-3-5.65-1.54-2.22-2.73-4.86-6-5.44C1257,674,1254,672.48,1257.14,670.91Z" transform="translate(-240 540)"/><path class="cls-43" d="M974.06,633.09c.76-.45,1.45-2.53,2.36-.31.73,1.75,2.45,2.5,3.52,4-1.49,1.6-3.32,2.79-4.36,4.94-.31-2.78-5-3-3.37-6.64A2.59,2.59,0,0,1,974.06,633.09Z" transform="translate(-240 540)"/><path class="cls-44" d="M765.73,1340.6c3.85,5.06,3.85,5.06-.08,9.79C762.06,1345.49,762.06,1345.49,765.73,1340.6Z" transform="translate(-240 540)"/><path class="cls-44" d="M1410.55,1323.67c4.49,3.24,4.73,6.5,0,9.67C1406.81,1330.1,1406.4,1326.83,1410.55,1323.67Z" transform="translate(-240 540)"/><path class="cls-42" d="M1137.16,599.91c5.88,2.41,8.94,7.19,10.89,12.91-.82,2.1-.94,2.17-1.4,1.37-1.06-1.86-1.8-3.91-3-5.65-1.54-2.22-2.73-4.86-6-5.44C1137,603,1134,601.49,1137.16,599.91Z" transform="translate(-240 540)"/><path class="cls-45" d="M401.54-114.28c-4-3.59-4.69-6.88.24-9.91,1,1.64,2,3.59,4.14,4.52Z" transform="translate(-240 540)"/><path class="cls-45" d="M772.46-124.1c4.33,3.19,4.17,6.46,0,9.66C768.66-117.48,767.41-120.69,772.46-124.1Z" transform="translate(-240 540)"/><path class="cls-44" d="M450.36,1334.58c-4.13-6.08-4.13-6.08-.67-11.21,1.46,1.74,2.55,3.73,4.59,5C452.82,1330.17,450.73,1331.16,450.36,1334.58Z" transform="translate(-240 540)"/><path class="cls-46" d="M1055.3,526.73c-4.06-3.12-5-6.35,0-9.57C1059.08,520.28,1059.92,523.51,1055.3,526.73Z" transform="translate(-240 540)"/><path class="cls-47" d="M417.22-50.68c-1,6-4.09,10.48-9.86,12.86-2.23-.84-2.32-1.06-1.47-1.42,5.38-2.29,7.52-7.06,9.49-12,.23-.56.21-1.91,1.42-1.26C417.16-52.33,417.09-51.32,417.22-50.68Z" transform="translate(-240 540)"/><path class="cls-47" d="M788.16-50.68c-1,6-4.09,10.48-9.86,12.86-2.23-.84-2.32-1.06-1.46-1.42,5.37-2.29,7.52-7.06,9.48-12,.23-.56.22-1.91,1.42-1.26C788.1-52.33,788-51.32,788.16-50.68Z" transform="translate(-240 540)"/><path class="cls-44" d="M845.65,222.41c-4.17-3.37-4.36-6.62.29-9.48C850,215.86,850.49,219.11,845.65,222.41Z" transform="translate(-240 540)"/><path class="cls-44" d="M348.88,1319.06a14.73,14.73,0,0,0,4.4,5.35c-1.51,1.67-3.24,3-4,5C345,1324.92,345,1324.92,348.88,1319.06Z" transform="translate(-240 540)"/><path class="cls-44" d="M1312.6,1325.31c-4-3.2-4.14-6.46,0-9.66C1317,1318.85,1317.38,1322.12,1312.6,1325.31Z" transform="translate(-240 540)"/><path class="cls-42" d="M296.29,670.91c5.88,2.4,8.94,7.18,10.89,12.9-.81,2.1-.94,2.18-1.4,1.37-1.06-1.85-1.8-3.91-3-5.65-1.54-2.22-2.73-4.86-6-5.44C296.14,674,293.17,672.48,296.29,670.91Z" transform="translate(-240 540)"/><path class="cls-47" d="M392.22,1060.21c-1,6-4.09,10.48-9.86,12.86-2.22-.84-2.32-1.06-1.46-1.42,5.37-2.3,7.52-7.06,9.49-12,.22-.57.21-1.91,1.41-1.27C392.17,1058.56,392.1,1059.57,392.22,1060.21Z" transform="translate(-240 540)"/><path class="cls-47" d="M1353.07,1060.21c-1,6-4.09,10.48-9.86,12.86-2.22-.84-2.32-1.06-1.46-1.42,5.37-2.3,7.52-7.06,9.49-12,.22-.57.21-1.91,1.41-1.27C1353,1058.56,1352.94,1059.57,1353.07,1060.21Z" transform="translate(-240 540)"/><path class="cls-31" d="M1376.79,1163.68c-4.12-3.37-4.39-6.55-.08-9.53C1380.68,1158.7,1380.68,1158.7,1376.79,1163.68Z" transform="translate(-240 540)"/><path class="cls-31" d="M415.91,1154.08c4.91,3.36,3.81,6.48.07,9.54C411.92,1160.5,411.4,1157.33,415.91,1154.08Z" transform="translate(-240 540)"/><path class="cls-42" d="M692.23-440c5.88,2.41,8.94,7.18,10.89,12.91-.82,2.1-.94,2.17-1.4,1.36-1.06-1.85-1.8-3.91-3-5.65-1.54-2.21-2.73-4.86-6-5.44C692.08-436.91,689.11-438.41,692.23-440Z" transform="translate(-240 540)"/><path class="cls-42" d="M574.25-523c5.87,2.41,8.94,7.18,10.89,12.9-.82,2.11-.94,2.18-1.4,1.37-1.06-1.85-1.8-3.91-3-5.65-1.54-2.22-2.73-4.86-6-5.44C574.1-519.91,571.13-521.4,574.25-523Z" transform="translate(-240 540)"/><path class="cls-42" d="M321.29-440c5.87,2.41,8.94,7.18,10.89,12.91-.82,2.1-.94,2.17-1.4,1.36-1.06-1.85-1.8-3.91-3-5.65-1.54-2.22-2.73-4.86-6-5.44C321.14-436.91,318.17-438.41,321.29-440Z" transform="translate(-240 540)"/><path class="cls-48" d="M1186.75,68.13a15.94,15.94,0,0,1-9.84-11c.26-1-.39-2.31,1.21-3.47,1.13,5.6,4.52,9.37,9.11,12.24C1188.46,66.71,1188.73,67.79,1186.75,68.13Z" transform="translate(-240 540)"/><path class="cls-43" d="M1370-477.8c.76-.45,1.45-2.53,2.36-.31.72,1.76,2.45,2.5,3.45,3.91-1.46,1.65-2.86,3.22-4.61,5.21,0-3-4.68-3.22-3-6.83A2.58,2.58,0,0,1,1370-477.8Z" transform="translate(-240 540)"/><path class="cls-31" d="M440.93,52.75c-4.44-3.39-4.05-6.54,0-9.54C445.14,46.33,445.29,49.5,440.93,52.75Z" transform="translate(-240 540)"/><path class="cls-31" d="M811.79,52.78c-3.35-3.2-4.89-6.38.08-9.48C815.91,46.06,816.86,49.18,811.79,52.78Z" transform="translate(-240 540)"/><path class="cls-49" d="M766.7,1179.93c5.48,3.71,10.57,7.72,11.51,14.93a7.18,7.18,0,0,1-1.51,1.27c-1.05.48-.72-.41-.89-1-1.47-4.74-2.47-9.83-8.37-11.41C767.27,1183.71,764.63,1181.66,766.7,1179.93Z" transform="translate(-240 540)"/><path class="cls-50" d="M884.21-240.55c-1.12,6.59-4.39,11.46-10.91,13.76-2.15-.65-2.24-.84-1.74-1.06,6-2.65,9.24-7.5,11.38-13.49C883.46-242.78,883.88-241,884.21-240.55Z" transform="translate(-240 540)"/><path class="cls-51" d="M1117-180c1.08,0,1.45-3.47,2.52-1.08.78,1.73,5,2.11,2.45,5.24-1,1.25-2.09,2.44-3.65,4.25.08-3.17-4.94-3.72-2.35-7.39A1.12,1.12,0,0,1,1117-180Z" transform="translate(-240 540)"/><path class="cls-52" d="M1135.45-459.52c3.7,3.2,4.88,6.58-.06,9.68C1130.76-453,1131.07-456.4,1135.45-459.52Z" transform="translate(-240 540)"/><path class="cls-50" d="M513.27-240.55c-1.12,6.59-4.39,11.46-10.91,13.76-2.16-.65-2.24-.84-1.74-1.06,6-2.65,9.23-7.5,11.38-13.49C512.52-242.78,512.94-241,513.27-240.55Z" transform="translate(-240 540)"/><path class="cls-49" d="M1162.64,69.05c5.48,3.7,10.56,7.71,11.51,14.92a7.18,7.18,0,0,1-1.51,1.27c-1.05.48-.72-.41-.9-1-1.46-4.74-2.47-9.82-8.37-11.41C1163.21,72.82,1160.57,70.77,1162.64,69.05Z" transform="translate(-240 540)"/><path class="cls-52" d="M739.86,661.24c-5.36-3.56-3.91-6.81-.3-10.12,1.14,1.75,1.86,3.85,4.74,4.76C742.16,657.77,740.53,659.29,739.86,661.24Z" transform="translate(-240 540)"/><path class="cls-31" d="M1625-304.8c3.45-.73,3.85,2.89,4.62,4.34,1,1.91-2.93,2.79-3.6,5.24-.63-2.69-4.55-3.17-3.7-6.48A5.68,5.68,0,0,1,1625-304.8Z" transform="translate(-240 540)"/><path class="cls-50" d="M1449.12,870.34c-1.11,6.58-4.39,11.46-10.91,13.76-2.15-.65-2.24-.84-1.74-1.06,6-2.65,9.24-7.51,11.39-13.49C1448.37,868.11,1448.79,869.85,1449.12,870.34Z" transform="translate(-240 540)"/><path class="cls-41" d="M1442.12-5.57c1.05-1.64,2.32-1.48,2.44.29.14,2,4.61,2,2,4.85-1,1.08-1.94,2.2-3.18,3.61-1-2.29-3.49-3.45-4.17-6A5.37,5.37,0,0,1,1442.12-5.57Z" transform="translate(-240 540)"/><path class="cls-53" d="M496.19-312.72c3.53-1.42,2.88,2.93,5,3.75,1,.4-.72,1.36-1.25,2.05-.81,1-1.6,2.06-2.88,3.72,0-3.14-5.65-3.82-2-7.73A1.74,1.74,0,0,1,496.19-312.72Z" transform="translate(-240 540)"/><path class="cls-51" d="M721,930.92c1.08,0,1.46-3.47,2.52-1.09.78,1.74,5,2.11,2.46,5.25-1,1.25-2.1,2.44-3.66,4.25.08-3.17-4.94-3.72-2.35-7.39A1.13,1.13,0,0,1,721,930.92Z" transform="translate(-240 540)"/><path class="cls-54" d="M727.5,1017.73c5.94,2.26,8.49,7.36,10.71,12.74l-.34,2.62c-1.65-2.65-2.88-5-4.44-7.06s-2.2-5.13-5.7-4.83C727.82,1020,724.16,1019.12,727.5,1017.73Z" transform="translate(-240 540)"/><path class="cls-55" d="M1629.47,754.09c3.78,5.23,3.78,5.23.27,9.82C1625.77,759.53,1625.77,759.53,1629.47,754.09Z" transform="translate(-240 540)"/><path class="cls-45" d="M1338.79,988.3c4,3.37.87,5.66-1.46,8.4-1.85-2.79-5.82-4.93-1.35-8.69C1337.11,986.27,1338.07,986.09,1338.79,988.3Z" transform="translate(-240 540)"/><path class="cls-31" d="M264.83,399.12a17.82,17.82,0,0,0,4.07,5.25L264.67,409C260.21,405.77,260.35,402.41,264.83,399.12Z" transform="translate(-240 540)"/><path class="cls-31" d="M635.35,408.94c-4-3.25-3.74-6.57.18-9.76C638.57,402.32,641.27,405.55,635.35,408.94Z" transform="translate(-240 540)"/><path class="cls-45" d="M378,988.3c4,3.37.86,5.66-1.47,8.4-1.85-2.79-5.82-4.93-1.35-8.69C376.26,986.27,377.22,986.09,378,988.3Z" transform="translate(-240 540)"/><path class="cls-40" d="M1158.2,238.26c4.77,3.35,4.29,6.53,0,9.51C1154.05,244.66,1154,241.45,1158.2,238.26Z" transform="translate(-240 540)"/><path class="cls-56" d="M1157.08-18.73c3.56-2.16,2.55,2.59,4.67,3.17,1.72.48-.1,1.66-.78,2.45-.85,1-1.6,2.06-2.82,3.66-.08-3-5.86-3.47-2.27-7.53A1.8,1.8,0,0,1,1157.08-18.73Z" transform="translate(-240 540)"/><path class="cls-57" d="M774.05-376.91c1-1.5,2.38-1.71,2.48.21s4.65,2,2,4.9c-1.06,1.18-2.1,2.38-3.77,4.27.6-3.45-4.78-3.58-2.55-7.3A3,3,0,0,1,774.05-376.91Z" transform="translate(-240 540)"/><path class="cls-55" d="M1064.84-356.43c3.67,3.08,4.47,6.24,0,9.44C1060.58-350,1059.78-353.11,1064.84-356.43Z" transform="translate(-240 540)"/><path class="cls-58" d="M1006.94,934.39c1.62,1.41,2,4,4.38,4.83l-4.36,4.93C1002.46,940.94,1002.38,937.69,1006.94,934.39Z" transform="translate(-240 540)"/><path class="cls-53" d="M1663-405.36c2.79,3.49,6.44,6.92.35,10.17C1658.79-398.18,1659.16-401.63,1663-405.36Z" transform="translate(-240 540)"/><path class="cls-40" d="M366.33,194.26c4.87,3.28,3.86,6.47.15,9.59C362.46,200.74,361.89,197.55,366.33,194.26Z" transform="translate(-240 540)"/><path class="cls-51" d="M687.83-528.57c3.66,3,5,6.16-.11,9.34C683.59-522.18,683.33-525.37,687.83-528.57Z" transform="translate(-240 540)"/><path class="cls-53" d="M997.17-505.59c.81-.06,1.49-2.91,2.18-.5.59,2,4.44,2.47,2.58,5.35a33.93,33.93,0,0,1-3.6,3.92c.24-2.89-5.69-3.08-2.45-7.11A1.67,1.67,0,0,1,997.17-505.59Z" transform="translate(-240 540)"/><path class="cls-50" d="M476.49,884.16l-1.4-1.2c5.7-2,9.2-6,11.05-11.64.53-1.63.64-1.6,2.13-1C486.92,877.14,483.84,882.47,476.49,884.16Z" transform="translate(-240 540)"/><path class="cls-53" d="M867.07-312.83c3-.52,4.34,2.41,4.92,3.86.81,2.05-3,2.87-3.64,5.3-.35-2.68-6-3.37-2.37-7.26A2,2,0,0,1,867.07-312.83Z" transform="translate(-240 540)"/><path class="cls-40" d="M1193.19,288.76c-4-3.18-4.2-6.4.1-9.47C1197.59,282.42,1197.93,285.64,1193.19,288.76Z" transform="translate(-240 540)"/><path class="cls-53" d="M1432,798.06c3-.53,4.35,2.41,4.92,3.86.82,2.05-3,2.87-3.64,5.29-.35-2.68-6-3.37-2.36-7.26A1.94,1.94,0,0,1,1432,798.06Z" transform="translate(-240 540)"/><path class="cls-53" d="M471.13,798.06c3-.53,4.35,2.41,4.92,3.86.82,2.05-3,2.87-3.64,5.29-.35-2.68-6-3.37-2.36-7.26A2,2,0,0,1,471.13,798.06Z" transform="translate(-240 540)"/><path class="cls-56" d="M761.15,1092.16c3.56-2.16,2.55,2.59,4.66,3.17,1.72.48-.1,1.66-.78,2.45-.85,1-1.6,2.06-2.82,3.65-.08-3-5.86-3.46-2.27-7.52A1.79,1.79,0,0,1,761.15,1092.16Z" transform="translate(-240 540)"/><path class="cls-58" d="M1402.78-176.58c1.72,1.5,2.08,4.09,4.48,4.91l-4.44,5C1399.25-171.46,1399.25-171.46,1402.78-176.58Z" transform="translate(-240 540)"/><path class="cls-40" d="M1504.23,298.28c4.28,3.12,4.68,6.33-.08,9.48C1500,304.6,1500,301.39,1504.23,298.28Z" transform="translate(-240 540)"/><path class="cls-46" d="M1451.93,252c1.07.06,1.25-3.14,2.06-1.26s4.93,2.52,2.76,5.68a41.94,41.94,0,0,1-3.52,4c-.42-2.81-3.43-3.62-4-6.19A3.08,3.08,0,0,1,1451.93,252Z" transform="translate(-240 540)"/><path class="cls-40" d="M747.06,217.61c-3.71-3.14-3.87-6.36.43-9.41C750.69,211.28,752.78,214.45,747.06,217.61Z" transform="translate(-240 540)"/><path class="cls-40" d="M475.31,216.79c-4.12-3.12-4.2-6.33,0-9.53C479.67,210.4,480.08,213.61,475.31,216.79Z" transform="translate(-240 540)"/><path class="cls-54" d="M1123.44-93.15c5.93,2.25,8.49,7.35,10.7,12.73-.08.66-.16,1.31-.33,2.63-1.65-2.66-2.89-5-4.45-7.06s-2.19-5.14-5.69-4.84C1123.76-90.85,1120.1-91.77,1123.44-93.15Z" transform="translate(-240 540)"/><path class="cls-57" d="M403.11-376.91c1-1.49,2.38-1.71,2.47.21s4.66,2,2,4.9c-1.07,1.18-2.11,2.38-3.77,4.27.6-3.45-4.78-3.58-2.55-7.3A3,3,0,0,1,403.11-376.91Z" transform="translate(-240 540)"/><path class="cls-55" d="M668.61,754.44c5,3.37,3.91,6.5.16,9.5C664.25,760.8,664.62,757.56,668.61,754.44Z" transform="translate(-240 540)"/><path class="cls-57" d="M1339,734c1-1.5,2.38-1.72,2.48.2s4.66,2,2,4.91c-1.07,1.18-2.11,2.38-3.78,4.27.6-3.46-4.78-3.58-2.55-7.3A2.94,2.94,0,0,1,1339,734Z" transform="translate(-240 540)"/><path class="cls-46" d="M1056,1362.91c1.07.06,1.25-3.14,2-1.26s4.93,2.52,2.76,5.68a43.18,43.18,0,0,1-3.51,4c-.43-2.81-3.44-3.62-4-6.2A3.08,3.08,0,0,1,1056,1362.91Z" transform="translate(-240 540)"/><path class="cls-55" d="M1562.08,605.29c.84-1.25,1.71-2.1,2.8-.21A1.9,1.9,0,0,1,1566,607c4.17,3.92-2.72,4.11-2.28,6.93-.48-2.64-6.08-2.89-3-6.94A1.7,1.7,0,0,1,1562.08,605.29Z" transform="translate(-240 540)"/><path class="cls-51" d="M291.81,582.31c3.77,3,4.79,6.17.25,9.42C287.84,587.41,287.84,587.41,291.81,582.31Z" transform="translate(-240 540)"/><path class="cls-51" d="M1252.64,582.3c4.2,3.14,4.46,6.34,0,9.51C1248.13,588.65,1248.73,585.45,1252.64,582.3Z" transform="translate(-240 540)"/><path class="cls-51" d="M316.8-518.79c-3.45-3.39-4.93-6.6-.07-9.62C320.78-524.13,320.78-524.13,316.8-518.79Z" transform="translate(-240 540)"/><path class="cls-53" d="M601.23,605.3c.81-.06,1.49-2.91,2.18-.5.59,2,4.44,2.47,2.58,5.35a33.11,33.11,0,0,1-3.6,3.91c.25-2.88-5.69-3.07-2.45-7.1A1.67,1.67,0,0,1,601.23,605.3Z" transform="translate(-240 540)"/><path class="cls-59" d="M1666.51-135.9c3.26,3.67,5.57,7-.07,9.8C1663-130.45,1663-130.45,1666.51-135.9Z" transform="translate(-240 540)"/><path class="cls-57" d="M378.11,734c1-1.49,2.38-1.72,2.48.2s4.66,2,2,4.91c-1.07,1.18-2.11,2.38-3.78,4.27.6-3.45-4.78-3.58-2.55-7.3A3,3,0,0,1,378.11,734Z" transform="translate(-240 540)"/><path class="cls-40" d="M797.4,1399.92c-3.5-3.43-5-6.58-.19-9.61C801.19,1394.69,801.19,1394.69,797.4,1399.92Z" transform="translate(-240 540)"/><path class="cls-60" d="M588.42,131.86a18.07,18.07,0,0,1,8.79,11.89c-.1,1-.2,1.93-.38,3.6-2.68-6.6-5.23-12.58-11.81-15.71Z" transform="translate(-240 540)"/><path class="cls-61" d="M1063.13,1227.19c-1.49,1.66-3.2,2.75-4.06,5.19-1.66-2.11-3.88-3.72-4-5.52-.15-1.64,3.06-2.57,3.3-5.57C1060.15,1223.77,1061.21,1225.83,1063.13,1227.19Z" transform="translate(-240 540)"/><path class="cls-60" d="M1213.32,1323.74a18.07,18.07,0,0,1,8.79,11.89c-.1,1-.2,1.93-.37,3.59-2.61-6.66-5.43-12.41-11.82-15.7Z" transform="translate(-240 540)"/><path class="cls-40" d="M1536.77,1482.3l-4.18,4.67c-4.41-3.17-4.27-6.41,0-9.65Z" transform="translate(-240 540)"/><path class="cls-62" d="M1147.9-93.91a16.62,16.62,0,0,1-11.1-13.71c.86-.94,1.69-1.14,2.07.33,1.28,5,3.81,9,8.9,11C1148.87-95.87,1148.83-94.76,1147.9-93.91Z" transform="translate(-240 540)"/><path class="cls-63" d="M1206-534.82c-1.62,6-4.17,11.21-10.81,13-2-.44-1.71-1.33-.26-2a15.54,15.54,0,0,0,9-10.89c.45-1.87.81-1.86,1.87-1.51C1206-536.16,1206-535.31,1206-534.82Z" transform="translate(-240 540)"/><path class="cls-60" d="M277.47,212.85a18.07,18.07,0,0,1,8.79,11.89c-.1,1-.2,1.94-.38,3.59-2.6-6.66-5.43-12.41-11.81-15.7Z" transform="translate(-240 540)"/><path class="cls-60" d="M648.41,212.85a18.07,18.07,0,0,1,8.79,11.89l-.36,3.49c-2.75-6.46-5.21-12.5-11.83-15.6Z" transform="translate(-240 540)"/><path class="cls-60" d="M252.47,1323.74a18.07,18.07,0,0,1,8.79,11.89c-.1,1-.2,1.93-.37,3.59-2.6-6.66-5.43-12.41-11.81-15.7Z" transform="translate(-240 540)"/><path class="cls-61" d="M1454.79,111.28c3.45,3.37,4.75,6.61-.25,9.63C1450.75,117.75,1450.31,114.48,1454.79,111.28Z" transform="translate(-240 540)"/><path class="cls-40" d="M968,366.21c.73,2.37,2.61,3.53,4.07,5.28a16.34,16.34,0,0,0-4.2,4.73C963.38,372.93,963.27,369.7,968,366.21Z" transform="translate(-240 540)"/><path class="cls-40" d="M571.58,1487c-3.88-3.21-4-6.44,0-9.57C575.94,1480.56,576.52,1483.79,571.58,1487Z" transform="translate(-240 540)"/><path class="cls-62" d="M752,1017a16.62,16.62,0,0,1-11.1-13.71c.86-.94,1.7-1.14,2.07.33,1.28,5,3.82,9,8.9,11C752.93,1015,752.9,1016.12,752,1017Z" transform="translate(-240 540)"/><path class="cls-64" d="M707.48-244.13a18.18,18.18,0,0,1,9.68,13c-1.3,1.42-2.24.47-2.46-.72-.87-4.65-4-7.34-7.68-9.77C705.58-242.6,705.24-243.69,707.48-244.13Z" transform="translate(-240 540)"/><path class="cls-58" d="M959.88,963.21c-3.92-3.15-4.55-6.32,0-9.56l4.11,4.79Z" transform="translate(-240 540)"/><path class="cls-65" d="M284-323.48c-3.43-3.18-5.13-6.31.11-9.23C288.16-329.93,288.77-326.85,284-323.48Z" transform="translate(-240 540)"/><path class="cls-65" d="M654.81-332.83c4.79,3.19,4.4,6.25.35,9.22C651.09-328.29,651.09-328.29,654.81-332.83Z" transform="translate(-240 540)"/><path class="cls-56" d="M1318-323.95c3.14,3.79-3,3.93-2.54,6.74-2.29-2.66-5.73-4.63-1.52-8.71,2.56-2.47,2,1,3,.93A1.19,1.19,0,0,1,1318-323.95Z" transform="translate(-240 540)"/><path class="cls-64" d="M1272.39,866.75a18.15,18.15,0,0,1,9.68,13c-1.3,1.42-2.24.47-2.46-.72-.86-4.65-4-7.34-7.67-9.77C1270.49,868.29,1270.15,867.2,1272.39,866.75Z" transform="translate(-240 540)"/><path class="cls-58" d="M1356-157.35a14.55,14.55,0,0,0,4.16,4.69l-4.36,5C1352.07-150.88,1351.07-154.06,1356-157.35Z" transform="translate(-240 540)"/><path class="cls-64" d="M311.54,866.76a18.15,18.15,0,0,1,9.69,13c-1.31,1.42-2.25.47-2.47-.72-.86-4.65-4-7.34-7.67-9.77C309.64,868.28,309.3,867.2,311.54,866.76Z" transform="translate(-240 540)"/><path class="cls-56" d="M922.09,786.94c3.14,3.79-3,3.93-2.53,6.74C917.26,791,913.82,789,918,785c2.56-2.48,2,1,3,.93A1.19,1.19,0,0,1,922.09,786.94Z" transform="translate(-240 540)"/><path class="cls-65" d="M1219.94,778.1c3.76,3.09,5,6.19-.19,9.12C1216.57,784.39,1214.72,781.36,1219.94,778.1Z" transform="translate(-240 540)"/><path class="cls-64" d="M336.54-244.13a18.18,18.18,0,0,1,9.68,13c-1.3,1.42-2.24.47-2.46-.72-.87-4.65-4-7.34-7.68-9.77C334.64-242.6,334.3-243.69,336.54-244.13Z" transform="translate(-240 540)"/><path class="cls-65" d="M259,787.43c-3.39-3.19-5-6.31,0-9.34C263.15,780.94,263.84,784,259,787.43Z" transform="translate(-240 540)"/><path class="cls-66" d="M1161.62,599.18c-6.19-2.14-9.44-6.73-10.77-12.92.31-1,1.33-2.24,1.67-.61,1.13,5.42,4.6,8.65,9.07,11.23C1162.79,597.57,1162.65,598.39,1161.62,599.18Z" transform="translate(-240 540)"/><path class="cls-66" d="M345.75-440.72c-6.19-2.14-9.44-6.72-10.77-12.92.31-1,1.33-2.23,1.67-.61,1.13,5.43,4.6,8.65,9.07,11.23C346.91-442.33,346.78-441.5,345.75-440.72Z" transform="translate(-240 540)"/><path class="cls-67" d="M1438.46,1411.12c-5.4-2.65-8.88-6.75-9.73-12.85.84-.94,1.67-1.23,2.09.28,1.31,4.67,3.75,8.34,8.29,10.56C1441.14,1410.11,1439.75,1410.78,1438.46,1411.12Z" transform="translate(-240 540)"/><path class="cls-66" d="M320.75,670.17c-6.18-2.14-9.44-6.73-10.77-12.92.31-1,1.33-2.23,1.67-.61,1.13,5.42,4.61,8.65,9.07,11.23C321.92,668.56,321.78,669.39,320.75,670.17Z" transform="translate(-240 540)"/><path class="cls-68" d="M1578.07,380.29c-1.16,5.92-4,10.52-9.86,12.85-.68-.25-2.11-.83-1.13-1.35,5-2.66,7.43-7.06,9.42-12C1576.74,379.22,1577.64,379.77,1578.07,380.29Z" transform="translate(-240 540)"/><path class="cls-69" d="M965.34,1042.79c5.11,2.5,7.93,6.84,9.72,12,0,.49.09,1.2-.18,1.43-1.5,1.28-1.26-.54-1.62-1-2.38-3.44-3.13-8.24-8.27-9.34C963.45,1045.53,963.54,1045,965.34,1042.79Z" transform="translate(-240 540)"/><path class="cls-66" d="M716.69-440.72c-6.18-2.14-9.44-6.72-10.77-12.92.31-1,1.33-2.23,1.67-.61,1.13,5.43,4.6,8.65,9.07,11.23C717.86-442.33,717.72-441.5,716.69-440.72Z" transform="translate(-240 540)"/><path class="cls-30" d="M1282.16,852.37c-.54,5.34-3.06,9.33-8,11.69-.6-.45-3.84.5-1.14-1.67,3.51-2.83,6.33-5.79,7.27-10.48C1280.75,849.8,1281.78,851.1,1282.16,852.37Z" transform="translate(-240 540)"/><path class="cls-66" d="M1281.6,670.17c-6.18-2.14-9.44-6.73-10.77-12.92.31-1,1.33-2.23,1.67-.61,1.13,5.42,4.61,8.65,9.07,11.23C1282.77,668.56,1282.63,669.39,1281.6,670.17Z" transform="translate(-240 540)"/><path class="cls-30" d="M321.31,852.37c-.54,5.34-3.06,9.33-8,11.69-.6-.44-3.83.5-1.14-1.67,3.51-2.83,6.33-5.79,7.27-10.48C319.9,849.8,320.93,851.1,321.31,852.37Z" transform="translate(-240 540)"/><path class="cls-69" d="M1361.28-68.1c5.1,2.5,7.93,6.85,9.71,12,0,.49.1,1.2-.17,1.43-1.5,1.28-1.26-.53-1.62-1-2.39-3.43-3.13-8.24-8.28-9.34C1359.38-65.36,1359.48-65.93,1361.28-68.1Z" transform="translate(-240 540)"/><path class="cls-67" d="M477.62,1411.12c-5.41-2.65-8.89-6.75-9.74-12.85.84-.94,1.67-1.23,2.09.28,1.32,4.67,3.75,8.34,8.29,10.56C480.29,1410.11,478.89,1410.78,477.62,1411.12Z" transform="translate(-240 540)"/><path class="cls-30" d="M346.31-258.52c-.54,5.35-3.07,9.33-8,11.69-.59-.44-3.83.5-1.14-1.67,3.52-2.83,6.34-5.79,7.28-10.47C344.89-261.09,345.93-259.79,346.31-258.52Z" transform="translate(-240 540)"/><path class="cls-67" d="M502.61,300.23c-5.4-2.65-8.89-6.75-9.73-12.85.83-.93,1.66-1.23,2.09.28,1.31,4.68,3.74,8.34,8.29,10.57C505.29,299.22,503.89,299.89,502.61,300.23Z" transform="translate(-240 540)"/><path class="cls-67" d="M873.55,300.23c-5.4-2.65-8.88-6.75-9.73-12.85.84-.93,1.66-1.23,2.09.28,1.31,4.68,3.75,8.34,8.29,10.57C876.23,299.22,874.83,299.89,873.55,300.23Z" transform="translate(-240 540)"/><path class="cls-30" d="M717.25-258.52c-.54,5.35-3.06,9.33-8,11.69-.59-.44-3.83.5-1.13-1.67,3.51-2.83,6.33-5.79,7.27-10.47C715.84-261.09,716.87-259.79,717.25-258.52Z" transform="translate(-240 540)"/><path class="cls-70" d="M1056,702.09c-1.11,5.37-3.79,9.55-8.9,11.94l-3.67-.2c5.92-2.21,8.41-6.53,10.49-11.22C1054.45,701.51,1054.48,701.52,1056,702.09Z" transform="translate(-240 540)"/><path class="cls-71" d="M810.06,576.07c-1.62,6-4.16,11.2-10.81,13-2-.46-1.7-1.49-.23-2,5.4-1.92,7.93-6,9.26-11.27.36-1.43.59-1.45,1.61-1.14C810.07,574.71,810,575.58,810.06,576.07Z" transform="translate(-240 540)"/><path class="cls-72" d="M1344.85-238.67a16.67,16.67,0,0,1-10.94-11.2c.06-.95.12-1.91.22-3.75,2.1,5.56,5,9.36,9.37,11.92C1344.79-240.94,1345.69-240.26,1344.85-238.67Z" transform="translate(-240 540)"/><path class="cls-72" d="M948.91,872.22A16.64,16.64,0,0,1,938,861c0-1,.11-1.91.22-3.75,2.09,5.56,5,9.36,9.36,11.91C948.86,869.94,949.75,870.62,948.91,872.22Z" transform="translate(-240 540)"/><path class="cls-72" d="M900.92,722.23A16.67,16.67,0,0,1,890,711c.06-.95.11-1.91.22-3.74,2.1,5.55,5,9.36,9.37,11.91C900.86,720,901.76,720.64,900.92,722.23Z" transform="translate(-240 540)"/><path class="cls-73" d="M1382,37.06c-1.1,5-4.84,7.69-9,10l-3.49-.16c6.11-3,9.64-7.36,12.26-14C1381.86,35.13,1381.9,36.1,1382,37.06Z" transform="translate(-240 540)"/><path class="cls-73" d="M986,1147.94c-1.1,5-4.86,7.69-9,10l-3.49-.15c6.11-3,9.65-7.36,12.26-14C985.92,1146,986,1147,986,1147.94Z" transform="translate(-240 540)"/><path class="cls-74" d="M696.87,842A17.26,17.26,0,0,1,687,830.11c.13-.64.06-1.46.44-1.89.76-.84,1.23.09,1.34.62a16.53,16.53,0,0,0,9,11.79C699,841.24,697.59,841.79,696.87,842Z" transform="translate(-240 540)"/><path class="cls-75" d="M861.06,288.09c-1.47,5.24-4.37,9.22-9.68,11.12-.14-.28-.46-.76-.4-.81,4.47-3.87,8.73-7.87,10.08-14.16Z" transform="translate(-240 540)"/><path class="cls-74" d="M1657.72,842a17.26,17.26,0,0,1-9.88-11.93c.13-.64.06-1.46.44-1.89.75-.84,1.23.09,1.34.62a16.53,16.53,0,0,0,9,11.79C1659.82,841.24,1658.44,841.79,1657.72,842Z" transform="translate(-240 540)"/><path class="cls-76" d="M998.81,1159a15.83,15.83,0,0,1-8.83-10c0-1,.09-1.91.14-2.86,2.28,4.57,5.07,8.43,9.34,11.16C1000.88,1158.17,1000,1158.78,998.81,1159Z" transform="translate(-240 540)"/><path class="cls-74" d="M1092.81-268.85a17.24,17.24,0,0,1-9.88-11.93c.13-.64.06-1.46.44-1.88.75-.84,1.23.08,1.34.62a16.53,16.53,0,0,0,9,11.78C1094.91-269.64,1093.53-269.09,1092.81-268.85Z" transform="translate(-240 540)"/><path class="cls-76" d="M1394.75,48.12a15.79,15.79,0,0,1-8.83-10c0-1,.09-1.91.14-2.87,2.27,4.57,5.06,8.43,9.34,11.16C1396.82,47.28,1395.93,47.89,1394.75,48.12Z" transform="translate(-240 540)"/><path class="cls-75" d="M490.11,288.09c-1.46,5.24-4.37,9.22-9.67,11.12-.14-.28-.46-.76-.41-.81,4.48-3.87,8.74-7.87,10.08-14.16Z" transform="translate(-240 540)"/><path class="cls-75" d="M1426,1399c-1.47,5.24-4.37,9.22-9.68,11.12-.14-.28-.46-.76-.4-.81,4.47-3.87,8.73-7.87,10.08-14.16Z" transform="translate(-240 540)"/><path class="cls-75" d="M465.12,1399c-1.47,5.23-4.37,9.22-9.68,11.12-.14-.28-.46-.76-.4-.81,4.47-3.87,8.73-7.87,10.08-14.16Z" transform="translate(-240 540)"/><path class="cls-77" d="M1609.06-486c4.82,2.53,7.26,6.88,9,11.79-.57,1.64-1.35,2.93-2.06.17-1.37-5.35-4.76-8.94-9.58-11.35C1607.2-486.83,1608.25-485.63,1609.06-486Z" transform="translate(-240 540)"/><path class="cls-78" d="M1580.84,407.84a14.23,14.23,0,0,1,8-9.86l4.28.19c-7.14,2.63-10,7.23-11.23,13.2C1580.34,410.45,1581.19,409,1580.84,407.84Z" transform="translate(-240 540)"/><path class="cls-50" d="M597.28,117.4c-.84,5.61-3.59,9.72-9.11,11.69-.59-.45-1.81-1.39-.91-1.67,5.15-1.57,7.06-5.42,8.15-10.17C595.67,116.09,596.68,116.77,597.28,117.4Z" transform="translate(-240 540)"/><path class="cls-50" d="M657.27,198.39c-.84,5.61-3.59,9.73-9.11,11.69-.59-.45-1.81-1.39-.91-1.67,5.15-1.57,7.06-5.42,8.15-10.17C655.66,197.08,656.67,197.76,657.27,198.39Z" transform="translate(-240 540)"/><path class="cls-50" d="M261.33,1309.28c-.84,5.61-3.59,9.72-9.11,11.69-.58-.45-1.81-1.4-.91-1.67,5.15-1.57,7.06-5.42,8.15-10.17C259.72,1308,260.73,1308.65,261.33,1309.28Z" transform="translate(-240 540)"/><path class="cls-50" d="M286.32,198.39c-.83,5.61-3.58,9.73-9.1,11.69-.59-.45-1.82-1.39-.91-1.67,5.15-1.57,7.06-5.42,8.14-10.17C284.72,197.08,285.73,197.76,286.32,198.39Z" transform="translate(-240 540)"/><path class="cls-50" d="M1222.18,1309.28c-.84,5.61-3.59,9.72-9.11,11.69-.58-.45-1.81-1.4-.91-1.67,5.15-1.57,7.06-5.42,8.15-10.17C1220.57,1308,1221.58,1308.65,1222.18,1309.28Z" transform="translate(-240 540)"/><path class="cls-79" d="M1009.13,1529.16c-.8,3.9-2.94,6.65-6.81,7.91-.7-.56-1.2-1.27-.36-2a23.39,23.39,0,0,0,5.49-6.65C1008.33,1526.88,1008.82,1528.26,1009.13,1529.16Z" transform="translate(-240 540)"/><path class="cls-49" d="M808.15,1483.85c2.72,2.79,4.72,6,5.11,10l-1.88,1.46Q809.76,1489.56,808.15,1483.85Z" transform="translate(-240 540)"/><path class="cls-80" d="M1578.05,239.07c-1.39,2.84-2.73,5.71-5.92,7.05l-1.32-.54c2.23-3,3.5-6.75,7.16-8.53A1.51,1.51,0,0,1,1578.05,239.07Z" transform="translate(-240 540)"/><path class="cls-79" d="M1405.07,418.28c-.81,3.89-3,6.64-6.81,7.9-.71-.56-1.21-1.27-.36-2a23.62,23.62,0,0,0,5.48-6.64C1404.27,416,1404.76,417.37,1405.07,418.28Z" transform="translate(-240 540)"/><path class="cls-81" d="M1579.12,98.41a10.19,10.19,0,0,1-5.87,8.79c-.72-.27-2.15-.92-1.6-1.28,3.09-2,4.31-5.51,6.71-8A4.8,4.8,0,0,1,1579.12,98.41Z" transform="translate(-240 540)"/><path class="cls-49" d="M1204.08,373c2.73,2.8,4.73,6,5.12,10l-1.88,1.46Z" transform="translate(-240 540)"/><path class="cls-82" d="M1527.13-188.58a10.32,10.32,0,0,1-7.14,8.67C1520.47-182.85,1525.18-188.58,1527.13-188.58Z" transform="translate(-240 540)"/><path class="cls-82" d="M1131.19,922.31a10.32,10.32,0,0,1-7.14,8.67C1124.53,928,1129.25,922.31,1131.19,922.31Z" transform="translate(-240 540)"/><path class="cls-24" d="M1561.15-8c3.11,1.33,4.81,3.84,5.84,6.92-.06,1-.12,2-.25,4.12-2-4.22-3.25-7.52-6.8-9.32C1558.58-7,1560.3-7.72,1561.15-8Z" transform="translate(-240 540)"/><path class="cls-83" d="M1628.69-487.81a14.45,14.45,0,0,1-6.82-7c.36-.58.19-2.74,1-1.58a26.81,26.81,0,0,0,7.05,6.8C1631.22-488.62,1629.55-488.13,1628.69-487.81Z" transform="translate(-240 540)"/><path class="cls-84" d="M1578.8,258.64c2-3.8,3.19-8.25,8.2-9.38,0,.62.19,1.75,0,1.8-3.82,1.17-5.23,4.13-6.06,7.68-.2.85-.69,2.42-2.26,1.32C1578.5,259.92,1578.76,259.13,1578.8,258.64Z" transform="translate(-240 540)"/><path class="cls-67" d="M1571.24,248.88c4.35,1.93,5.79,5.89,7,10a8.23,8.23,0,0,1-1.8.14,21.34,21.34,0,0,0-6.45-9.55Z" transform="translate(-240 540)"/><path class="cls-85" d="M1464.14,722.39a9.49,9.49,0,0,1-6,6.68c-.7-.26-2.08-.59-1-1.43,2.43-1.87,3.66-4.7,5.77-6.66C1464.67,719.36,1463.42,722.12,1464.14,722.39Z" transform="translate(-240 540)"/><path class="cls-85" d="M899.23-388.5a9.48,9.48,0,0,1-6,6.68c-.7-.26-2.08-.59-1-1.43,2.44-1.87,3.67-4.7,5.78-6.66C899.76-391.53,898.51-388.76,899.23-388.5Z" transform="translate(-240 540)"/><path class="cls-85" d="M528.29-388.5a9.48,9.48,0,0,1-6,6.68c-.71-.26-2.08-.59-1-1.43,2.44-1.87,3.67-4.7,5.78-6.66C528.82-391.53,527.56-388.76,528.29-388.5Z" transform="translate(-240 540)"/><path class="cls-85" d="M503.29,722.39a9.49,9.49,0,0,1-6,6.68c-.7-.26-2.08-.59-1-1.43,2.43-1.87,3.66-4.7,5.77-6.66C503.82,719.36,502.57,722.12,503.29,722.39Z" transform="translate(-240 540)"/><path class="cls-86" d="M1075.2-263a16.1,16.1,0,0,1,4.8,8.07c-.22.65-.61,1.95-.64,1.87C1078.2-256.49,1073.66-258.53,1075.2-263Z" transform="translate(-240 540)"/><path class="cls-86" d="M1640.11,847.87a16,16,0,0,1,4.8,8.07,16.77,16.77,0,0,1-.64,1.86C1643.11,854.4,1638.57,852.36,1640.11,847.87Z" transform="translate(-240 540)"/><path class="cls-86" d="M679.26,847.87a16,16,0,0,1,4.8,8.07c-.21.65-.61,1.95-.63,1.86C682.26,854.4,677.72,852.36,679.26,847.87Z" transform="translate(-240 540)"/><path class="cls-77" d="M1218.79-520.83c-3.15-.9-5.25-3.07-7-5.7,3.4,0,5.92,1.86,8,4.22C1220.72-521.35,1219.61-521,1218.79-520.83Z" transform="translate(-240 540)"/><path class="cls-77" d="M822.85,590.06c-3.14-.9-5.25-3.07-7-5.7,3.39,0,5.92,1.86,8,4.22C824.78,589.54,823.67,589.88,822.85,590.06Z" transform="translate(-240 540)"/><path class="cls-87" d="M371.16,1527a18,18,0,0,1-4.72,6c-.62-.45-3.49.49-1.27-1.72s4.35-4.29,5.75-7.18Z" transform="translate(-240 540)"/><path class="cls-87" d="M767.1,416.13a18.08,18.08,0,0,1-4.73,6c-.61-.45-3.5.5-1.26-1.72s4.35-4.29,5.74-7.18C766.93,414.2,767,415.16,767.1,416.13Z" transform="translate(-240 540)"/><path class="cls-87" d="M396.16,416.14a18.05,18.05,0,0,1-4.73,6c-.61-.46-3.48.48-1.27-1.72s4.35-4.3,5.75-7.19Z" transform="translate(-240 540)"/><path class="cls-87" d="M1332,1527a18,18,0,0,1-4.72,6c-.62-.45-3.49.49-1.27-1.72s4.35-4.29,5.75-7.18Z" transform="translate(-240 540)"/><path class="cls-88" d="M1282.16-376.51a6.24,6.24,0,0,1-3.9,4.73l-3.32.81c1.83-3,5-4.38,6.33-7.38C1281.61-379.11,1281.63-377.06,1282.16-376.51Z" transform="translate(-240 540)"/><path class="cls-88" d="M1531.12-346.51a6.24,6.24,0,0,1-3.9,4.73,5.9,5.9,0,0,0-2.9.74c1.41-2.9,4.55-4.32,5.91-7.31C1530.57-349.11,1530.59-347.07,1531.12-346.51Z" transform="translate(-240 540)"/><path class="cls-88" d="M1135.18,764.37a6.21,6.21,0,0,1-3.9,4.73l-3.31.81c1.82-3,5-4.38,6.32-7.37C1134.63,761.78,1134.65,763.82,1135.18,764.37Z" transform="translate(-240 540)"/><path class="cls-89" d="M1567.28,395.81c3.53,1.41,5.75,4.18,7.59,7.34-.11.31-.23.62-.35.92C1571.66,401.71,1568.65,399.48,1567.28,395.81Z" transform="translate(-240 540)"/><path class="cls-90" d="M1377.2,193.91a14,14,0,0,1,3.86,6.87l-.27,2.86C1380.76,199.94,1375.12,198.31,1377.2,193.91Z" transform="translate(-240 540)"/><path class="cls-90" d="M981.26,1304.8a14,14,0,0,1,3.86,6.87l-.27,2.86C984.82,1310.83,979.18,1309.2,981.26,1304.8Z" transform="translate(-240 540)"/><path class="cls-91" d="M1154.13,1230.28c-1.44,2.51-1.28,5.84-4,7.72-.75-4.15,2.29-7.16,3.53-10.82Z" transform="translate(-240 540)"/><path class="cls-92" d="M1353.92,1091.05c1.68-2.19,1.62-5.26,3.69-7.24,1.48,3.1-.95,5.64-1.46,8.42C1355.94,1093.35,1354.3,1092.32,1353.92,1091.05Z" transform="translate(-240 540)"/><path class="cls-92" d="M393.07,1091.05c1.68-2.19,1.62-5.26,3.69-7.24,1.48,3.1-.95,5.64-1.46,8.42C395.09,1093.35,393.45,1092.32,393.07,1091.05Z" transform="translate(-240 540)"/><path class="cls-92" d="M418.07-19.84c1.67-2.19,1.62-5.26,3.69-7.24,1.48,3.1-.95,5.64-1.47,8.42C420.09-17.54,418.45-18.57,418.07-19.84Z" transform="translate(-240 540)"/><path class="cls-92" d="M789-19.84c1.68-2.19,1.62-5.26,3.69-7.24,1.48,3.1-1,5.64-1.47,8.42C791-17.54,789.39-18.57,789-19.84Z" transform="translate(-240 540)"/><path class="cls-93" d="M1567-16.75a8.88,8.88,0,0,1-5,5.85c-.84-.23-1.62-.25-.57-1.46,2-2.24,4.16-4.33,5.28-7.28C1566.84-18.67,1566.93-17.71,1567-16.75Z" transform="translate(-240 540)"/><path class="cls-92" d="M1362,1079c1.19-1.67,3.07-2.29,4.79-3.15.73-.08,2-.67,1.89.55C1368.51,1078.52,1364.43,1080,1362,1079Z" transform="translate(-240 540)"/><path class="cls-92" d="M401.12,1079c1.19-1.67,3.07-2.29,4.79-3.15.73-.08,2-.67,1.89.55C407.66,1078.52,403.58,1080,401.12,1079Z" transform="translate(-240 540)"/><path class="cls-92" d="M797.06-31.85c1.19-1.67,3.07-2.28,4.79-3.15.73-.08,2-.67,1.89.56C803.6-32.36,799.52-30.89,797.06-31.85Z" transform="translate(-240 540)"/><path class="cls-92" d="M426.12-31.85c1.19-1.67,3.07-2.28,4.79-3.15.73-.08,2-.67,1.88.56C432.66-32.36,428.58-30.89,426.12-31.85Z" transform="translate(-240 540)"/><path class="cls-94" d="M632.08,1134a6.25,6.25,0,0,1-3.77,5h-3c2.23-2,4.26-3.59,5.72-5.79C631.73,1132.19,631.82,1133.55,632.08,1134Z" transform="translate(-240 540)"/><path class="cls-94" d="M1592.93,1134a6.25,6.25,0,0,1-3.77,5h-3c2.23-2,4.26-3.59,5.72-5.79C1592.58,1132.19,1592.67,1133.55,1592.93,1134Z" transform="translate(-240 540)"/><path class="cls-94" d="M1028,23.09a6.25,6.25,0,0,1-3.77,5.05h-3c2.23-2,4.26-3.59,5.72-5.78C1027.67,21.31,1027.76,22.67,1028,23.09Z" transform="translate(-240 540)"/><path class="cls-95" d="M257.89,1609.89c1.41,1.95,4.24,2.83,4.33,5.77a4.43,4.43,0,0,1-.27.89C260.35,1616.43,257.58,1611.83,257.89,1609.89Z" transform="translate(-240 540)"/><path class="cls-95" d="M653.83,499c1.4,1.95,4.23,2.84,4.33,5.77a3.71,3.71,0,0,1-.28.89C656.29,505.54,653.52,500.94,653.83,499Z" transform="translate(-240 540)"/><path class="cls-95" d="M282.91,499c1.39,1.95,4.22,2.83,4.31,5.76-.27,1.09-1.13,2.19-1.65.6-.88-2.67-3.25-4.08-4.44-6.4A1.13,1.13,0,0,1,282.91,499Z" transform="translate(-240 540)"/><path class="cls-96" d="M658.17,491.26c-1,1.84-1.38,4.18-3.83,4.88-.65-.28-2.1-.75-1.13-1.34,2.29-1.39,2.79-3.83,4.37-6.41C657.87,489.79,658,490.53,658.17,491.26Z" transform="translate(-240 540)"/><path class="cls-96" d="M1223.08,1602.15c-1,1.83-1.38,4.17-3.83,4.88-.65-.28-2.1-.75-1.12-1.35,2.28-1.38,2.79-3.82,4.36-6.4C1222.78,1600.68,1222.93,1601.41,1223.08,1602.15Z" transform="translate(-240 540)"/><path class="cls-96" d="M262.23,1602.15c-1,1.83-1.38,4.17-3.83,4.88-.65-.28-2.1-.75-1.12-1.35,2.28-1.38,2.79-3.82,4.36-6.4C261.93,1600.68,262.08,1601.41,262.23,1602.15Z" transform="translate(-240 540)"/><path class="cls-95" d="M1218.74,1609.89c1.4,1.95,4.24,2.83,4.33,5.77a3.71,3.71,0,0,1-.28.89C1221.2,1616.43,1218.43,1611.83,1218.74,1609.89Z" transform="translate(-240 540)"/><path class="cls-97" d="M844.19,1247.28a5.82,5.82,0,0,1-3.27,4.61l-1.81-.45,4.47-5.45Z" transform="translate(-240 540)"/><path class="cls-97" d="M1240.13,136.39a5.85,5.85,0,0,1-3.27,4.61l-1.81-.45,4.47-5.44C1239.72,135.53,1239.92,136,1240.13,136.39Z" transform="translate(-240 540)"/><path class="cls-98" d="M988-142.9c-.25,2.28-2.37,2.83-3.75,4.07-.69-3,2-4.07,3.34-5.95C987.76-144.15,987.89-143.53,988-142.9Z" transform="translate(-240 540)"/><path class="cls-98" d="M592.09,968c-.24,2.29-2.37,2.84-3.75,4.08-.69-3,2-4.08,3.35-5.95Z" transform="translate(-240 540)"/><path class="cls-98" d="M1552.94,968c-.25,2.29-2.37,2.84-3.75,4.08-.69-3,2-4.08,3.34-5.95C1552.67,966.73,1552.8,967.36,1552.94,968Z" transform="translate(-240 540)"/><path class="cls-99" d="M662,1311.93a6.11,6.11,0,0,1,3.1,3.87c-.21.78-1,2-1.32.86C663.33,1315,659.5,1314.54,662,1311.93Z" transform="translate(-240 540)"/><path class="cls-99" d="M1622.85,1311.93a6.08,6.08,0,0,1,3.1,3.87c-.21.79-1,2-1.32.86C1624.18,1315,1620.35,1314.54,1622.85,1311.93Z" transform="translate(-240 540)"/><path class="cls-99" d="M1057.94,201a6.14,6.14,0,0,1,3.1,3.87c-.21.79-1,2-1.32.86C1059.27,204.1,1055.44,203.65,1057.94,201Z" transform="translate(-240 540)"/><path class="cls-100" d="M1625-304.8a3.51,3.51,0,0,1-2.68,3.1c-2.28-2.2.58-2.95,1.35-4S1624.74-305.49,1625-304.8Z" transform="translate(-240 540)"/><path class="cls-101" d="M1046.18,1105.31a3.76,3.76,0,0,1-2.92,2.76c-2.18-2.34.92-2.62,1.63-3.61C1045.84,1103.14,1045.89,1104.75,1046.18,1105.31Z" transform="translate(-240 540)"/><path class="cls-102" d="M665.26,1305.25c-.31,2.21-2.89,2.19-3.77,3.84C660.38,1307.21,661.89,1305.67,665.26,1305.25Z" transform="translate(-240 540)"/><path class="cls-102" d="M1626.11,1305.25c-.31,2.21-2.89,2.19-3.77,3.84C1621.23,1307.21,1622.73,1305.68,1626.11,1305.25Z" transform="translate(-240 540)"/><path class="cls-103" d="M1647,1009.15a3.33,3.33,0,0,1-2.77,3c-2.29-2.25.8-2.55,1.44-3.61C1646.54,1007.1,1646.75,1008.47,1647,1009.15Z" transform="translate(-240 540)"/><path class="cls-103" d="M686.15,1009.15a3.32,3.32,0,0,1-2.77,3c-2.29-2.25.8-2.55,1.44-3.61C685.69,1007.1,685.9,1008.46,686.15,1009.15Z" transform="translate(-240 540)"/><path class="cls-103" d="M1082.09-101.74a3.33,3.33,0,0,1-2.77,3c-2.29-2.24.8-2.55,1.44-3.61C1081.63-103.79,1081.84-102.42,1082.09-101.74Z" transform="translate(-240 540)"/><path class="cls-101" d="M1442.12-5.57a3.75,3.75,0,0,1-2.93,2.75c-2.17-2.34.92-2.62,1.64-3.61C1441.78-7.75,1441.82-6.14,1442.12-5.57Z" transform="translate(-240 540)"/><path class="cls-102" d="M1061.2,194.36c-.31,2.21-2.89,2.2-3.77,3.84C1056.32,196.32,1057.82,194.79,1061.2,194.36Z" transform="translate(-240 540)"/><path class="cls-104" d="M1407,263a6,6,0,0,1,4,5C1408,267.62,1407.2,265.54,1407,263Z" transform="translate(-240 540)"/><path class="cls-104" d="M1011,1373.9a6,6,0,0,1,4,5C1012.06,1378.51,1011.26,1376.43,1011,1373.9Z" transform="translate(-240 540)"/><path class="cls-105" d="M1214.63,1079.11a5,5,0,0,1-2.77-2.95,5.93,5.93,0,0,1,.2-1.42c.48-1.21.67-.28,1,.14C1214.82,1076.85,1215.22,1077.88,1214.63,1079.11Z" transform="translate(-240 540)"/><path class="cls-105" d="M253.78,1079.11a5,5,0,0,1-2.77-2.95,5.93,5.93,0,0,1,.2-1.42c.48-1.21.67-.28,1,.14C254,1076.85,254.37,1077.88,253.78,1079.11Z" transform="translate(-240 540)"/><path class="cls-105" d="M278.77-31.78A5,5,0,0,1,276-34.73a6,6,0,0,1,.2-1.42c.49-1.21.67-.28,1,.14C279-34,279.37-33,278.77-31.78Z" transform="translate(-240 540)"/><path class="cls-105" d="M649.71-31.78a5,5,0,0,1-2.77-2.95,6,6,0,0,1,.21-1.42c.48-1.21.66-.28,1,.14C649.91-34,650.31-33,649.71-31.78Z" transform="translate(-240 540)"/><path class="cls-106" d="M1451.93,252a3.48,3.48,0,0,1-2.66,2.19c-1.23-2.51,1.13-2.93,2.33-4Z" transform="translate(-240 540)"/><path class="cls-107" d="M1411.14,257.09c-.7,1.55-.77,3.56-2.92,4.07C1406.71,259.57,1407.31,258.72,1411.14,257.09Z" transform="translate(-240 540)"/><path class="cls-106" d="M1056,1362.91a3.52,3.52,0,0,1-2.67,2.18c-1.23-2.5,1.14-2.92,2.33-4C1055.77,1361.68,1055.89,1362.29,1056,1362.91Z" transform="translate(-240 540)"/><path class="cls-107" d="M1015.2,1368c-.7,1.55-.77,3.55-2.92,4.06C1010.77,1370.45,1011.37,1369.61,1015.2,1368Z" transform="translate(-240 540)"/><path class="cls-108" d="M1181.88,506.27c-1.23-3-2-1.21-2.77.28.06-1.51-.53-3.8,1.62-3.78C1182.65,502.78,1181.71,505,1181.88,506.27Z" transform="translate(-240 540)"/><path class="cls-109" d="M1468,564.09a4.87,4.87,0,0,1-2.79,3c-1.11-2.1.72-3.11,1.8-4.18C1467.53,562.43,1467.76,563.58,1468,564.09Z" transform="translate(-240 540)"/><path class="cls-109" d="M507.14,564.09a4.87,4.87,0,0,1-2.79,3c-1.11-2.1.72-3.11,1.8-4.18C506.68,562.43,506.91,563.58,507.14,564.09Z" transform="translate(-240 540)"/><path class="cls-110" d="M1107.15,1412.18a3.26,3.26,0,0,1-2,2.8c-.68-.22-1.91-.35-1.13-1.32S1105.21,1410.69,1107.15,1412.18Z" transform="translate(-240 540)"/><path class="cls-111" d="M1566,607a2.16,2.16,0,0,1-1.15-1.88c.28-1.84,1-1.05,1.76-.31C1567.8,605.89,1567.67,606.63,1566,607Z" transform="translate(-240 540)"/><path class="cls-112" d="M601.23,605.3,599.94,607l-1.81-.41a9.69,9.69,0,0,1,2.13-2.39C601.15,603.64,601,604.85,601.23,605.3Z" transform="translate(-240 540)"/><path class="cls-112" d="M997.17-505.59l-1.29,1.66-1.81-.41a10.05,10.05,0,0,1,2.12-2.39C997.09-507.25,996.89-506,997.17-505.59Z" transform="translate(-240 540)"/><path class="cls-113" d="M1672.09-22.61l-1.22,1.66-1.86-.37a9.84,9.84,0,0,1,2.08-2.45C1672-24.3,1671.78-23.06,1672.09-22.61Z" transform="translate(-240 540)"/><path class="cls-112" d="M1562.08,605.29c-.43.56-.87,1.11-1.3,1.66l-1.8-.41a10.2,10.2,0,0,1,2.12-2.38C1562,603.63,1561.8,604.84,1562.08,605.29Z" transform="translate(-240 540)"/><path class="cls-114" d="M1157.08-18.73a1.78,1.78,0,0,1-1.2,1.75c-2.6-.61-.62-1.74-.14-2.39C1156.87-20.89,1156.8-19.32,1157.08-18.73Z" transform="translate(-240 540)"/><path class="cls-115" d="M974.06,633.09a2.67,2.67,0,0,1-1.85,2c-1.89-.31-1.33-1.11-.22-1.66C972.55,633.13,973,630.3,974.06,633.09Z" transform="translate(-240 540)"/><path class="cls-116" d="M378.11,734a2.48,2.48,0,0,1-1.82,2.08c-1.79-.3-1.43-1.12-.23-1.63C376.62,734.19,376.91,731.28,378.11,734Z" transform="translate(-240 540)"/><path class="cls-116" d="M1339,734a2.48,2.48,0,0,1-1.82,2.08c-1.78-.3-1.43-1.12-.23-1.63C1337.47,734.19,1337.76,731.28,1339,734Z" transform="translate(-240 540)"/><path class="cls-117" d="M1675.71,126.66c.4-.54.8-1.08,1.19-1.63.59.14,1.48.18,1.14,1s-.67,1.83-1.8,1.83C1676.07,127.9,1675.89,127.1,1675.71,126.66Z" transform="translate(-240 540)"/><path class="cls-118" d="M1673,119.14a2.43,2.43,0,0,1-1.91,2c-1.74-1.55,0-2.27.87-2.9S1672.69,118.7,1673,119.14Z" transform="translate(-240 540)"/><path class="cls-119" d="M378,988.3c-.82-1.32-1.69-2.07-2.82-.29.07-1.07-.33-2.67,1.41-2.47C377.87,985.69,378,987.08,378,988.3Z" transform="translate(-240 540)"/><path class="cls-119" d="M1338.79,988.3c-.81-1.32-1.68-2.07-2.81-.29.07-1.07-.34-2.67,1.41-2.47C1338.72,985.69,1338.89,987.08,1338.79,988.3Z" transform="translate(-240 540)"/><path class="cls-114" d="M761.15,1092.16a1.8,1.8,0,0,1-1.21,1.75c-2.59-.62-.62-1.75-.14-2.39C760.93,1090,760.86,1091.57,761.15,1092.16Z" transform="translate(-240 540)"/><path class="cls-116" d="M774.05-376.91a2.48,2.48,0,0,1-1.82,2.08c-1.79-.3-1.43-1.12-.24-1.63C772.56-376.7,772.85-379.61,774.05-376.91Z" transform="translate(-240 540)"/><path class="cls-116" d="M403.11-376.91a2.48,2.48,0,0,1-1.82,2.08c-1.79-.3-1.43-1.12-.24-1.63C401.62-376.7,401.9-379.61,403.11-376.91Z" transform="translate(-240 540)"/><path class="cls-115" d="M1370-477.8a2.67,2.67,0,0,1-1.85,2c-1.89-.31-1.34-1.11-.23-1.66C1368.49-477.76,1368.93-480.59,1370-477.8Z" transform="translate(-240 540)"/><path class="cls-120" d="M922.09,786.94l-1.06-1c.17-.58.1-1.48,1.12-1.09a2,2,0,0,1,1,1C923.57,786.81,922.69,786.78,922.09,786.94Z" transform="translate(-240 540)"/><path class="cls-121" d="M471.13,798.06a1.94,1.94,0,0,1-1.08,1.89c-.6-.14-1.58-.11-1.13-1.06C469.29,798.11,469.9,797,471.13,798.06Z" transform="translate(-240 540)"/><path class="cls-121" d="M1432,798.06a1.94,1.94,0,0,1-1.08,1.89c-.6-.14-1.58-.11-1.13-1.06C1430.14,798.11,1430.75,797,1432,798.06Z" transform="translate(-240 540)"/><path class="cls-122" d="M1279,432l-1.11,1c-.58-.18-1.48-.14-1-1.15a2,2,0,0,1,1-1C1278.88,430.47,1278.78,431.38,1279,432Z" transform="translate(-240 540)"/><path class="cls-123" d="M721,930.92l-1,1c-.59-.18-1.5-.12-1.1-1.14a2,2,0,0,1,1-1C721,929.41,720.86,930.34,721,930.92Z" transform="translate(-240 540)"/><path class="cls-123" d="M1117-180l-1,1c-.59-.18-1.5-.12-1.11-1.14a2,2,0,0,1,1-1C1116.89-181.48,1116.8-180.55,1117-180Z" transform="translate(-240 540)"/><path class="cls-121" d="M867.07-312.83a2,2,0,0,1-1.09,1.9c-.59-.15-1.57-.12-1.12-1.07C865.23-312.77,865.84-313.9,867.07-312.83Z" transform="translate(-240 540)"/><path class="cls-122" d="M883,1542.85l-1.11,1c-.58-.18-1.48-.15-1-1.15a2,2,0,0,1,1-1C882.94,1541.36,882.84,1542.27,883,1542.85Z" transform="translate(-240 540)"/><path class="cls-121" d="M496.19-312.72a1.82,1.82,0,0,1-1.15,1.79c-.6-.15-1.59-.13-1.11-1.1S495-313.91,496.19-312.72Z" transform="translate(-240 540)"/><path class="cls-120" d="M1318-323.95l-1.06-1c.17-.58.1-1.48,1.11-1.09a2,2,0,0,1,1,1C1319.51-324.07,1318.62-324.11,1318-323.95Z" transform="translate(-240 540)"/><path class="cls-124" d="M1578.05,239.07l-.08-2c1.94.14,2,1.54,1.93,3Z" transform="translate(-240 540)"/><path class="cls-125" d="M1046.14,1112.58c.86,1.55,1.78,1.49,2.74.09,0,1-.24,2-1.42,2S1046.13,1113.57,1046.14,1112.58Z" transform="translate(-240 540)"/><path class="cls-108" d="M1173.52,513.14c-1.24.8-1.58,1.69-.27,2.75-1-.09-2-.28-1.91-1.51S1172.57,513.17,1173.52,513.14Z" transform="translate(-240 540)"/><path class="cls-126" d="M282.91,499l-1.78,0c-.06-1.68.38-3,2.42-2.84C282.22,496.84,282.09,497.82,282.91,499Z" transform="translate(-240 540)"/><path class="cls-1" d="M1441.39-394c-1-.28-2.23-.63-1.8-1.84.58-1.65,2.25-.81,3.48-1C1442.58-395.88,1439.94-396.19,1441.39-394Z" transform="translate(-240 540)"/></svg>